<svg width="389" height="577" viewBox="0 0 389 577" fill="none" xmlns="http://www.w3.org/2000/svg">
<path d="M341.562 344.032L355.041 377.864L589.908 261.493L576.429 227.661L341.562 344.032Z" fill="#EDF9FC"/>
<path d="M586.67 300.42C571.518 346.206 547.65 377.937 515.419 395.247C464.852 422.407 406.47 407.186 366.252 389.919L363.205 388.557C355.893 385.29 348.58 382.023 341.706 377.901L328.992 370.995L332.918 355.843C335.448 345.849 338.233 336.495 341.474 327.169C356.348 282.223 385.715 223.78 437.861 200.303C470.585 184.791 507.86 186.291 548.485 204.44C553.699 206.77 559.183 209.22 564.982 212.599C574.109 217.547 583.005 223.042 591.633 229.06L601.378 235.779L599.317 248.347C597.55 259.558 595.216 270.603 592.552 281.238C590.685 287.82 588.724 294.214 586.67 300.42ZM368.213 351.115C370.312 352.053 372.343 352.96 374.442 353.898L377.556 355.29C411.411 370.414 460.723 383.686 501.057 361.851C529.375 346.736 549.396 315.826 561.182 270.113C562.586 264.697 563.787 259.189 564.945 253.575C560.433 250.771 555.87 248.119 551.417 245.605C546.964 243.09 541.523 240.746 537.121 238.78C504.689 224.29 475.516 222.731 450.263 234.223C408.968 253.089 384.773 302.717 371.8 340.98L368.213 351.115Z" fill="#EDF9FC"/>
<path d="M106.788 460.401L120.268 494.233L355.135 377.862L341.656 344.031L106.788 460.401Z" fill="#EDF9FC"/>
<path d="M356.671 391.157L355.358 395.125C340.459 440.148 311.118 498.515 258.946 522.068C225.824 537.139 188.549 535.64 148.127 517.581C142.913 515.251 137.429 512.801 131.63 509.422C122.564 504.408 113.717 498.967 105.005 492.885L95.2594 486.166L97.3203 473.597C99.0816 462.502 101.363 451.534 104.153 440.737C118.57 384.725 144.407 346.34 180.938 326.135C231.413 299.021 289.887 314.196 330.038 331.433L333.288 332.885C340.6 336.152 347.913 339.419 354.787 343.541L367.773 351.27L363.847 366.421C361.704 375.011 359.323 383.145 356.671 391.157ZM131.718 468.293C136.205 471.174 140.768 473.825 145.245 476.264C149.723 478.702 155.132 481.381 159.668 483.408C192.101 497.898 221.299 499.38 246.552 487.889C287.915 469.053 312.017 419.471 324.99 381.208L328.425 370.829C326.326 369.892 324.294 368.984 322.196 368.047L319.081 366.655C285.227 351.53 235.915 338.259 195.555 360.17C167.491 375.223 147.487 406.315 135.481 451.755C134.077 457.172 132.876 462.679 131.718 468.293Z" fill="#EDF9FC"/>
<path d="M333.593 368.313L440.856 637.535L470.371 622.912L363.108 353.69L333.593 368.313Z" fill="#EDF9FC"/>
<path d="M490.38 591.391C488.436 597.266 486.34 603.6 483.576 610.074C479.358 620.289 474.688 630.247 469.583 639.91L463.866 650.845L452.815 647.835C442.84 645.568 433.135 642.721 423.717 639.477C374.102 621.954 339.801 591.738 321.577 550.049C296.697 492.071 308.84 426.021 323.223 380.68L324.435 377.017C327.137 368.852 329.864 360.611 333.379 352.808L339.201 338.504L352.622 343.274C361.473 346.353 369.767 349.708 378.045 353.581C417.867 371.81 469.96 406.032 491.79 465.713C506.016 503.514 505.456 545.834 490.38 591.391ZM447.308 609.287C449.685 604.217 451.97 599.194 454.051 594.08C456.132 588.966 458.355 582.952 460.047 577.839C472.143 541.286 472.852 508.143 462.193 479.293C444.763 431.914 400.637 403.441 366.681 387.92C363.566 386.529 360.519 385.168 357.473 383.806L353.988 394.337C341.361 432.492 330.682 488.247 350.799 534.549C364.619 567.001 392.245 590.38 432.737 604.704C437.526 605.967 442.198 608.055 447.241 609.256L447.308 609.287Z" fill="#EDF9FC"/>
<path d="M226.235 99.0914L333.498 368.314L363.013 353.69L255.749 84.4677L226.235 99.0914Z" fill="#EDF9FC"/>
<path d="M372.001 344.837C369.299 353.002 366.546 361.32 363.082 368.97L357.192 383.244L343.746 378.55C334.852 375.365 326.558 372.01 318.323 368.243C278.375 350.396 226.407 315.792 204.578 256.112C190.673 218.279 191.258 175.883 206.334 130.326C208.278 124.45 210.374 118.116 213.113 111.719C217.335 101.476 222.013 91.4927 227.131 81.8064L232.848 70.8714L243.957 73.4695C253.762 75.7023 263.466 78.5176 273.031 81.9037C322.646 99.4274 356.972 129.566 375.171 171.332C400.094 230.117 387.799 295.924 373.339 340.793L372.001 344.837ZM339.234 338.169L342.719 327.638C355.345 289.483 365.999 233.805 345.882 187.503C332.062 155.051 304.461 131.596 263.969 117.272C259.213 115.673 254.297 114.089 249.33 112.659C246.953 117.728 244.644 122.828 242.563 127.942C240.482 133.056 238.351 139.024 236.659 144.137C224.563 180.689 223.786 213.802 234.421 242.729C251.85 290.107 296.001 318.504 330 334.131C333.115 335.523 336.162 336.884 339.234 338.169Z" fill="#EDF9FC"/>
<path d="M291.702 532.06C297.141 552.639 296.91 574.492 291.039 594.655C284.414 610.779 273.055 623.707 258.873 631.263C252.775 614.686 251.794 596.358 256.093 579.305C263.307 559.657 275.746 543.153 291.702 532.06Z" fill="#EDF9FC"/>
<path d="M405.013 189.657C399.588 169.076 399.819 147.227 405.676 127.062C412.363 111.073 423.677 98.2472 437.766 90.6828C443.882 107.255 444.862 125.59 440.546 142.64C434.799 161.884 420.277 177.819 405.013 189.657Z" fill="#EDF9FC"/>
<path d="M196.313 293.062C177.975 297.745 157.772 299.143 141.183 291.03C126.952 283.158 115.413 270.062 108.469 253.904C122.934 247.224 139.081 246.43 154.213 251.655C171.544 260.351 186.232 274.797 196.313 293.062Z" fill="#EDF9FC"/>
</svg>
