<svg width="285" height="91" viewBox="0 0 285 91" fill="none" xmlns="http://www.w3.org/2000/svg">
<path d="M100.991 33.298C103.43 33.298 105.632 33.829 107.599 34.891C109.566 35.9137 111.1 37.4674 112.201 39.552C113.342 41.6367 113.912 44.1737 113.912 47.163V66.22H108.602V47.93C108.602 44.7047 107.796 42.2464 106.183 40.555C104.57 38.8244 102.368 37.959 99.5749 37.959C96.7429 37.959 94.4812 38.844 92.7899 40.614C91.1379 42.384 90.3119 44.9604 90.3119 48.343V66.22H84.9429V22.56H90.3119V38.49C91.3739 36.838 92.8292 35.5597 94.6779 34.655C96.5659 33.7504 98.6702 33.298 100.991 33.298ZM152.182 48.815C152.182 49.8377 152.123 50.9194 152.005 52.06H126.163C126.36 55.246 127.441 57.7437 129.408 59.553C131.414 61.323 133.833 62.208 136.665 62.208C138.986 62.208 140.913 61.677 142.447 60.615C144.02 59.5137 145.122 58.0584 145.751 56.249H151.533C150.668 59.3564 148.937 61.8934 146.341 63.86C143.745 65.7874 140.52 66.751 136.665 66.751C133.597 66.751 130.844 66.0627 128.405 64.686C126.006 63.3094 124.118 61.3624 122.741 58.845C121.364 56.2884 120.676 53.3384 120.676 49.995C120.676 46.6517 121.345 43.7214 122.682 41.204C124.019 38.6867 125.888 36.7594 128.287 35.422C130.726 34.0454 133.518 33.357 136.665 33.357C139.733 33.357 142.447 34.0257 144.807 35.363C147.167 36.7004 148.976 38.549 150.235 40.909C151.533 43.2297 152.182 45.865 152.182 48.815ZM146.636 47.694C146.636 45.6487 146.184 43.8984 145.279 42.443C144.374 40.9484 143.135 39.8274 141.562 39.08C140.028 38.2934 138.317 37.9 136.429 37.9C133.715 37.9 131.394 38.7654 129.467 40.496C127.579 42.2267 126.497 44.626 126.222 47.694H146.636ZM164.638 22.56V66.22H159.269V22.56H164.638ZM203.289 48.815C203.289 49.8377 203.23 50.9194 203.112 52.06H177.27C177.466 55.246 178.548 57.7437 180.515 59.553C182.521 61.323 184.94 62.208 187.772 62.208C190.092 62.208 192.02 61.677 193.554 60.615C195.127 59.5137 196.228 58.0584 196.858 56.249H202.64C201.774 59.3564 200.044 61.8934 197.448 63.86C194.852 65.7874 191.626 66.751 187.772 66.751C184.704 66.751 181.95 66.0627 179.512 64.686C177.112 63.3094 175.224 61.3624 173.848 58.845C172.471 56.2884 171.783 53.3384 171.783 49.995C171.783 46.6517 172.451 43.7214 173.789 41.204C175.126 38.6867 176.994 36.7594 179.394 35.422C181.832 34.0454 184.625 33.357 187.772 33.357C190.84 33.357 193.554 34.0257 195.914 35.363C198.274 36.7004 200.083 38.549 201.342 40.909C202.64 43.2297 203.289 45.865 203.289 48.815ZM197.743 47.694C197.743 45.6487 197.29 43.8984 196.386 42.443C195.481 40.9484 194.242 39.8274 192.669 39.08C191.135 38.2934 189.424 37.9 187.536 37.9C184.822 37.9 182.501 38.7654 180.574 40.496C178.686 42.2267 177.604 44.626 177.329 47.694H197.743ZM226.129 33.298C230.062 33.298 233.248 34.4977 235.687 36.897C238.125 39.257 239.345 42.679 239.345 47.163V66.22H234.035V47.93C234.035 44.7047 233.228 42.2464 231.616 40.555C230.003 38.8244 227.8 37.959 225.008 37.959C222.176 37.959 219.914 38.844 218.223 40.614C216.571 42.384 215.745 44.9604 215.745 48.343V66.22H210.376V33.888H215.745V38.49C216.807 36.838 218.242 35.5597 220.052 34.655C221.9 33.7504 223.926 33.298 226.129 33.298ZM246.109 49.936C246.109 46.632 246.777 43.741 248.115 41.263C249.452 38.7457 251.281 36.7987 253.602 35.422C255.962 34.0454 258.577 33.357 261.449 33.357C264.281 33.357 266.739 33.9667 268.824 35.186C270.908 36.4054 272.462 37.9394 273.485 39.788V33.888H278.913V66.22H273.485V60.202C272.423 62.09 270.83 63.6634 268.706 64.922C266.621 66.1414 264.182 66.751 261.39 66.751C258.518 66.751 255.922 66.043 253.602 64.627C251.281 63.211 249.452 61.2247 248.115 58.668C246.777 56.1114 246.109 53.2007 246.109 49.936ZM273.485 49.995C273.485 47.5564 272.993 45.4324 272.01 43.623C271.026 41.8137 269.689 40.437 267.998 39.493C266.346 38.5097 264.517 38.018 262.511 38.018C260.505 38.018 258.676 38.49 257.024 39.434C255.372 40.378 254.054 41.7547 253.071 43.564C252.087 45.3734 251.596 47.4974 251.596 49.936C251.596 52.414 252.087 54.5774 253.071 56.426C254.054 58.2354 255.372 59.6317 257.024 60.615C258.676 61.559 260.505 62.031 262.511 62.031C264.517 62.031 266.346 61.559 267.998 60.615C269.689 59.6317 271.026 58.2354 272.01 56.426C272.993 54.5774 273.485 52.4337 273.485 49.995Z" fill="white"/>
<path d="M37.0094 33.8292L33.8345 37.0042L59.0994 62.2691L62.2743 59.0942L37.0094 33.8292Z" fill="white"/>
<path d="M54.4903 63.51C48.4903 63.51 43.6503 61.79 40.0303 58.38C34.3503 53.03 33.1103 44.87 33.0303 38.96V38.51C33.0303 37.43 33.0303 36.35 33.1503 35.29L33.2903 33.36L35.2203 33.22C36.4903 33.12 37.7003 33.08 38.9303 33.1C44.8203 33.1 52.9903 34.39 58.3303 40.1C61.7703 43.65 63.5003 48.51 63.5003 54.51C63.5003 55.28 63.5003 56.09 63.4103 56.98C63.3109 58.3649 63.1373 59.7436 62.8903 61.11L62.6203 62.65L61.0803 62.92C59.7103 63.17 58.3303 63.34 56.9803 63.45C56.1336 63.49 55.3036 63.51 54.4903 63.51ZM37.5603 37.56C37.5603 37.87 37.5603 38.17 37.5603 38.48V38.94C37.5603 43.94 38.5603 50.85 43.1103 55.11C46.2803 58.11 50.8303 59.37 56.6503 58.94C57.3403 58.89 58.0303 58.81 58.7303 58.72C58.8203 58.02 58.8903 57.32 58.9503 56.64C59.0103 55.96 59.0003 55.16 59.0003 54.51C59.0003 49.72 57.6903 45.9 55.0903 43.14C50.8303 38.63 43.9303 37.63 38.9003 37.59L37.5603 37.56Z" fill="white"/>
<path d="M11.7491 8.57631L8.57422 11.7512L33.8391 37.0161L37.0141 33.8412L11.7491 8.57631Z" fill="white"/>
<path d="M32.4001 37.78H31.8801C25.9801 37.78 17.8201 36.49 12.4701 30.78C9.06008 27.16 7.33008 22.3 7.33008 16.33C7.33008 15.56 7.33008 14.75 7.42008 13.86C7.53008 12.48 7.70008 11.11 7.95008 9.73001L8.22008 8.19001L9.76008 7.92001C11.1166 7.67422 12.4852 7.50065 13.8601 7.40001C20.9901 6.87001 26.6901 8.56001 30.8601 12.4C36.5301 17.74 37.7801 25.91 37.8601 31.81V32.29C37.8601 33.37 37.8601 34.45 37.7401 35.51L37.5201 37.51L35.5901 37.65C34.5001 37.74 33.4501 37.78 32.4001 37.78ZM12.1201 12.12C12.0201 12.82 11.9501 13.52 11.9001 14.2C11.8501 14.88 11.8201 15.69 11.8201 16.36C11.8201 21.15 13.1401 24.97 15.7401 27.73C20.0001 32.25 26.8901 33.24 31.9201 33.28H33.2801C33.2801 32.97 33.2801 32.67 33.2801 32.36V31.9C33.2801 26.9 32.2801 19.99 27.7201 15.73C24.5701 12.76 20.0001 11.51 14.2001 11.9C13.5101 11.95 12.8201 12.03 12.1201 12.12Z" fill="white"/>
<path d="M33.8308 33.8379L8.56592 59.1028L11.7408 62.2777L37.0058 37.0128L33.8308 33.8379Z" fill="white"/>
<path d="M16.3601 63.51C15.5901 63.51 14.7601 63.51 13.8801 63.43C12.4988 63.3223 11.1237 63.1454 9.76013 62.9L8.22013 62.63L8.00013 61.08C7.75013 59.7 7.58013 58.33 7.47013 56.98C6.94013 49.85 8.64013 44.15 12.4701 40.03C17.8201 34.36 25.9801 33.11 31.8901 33.03H32.3701C33.4401 33.03 34.5201 33.03 35.5901 33.15L37.5201 33.29L37.6601 35.22C37.7601 36.49 37.8001 37.7 37.7801 38.93C37.7301 44.83 36.4801 52.99 30.7801 58.34C27.1901 61.78 22.3301 63.51 16.3601 63.51ZM12.1201 58.73C12.8201 58.82 13.5101 58.9 14.2001 58.95C14.8901 59 15.6901 59.03 16.3601 59.03C21.1501 59.03 24.9701 57.71 27.7201 55.11C32.2401 50.85 33.2401 43.96 33.2801 38.93C33.2801 38.47 33.2801 38.02 33.2801 37.57H31.9001C26.9001 37.57 19.9901 38.57 15.7301 43.13C12.7301 46.29 11.4701 50.84 11.9001 56.66C12.0001 57.33 12.0001 58.02 12.1201 58.72V58.73Z" fill="white"/>
<path d="M59.0911 8.56064L33.8262 33.8256L37.0011 37.0005L62.266 11.7355L59.0911 8.56064Z" fill="white"/>
<path d="M38.4701 37.78C37.4001 37.78 36.3101 37.78 35.2601 37.66L33.3301 37.51L33.1801 35.58C33.0901 34.3 33.0501 33.09 33.0601 31.87C33.0601 25.97 34.3601 17.81 40.0601 12.46C43.6701 9.06002 48.5401 7.33002 54.5101 7.33002C55.2801 7.33002 56.1101 7.33002 56.9801 7.41002C58.3648 7.51708 59.7432 7.69397 61.1101 7.94002L62.6501 8.21002L62.9201 9.75002C63.1652 11.1066 63.3388 12.4752 63.4401 13.85C63.9701 20.98 62.2801 26.68 58.4401 30.8C53.0001 36.51 44.8601 37.73 39.0001 37.78H38.4701ZM37.5601 33.28H38.9401C43.9401 33.28 50.8401 32.28 55.1001 27.72C58.1001 24.56 59.3701 20.01 58.9401 14.19C58.8801 13.51 58.8101 12.81 58.7201 12.11C58.0201 12.02 57.3201 11.94 56.6301 11.89C55.9401 11.84 55.1501 11.82 54.4801 11.82C49.6901 11.82 45.8701 13.13 43.1101 15.73C38.5901 19.99 37.6001 26.88 37.5501 31.92C37.5501 32.38 37.5501 32.83 37.5601 33.28Z" fill="white"/>
<path d="M13 35.4201C10.928 36.9962 8.42132 37.8969 5.82 38.0001C3.64121 37.8343 1.58599 36.9232 0 35.4201C1.58139 33.9296 3.62381 33.0231 5.79 32.8501C8.40106 32.9417 10.9197 33.8394 13 35.4201Z" fill="white"/>
<path d="M57.8701 35.4201C59.9431 33.8457 62.4492 32.9452 65.0501 32.8401C67.2166 33.0197 69.2579 33.9293 70.8401 35.4201C69.2601 36.9126 67.2169 37.8195 65.0501 37.9901C62.5601 38.0701 60.0001 36.8801 57.8701 35.4201Z" fill="white"/>
<path d="M35.4197 12.97C33.9497 10.81 32.7597 8.27 32.8397 5.79C33.0127 3.62381 33.9193 1.58139 35.4097 0C36.9102 1.57674 37.8244 3.62048 37.9997 5.79C37.8909 8.3902 36.9907 10.8952 35.4197 12.97Z" fill="white"/>
</svg>
