<svg width="50" height="84" viewBox="0 0 50 84" fill="none" xmlns="http://www.w3.org/2000/svg">
<path opacity="0.5" d="M31.1359 47.2718C31.3935 47.5294 46.3176 34.8397 46.3176 34.8397L47.8629 13.5881L34.9783 19.1359L13.2325 18.2798L2.31787 13.3306L4.02329 34.1854C4.01633 34.1854 30.8853 47.0212 31.1359 47.2718Z" fill="white"/>
<path opacity="0.7" d="M24.029 1.21869L12.982 2.2837L4.64987 5.2908L0 10.1356L5.03968 68.6627L4.94222 76.0273C4.94222 76.0273 10.852 83.6842 24.8086 83.6842C38.7651 83.6842 45.545 76.7094 45.545 76.7094L45.4476 69.1499L50 10.7133L46.7075 5.96601L34.2058 1.99135L24.029 1.21869Z" fill="#E0E0E0"/>
<path d="M3.97461 34.1575C3.97461 36.0579 6.39699 69.2334 7.46201 70.9806C8.52702 72.7278 14.1027 78.1851 24.9547 77.9902C35.8067 77.7953 42.4404 73.0132 43.0182 71.3634C43.6029 69.7137 46.3107 34.8327 46.3107 34.8327C46.3107 34.8327 46.0183 31.053 38.1734 28.4357C30.3285 25.8184 20.5345 26.3683 15.5993 27.3707C9.39714 28.6376 3.97461 32.0275 3.97461 34.1575Z" fill="#C0C0C0"/>
<path d="M7.50381 40.6869L5.3877 36.5243C5.3877 36.5243 5.34593 35.2922 5.51299 34.5543C5.68005 33.8165 6.93997 30.35 15.1677 28.7072C21.697 27.3985 29.9874 27.5169 36.0086 29.1597C40.0877 30.2734 44.0832 32.4382 44.6331 34.5891C45.2596 37.0324 44.1807 38.0765 44.1807 38.0765L40.0946 44.6058L10.2255 44.2091L7.50381 40.6869Z" fill="#D1F4FA"/>
<path d="M8.75688 70.0409C9.02139 70.9388 13.2397 76.1734 24.7112 76.1734C36.1827 76.1734 41.292 71.9134 41.4034 70.9458C41.5148 69.9782 44.7516 36.8166 44.7516 36.8166C44.7516 36.8166 40.0391 42.9491 25.0453 42.6637C10.0516 42.3783 5.39478 36.4964 5.39478 36.4964C5.39478 36.4964 8.47149 69.0803 8.75688 70.0409Z" fill="#53CDE2"/>
<path d="M9.71734 23.6466C8.07457 23.751 7.21838 25.0109 7.55946 27.6213C7.78917 29.3754 8.24163 31.2548 10.5666 31.0251C12.9193 30.7954 12.9889 28.3382 12.7244 26.9391C12.3346 24.8439 11.5411 23.5352 9.71734 23.6466Z" fill="white"/>
<path d="M10.518 32.0554C8.93089 32.1807 8.41579 33.1343 8.6455 35.9744C8.94481 39.7263 10.8591 63.2888 11.0331 65.3353C11.2001 67.3818 12.112 68.1197 13.358 68.1197C14.604 68.1197 15.6273 66.8737 15.5716 65.4537C15.5159 64.0337 13.358 37.2273 13.184 35.6959C13.0169 34.1576 12.7315 31.8814 10.518 32.0554Z" fill="white"/>
<path d="M7.16263 72.9644C6.68929 74.1965 8.33206 76.7163 11.5967 78.3939C15.2373 80.2664 19.3094 79.981 19.379 78.4496C19.4486 76.8347 16.9357 77.2662 13.1351 75.4425C9.98875 73.932 7.90049 71.0293 7.16263 72.9644Z" fill="white"/>
<path d="M26.4583 80.2664C26.3122 81.4776 32.5491 81.0599 37.3243 79.4172C42.7538 77.5447 44.3478 74.8926 43.7213 73.9807C43.0948 73.0688 41.8349 75.4286 36.4681 77.1758C29.0339 79.5773 26.6741 78.4287 26.4583 80.2664Z" fill="#D5D5D5"/>
<path d="M25.7274 20.9388H25.2331C9.58508 20.8414 3.72402 16.7414 1.62184 14.2007C0.257504 12.544 -0.187991 10.7411 0.13917 8.987V8.93132C1.71233 4.23272 10.5805 0.0561965 24.9895 0.000509473C41.2292 -0.0621384 49.5545 5.66667 49.9582 9.57172C50.0835 10.8247 49.8538 13.0174 47.9883 14.9803C44.5914 18.5373 36.5515 20.9388 25.7274 20.9388ZM3.45255 9.5578C3.23676 10.7063 3.18108 11.6461 4.16256 12.8294C5.66611 14.6462 9.87048 18.3842 25.2192 18.4816H25.7343C39.489 18.4816 43.8813 15.4537 45.719 13.428C46.7492 12.2934 47.153 11.2911 47.0346 10.0938C46.7631 7.52522 39.9763 2.61084 25.1635 2.69437C9.39018 2.7779 4.03726 6.77345 3.52912 9.47427L3.45255 9.5578Z" fill="#C8C8C8"/>
<path d="M5.35302 6.74559C5.03978 6.41147 3.91212 6.62726 2.99328 7.69227C2.17886 8.63895 1.09296 10.588 2.69396 12.7946C4.30889 15.0151 9.3416 19.1429 25.811 19.3587C40.6934 19.5536 47.8144 14.4722 48.0232 11.0405C48.232 7.60874 46.095 7.69227 46.095 8.16561C46.095 8.63895 46.5405 9.59259 46.3944 10.7411C46.2203 12.0637 42.9209 17.7229 25.637 17.7647C9.08405 17.8064 3.66849 12.4466 3.72417 10.7342C3.8077 8.07512 6.04215 7.47648 5.35302 6.74559Z" fill="white"/>
</svg>
