<svg width="27" height="34" viewBox="0 0 27 34" fill="none" xmlns="http://www.w3.org/2000/svg">
<path d="M9.10176 1.50562C9.15994 1.54186 9.15994 1.54186 9.21952 1.57914C9.44008 1.72339 9.60976 1.85614 9.69338 2.11223C9.73798 2.36275 9.73868 2.61048 9.74146 2.86483C9.74251 2.90978 9.7439 2.95472 9.7453 3.00106C9.74878 3.39827 9.6568 3.74669 9.41464 4.06725C9.39234 4.09756 9.37004 4.12787 9.34705 4.15923C9.23869 4.277 9.15402 4.33553 8.99165 4.35435C8.62232 4.34877 8.24951 4.33867 7.91502 4.16759C7.87495 4.14913 7.87495 4.14912 7.83419 4.13066C7.62095 4.03101 7.42304 3.91289 7.25232 3.75088V3.68119C7.23176 3.67178 7.21085 3.66238 7.1896 3.65262C7.11329 3.61185 7.06347 3.57074 7.0025 3.51011C6.98229 3.49025 6.96208 3.47004 6.94152 3.44949C6.90981 3.41743 6.90981 3.41743 6.87776 3.38503C6.85616 3.36308 6.83455 3.34148 6.81226 3.31918C6.66174 3.16622 6.52829 3.00943 6.4046 2.83487C6.38543 2.81535 6.36662 2.79584 6.34711 2.77598C6.19589 2.77598 6.16837 2.79201 6.05095 2.87598C5.90321 2.98051 5.90321 2.98051 5.82203 3.01814C5.7398 3.06274 5.69451 3.11535 5.63493 3.18747C5.56455 3.27109 5.49556 3.34844 5.41716 3.42475C5.3311 3.50802 5.3311 3.50802 5.26037 3.623C5.23946 3.65401 5.21891 3.68467 5.19731 3.71673H5.12762C5.12344 3.74251 5.11926 3.7683 5.11508 3.79478C5.09313 3.88955 5.06421 3.95157 5.01438 4.03449C4.86491 4.29477 4.744 4.56062 4.66665 4.84981C4.63843 4.9411 4.60115 5.02646 4.56282 5.11391C4.5245 5.2059 4.49384 5.29997 4.46248 5.39474C4.30987 5.85118 4.09315 6.24839 3.69943 6.53758H3.5949L3.56006 6.64211C3.47643 6.69019 3.47643 6.69019 3.3726 6.73548C3.33881 6.75081 3.30466 6.76615 3.26947 6.78182C3.17679 6.81632 3.17679 6.81632 3.07226 6.81632L3.03742 6.886L2.75868 6.85116V6.92085C3.2395 6.88043 3.2395 6.88043 3.69943 6.74663C3.75657 6.72642 3.81406 6.70691 3.87155 6.68775C3.90953 6.67451 3.90953 6.67451 3.94855 6.66127C4.01301 6.64211 4.01301 6.64211 4.08269 6.64211L4.11754 6.53758C4.14332 6.52747 4.16945 6.51737 4.19593 6.50692C4.29941 6.47242 4.29941 6.47242 4.37676 6.37626C4.46596 6.29368 4.46596 6.29368 4.56073 6.28114C4.69766 6.29612 4.80149 6.34455 4.91961 6.40901C4.94052 6.41981 4.96142 6.43061 4.98302 6.44176C5.33493 6.62434 5.65548 6.84593 5.9621 7.0968C5.983 7.11283 6.00356 7.12886 6.02482 7.14523C6.39763 7.44348 6.72863 7.89086 6.85755 8.35078C6.9018 8.45461 6.93908 8.51071 7.04222 8.56019C7.22758 8.62604 7.41851 8.66924 7.61015 8.71349C8.47424 8.9215 9.34879 9.39292 9.82265 10.1629C9.9 10.2999 9.97073 10.4264 10.0024 10.5811C10.1638 10.6142 10.3087 10.6162 10.4728 10.6047C10.5171 10.6023 10.5613 10.5995 10.6066 10.5967C10.8582 10.5657 11.1223 10.4727 11.3035 10.2912C11.4554 10.0494 11.4836 9.8626 11.4801 9.58037C11.4805 9.5316 11.4805 9.5316 11.4812 9.48142C11.4812 9.45006 11.4808 9.4187 11.4808 9.3863C11.4808 9.35773 11.4805 9.32951 11.4805 9.30024C11.4634 9.20164 11.4303 9.1539 11.3623 9.08178C11.2386 9.04032 11.14 9.04241 11.0104 9.04241H10.9366C10.8042 9.0431 10.6732 9.04798 10.5394 9.05843C10.5132 9.06052 10.4871 9.06227 10.4603 9.06436C10.4104 9.06854 10.3606 9.07307 10.3108 9.07864C10.1282 9.09363 10.0216 9.06052 9.86481 8.97725C9.68258 8.79502 9.75157 8.44416 9.75157 8.20375C9.75575 7.68111 9.84042 7.18286 9.96933 6.67765C9.97909 6.63793 9.98885 6.5982 9.9993 6.55709C10.0237 6.45779 10.0488 6.35849 10.0739 6.25954H10.0042V6.18985C9.9669 6.18915 9.92961 6.18846 9.89094 6.18776C9.67666 6.16058 9.46586 6.05362 9.30558 5.91111C9.28259 5.80902 9.28259 5.80902 9.30558 5.70206C9.43868 5.51391 9.62788 5.4606 9.83519 5.38847C10.0791 5.30276 10.3021 5.20625 10.5251 5.07489C10.6296 5.0167 10.7341 4.95852 10.8387 4.90068C10.8481 4.77176 10.8428 4.69999 10.7843 4.58257C10.7024 4.40766 10.7247 4.21324 10.769 4.02857C10.8139 3.95784 10.8606 3.88815 10.9083 3.81951C10.9658 3.70697 11.0153 3.59095 11.0662 3.47527C11.1453 3.30036 11.1453 3.30036 11.2219 3.26204C11.238 3.21012 11.238 3.21012 11.2547 3.15751C11.2669 3.12301 11.2791 3.08852 11.2916 3.05298C11.3435 3.03556 11.3435 3.03556 11.3961 3.01814C11.4205 2.97215 11.4435 2.9258 11.4658 2.87877C11.5066 2.82825 11.5487 2.77877 11.592 2.73069C11.6142 2.70595 11.6362 2.68121 11.6588 2.65612C11.6839 2.62825 11.6839 2.62825 11.7097 2.60003C11.6947 2.56588 11.6947 2.56588 11.6791 2.53069C11.5327 2.17181 11.5407 1.85823 11.64 1.48542C11.8135 1.45022 11.9564 1.45371 12.1313 1.48089C12.4787 1.53385 12.8247 1.57043 13.1766 1.59378C13.1996 1.59517 13.2222 1.59691 13.2459 1.59831C13.6222 1.6227 13.9985 1.62932 14.3783 1.62653C14.4163 1.62618 14.4163 1.62618 14.4553 1.62618C14.6894 1.62409 14.9222 1.6213 15.1591 1.61817C15.2898 1.61608 15.4201 1.61503 15.5494 1.61433C15.5981 1.61364 15.6469 1.61294 15.6957 1.61224C16.0441 1.60527 16.302 1.63559 16.5737 1.86415C16.857 2.17112 16.9814 2.57146 17.0162 2.97911C17.041 3.24078 17.0668 3.446 17.2399 3.65506C17.2831 3.71429 17.2831 3.71429 17.2831 3.81882H17.3528C17.3932 3.9122 17.4329 4.00592 17.4727 4.09965C17.4897 4.13902 17.4897 4.13902 17.5068 4.17909C17.5741 4.33937 17.6092 4.48152 17.6315 4.65643L17.7012 4.76096C17.8542 5.55537 17.6688 6.34629 17.2274 7.01527C17.1674 7.10342 17.1072 7.18879 17.0392 7.27101H16.9695C16.9553 7.30167 16.9553 7.30167 16.941 7.33268C16.8535 7.49784 16.7134 7.66369 16.5507 7.75776H16.4462C16.4382 7.77693 16.4305 7.79644 16.4222 7.8163C16.364 7.91908 16.2856 7.98807 16.2023 8.07135C16.0981 8.21629 16.0114 8.3689 15.9236 8.5243L15.8539 8.62883H15.7842C15.78 8.64869 15.7755 8.66889 15.771 8.6898C15.7417 8.79537 15.711 8.88004 15.6274 8.95321C15.4647 9.13613 15.4933 9.42707 15.4947 9.65354C15.4947 9.69048 15.495 9.72741 15.495 9.76539C15.503 10.3124 15.6075 10.7828 15.9236 11.2427V11.3124C15.9539 11.3253 15.9539 11.3253 15.9845 11.3385C16.0629 11.3821 16.0629 11.3821 16.1225 11.4444C16.2201 11.5385 16.3281 11.61 16.442 11.6824C16.4626 11.6964 16.4835 11.7099 16.5051 11.7242C16.526 11.7375 16.5466 11.7507 16.5678 11.7643C16.5863 11.7765 16.6047 11.7883 16.6239 11.8005C16.7803 11.8821 16.933 11.9138 17.1082 11.9256C17.1465 11.9281 17.1849 11.9309 17.2246 11.934C17.264 11.9364 17.3033 11.9389 17.3441 11.9417C17.4232 11.9469 17.5019 11.9525 17.581 11.958C17.6159 11.9605 17.6504 11.9626 17.6863 11.965C17.7709 11.9744 17.7709 11.9744 17.8406 12.0092V12.0789H17.9451L17.98 12.0092C18.743 12.1817 19.4643 12.4517 20.067 12.9709C20.1594 13.0308 20.2165 13.0329 20.3259 13.0347C20.3615 13.0357 20.3973 13.0364 20.4339 13.0374C20.4712 13.0378 20.5085 13.0385 20.5465 13.0388C20.8148 13.0434 21.0656 13.0608 21.3269 13.1239V13.1935H21.3966L21.4315 13.1239C22.0865 13.3176 22.0865 13.3176 22.2677 13.4374C22.3565 13.6392 22.3712 13.8625 22.399 14.0785C22.4419 14.39 22.5384 14.6604 22.6816 14.9392L22.7182 15.0123C22.8036 15.1789 22.8983 15.3367 22.9994 15.4931V15.5628C22.8513 15.558 22.7032 15.5527 22.5534 15.5475C22.4914 15.5454 22.4914 15.5454 22.428 15.5433C22.2276 15.5364 22.0273 15.5276 21.8287 15.5137C21.7963 15.5113 21.7642 15.5092 21.7308 15.5067C21.6336 15.4921 21.5559 15.4618 21.4656 15.4235C21.3747 15.4029 21.2848 15.3837 21.1935 15.3667C21.1691 15.3621 21.1451 15.3573 21.1203 15.3527C21.0611 15.3412 21.0022 15.3301 20.943 15.3189V15.2493C20.9238 15.2458 20.9047 15.2423 20.8851 15.2388C20.6827 15.1987 20.5088 15.1332 20.3242 15.0423C20.2987 15.0301 20.2733 15.0182 20.2472 15.0057C20.1148 14.9419 19.9872 14.8743 19.8639 14.7963V14.866C19.8841 14.8754 19.9043 14.8848 19.9252 14.8946C20.0026 14.9353 20.067 14.9803 20.136 15.0336C20.1608 15.052 20.1852 15.0705 20.2106 15.0897C20.2534 15.1228 20.296 15.1559 20.3385 15.1897C20.5329 15.3391 20.7566 15.4311 20.9796 15.528C21.0043 15.5391 21.0294 15.5503 21.0548 15.5618C21.5566 15.7733 22.3614 15.8005 22.8736 15.6001C22.9604 15.5684 23.0119 15.551 23.1043 15.5628C23.2377 15.6646 23.3422 15.7855 23.4527 15.9113L23.5224 15.9461V16.0158L23.5921 15.9809C23.5684 15.959 23.545 15.937 23.5206 15.9144C23.3381 15.7391 23.1917 15.5918 23.1025 15.3534C23.0823 15.3036 23.0823 15.3036 23.0621 15.2527C22.8402 14.6534 22.7611 14.0089 22.6997 13.3782C22.637 12.7371 22.4771 12.204 22.1806 11.6326C22.1677 11.6082 22.1548 11.5835 22.1419 11.5584C22.0768 11.4368 22.0085 11.3232 21.9269 11.212C21.8496 11.1037 21.8496 11.1037 21.8496 11.034H21.7799C21.7607 10.9999 21.7419 10.9654 21.7221 10.9302C21.6492 10.8392 21.6102 10.8256 21.4931 10.8065C21.3747 10.8026 21.2587 10.8033 21.1412 10.8086C21.0663 10.8117 20.9918 10.8124 20.9168 10.8128C20.6681 10.8121 20.6681 10.8121 20.4569 10.9222C20.4123 10.9932 20.3813 11.0591 20.3538 11.1385C20.2771 11.2803 20.1806 11.3204 20.0308 11.3664C19.881 11.3915 19.7385 11.3709 19.5883 11.3542C19.4528 11.3455 19.3653 11.3716 19.2399 11.4173H19.1005C19.0441 11.3159 19.0207 11.2309 19.0047 11.1166C18.9897 11.0344 18.9897 11.0344 18.9611 10.9643C18.866 10.919 18.866 10.919 18.7521 10.8946C18.6451 10.842 18.5733 10.7859 18.5082 10.6856C18.4845 10.5601 18.4779 10.4417 18.4758 10.3128C18.4768 10.2009 18.4768 10.2009 18.4559 10.1107C18.4326 9.99187 18.434 9.87758 18.4343 9.75528C18.434 9.70964 18.434 9.664 18.434 9.61696C18.4385 9.49849 18.4385 9.49849 18.4733 9.39397H18.543L18.5082 9.28944H18.5779C18.588 9.26784 18.5981 9.24623 18.6085 9.22394C18.6476 9.15007 18.6476 9.15007 18.7172 9.08038C18.7357 9.00269 18.7357 9.00269 18.7479 8.91488C18.7827 8.72464 18.8496 8.59956 18.9873 8.46193C19.242 8.32047 19.5204 8.34137 19.8026 8.34834C19.8461 8.34904 19.8897 8.34974 19.9343 8.35043C20.0489 8.35287 20.1639 8.35531 20.2785 8.3581L20.5597 8.36333C20.6719 8.36542 20.7837 8.36751 20.8959 8.36995C20.9381 8.37064 20.9799 8.37169 21.0231 8.37238C21.0621 8.37343 21.1012 8.37413 21.1409 8.37517C21.1754 8.37587 21.2095 8.37657 21.2447 8.37761C21.3308 8.38353 21.3308 8.38353 21.4353 8.41838V8.48806H21.5398L21.5747 8.41838C21.9998 8.53475 22.4283 8.66402 22.7245 9.0107C22.7419 9.02951 22.759 9.04833 22.7767 9.06749C22.9422 9.24972 23.0778 9.44379 23.2088 9.64936C23.2293 9.68072 23.2496 9.71208 23.2708 9.74448C23.4199 9.97549 23.4199 9.97549 23.4199 10.0546H23.4896C23.5464 10.1274 23.599 10.2002 23.6506 10.2765C23.6656 10.2978 23.6802 10.3187 23.6952 10.3403C23.8032 10.4981 23.8032 10.4981 23.8032 10.5772H23.8729C23.9178 10.6358 23.9178 10.6358 23.9642 10.7121C23.9875 10.7497 23.9875 10.7497 24.0116 10.788C24.0471 10.856 24.0471 10.856 24.0471 10.9256H24.1168C24.1642 10.987 24.2088 11.0504 24.252 11.1152C24.2802 11.1566 24.3084 11.1985 24.3366 11.2403C24.3516 11.2626 24.367 11.2852 24.3823 11.3082C24.4659 11.4305 24.5516 11.5514 24.6373 11.6741C24.6551 11.6991 24.6729 11.7242 24.6913 11.7504C24.7729 11.8657 24.8544 11.981 24.938 12.095C25.7568 13.2204 26.3979 14.4677 26.6035 15.8579C26.6199 15.9813 26.6199 15.9813 26.6585 16.0879C26.6909 16.4956 26.6324 16.8196 26.3732 17.1402C25.9481 17.5652 25.3 17.5966 24.7391 17.6593C24.7011 17.6638 24.6631 17.668 24.6241 17.6729C24.0736 17.7367 23.5266 17.7889 22.976 17.8269C22.9457 17.829 22.9151 17.8314 22.8837 17.8335C22.382 17.868 21.8872 17.8847 21.3855 17.8356C21.3541 17.8328 21.3224 17.8304 21.29 17.8272C20.5548 17.7586 19.8371 17.4816 19.2273 17.0677C19.2012 17.0503 19.1754 17.0328 19.1486 17.0147C19.0981 16.9802 19.0475 16.945 18.9977 16.9091C18.8298 16.7945 18.7092 16.7551 18.5064 16.7855C18.412 16.8032 18.32 16.8269 18.2277 16.8531C18.0883 16.8914 17.9538 16.9262 17.8096 16.9402C17.6852 16.9537 17.5831 16.9903 17.4674 17.0367C17.3187 17.0903 17.1629 17.1175 17.0075 17.1492C16.9364 17.1642 16.8654 17.1792 16.7943 17.1945C16.742 17.2053 16.742 17.2053 16.6891 17.2168C16.5507 17.2468 16.4131 17.2785 16.2744 17.3123C16.2121 17.3276 16.2121 17.3276 16.1483 17.3433C15.9615 17.398 15.7964 17.4579 15.6535 17.5931C15.5215 17.7147 15.3839 17.8255 15.2424 17.9356C15.1563 18.0049 15.1563 18.0049 15.0734 18.0903C14.9842 18.1799 14.8915 18.2589 14.7933 18.338C14.7612 18.3638 14.7292 18.39 14.6964 18.4164C14.634 18.4666 14.5713 18.5164 14.5083 18.5659C14.4222 18.6335 14.4222 18.6335 14.3337 18.7279C14.2532 18.8063 14.2532 18.8063 14.1835 18.8063L14.1487 18.9108C14.0905 18.9638 14.0299 19.0143 13.9679 19.0631C13.9334 19.091 13.8985 19.1185 13.863 19.1471C13.8306 19.1725 13.7985 19.198 13.7654 19.2244C13.6156 19.346 13.4776 19.4736 13.3438 19.6147C13.2762 19.6781 13.2762 19.6781 13.1717 19.7129C13.0762 19.8014 12.9999 19.8833 12.9278 19.9917C12.8933 20.0032 12.8588 20.0147 12.8233 20.0265C12.7644 20.0836 12.7066 20.1418 12.6491 20.2007C12.5916 20.2478 12.5337 20.2944 12.4749 20.3401C12.5094 20.3829 12.5094 20.3829 12.5773 20.3749C12.608 20.3732 12.6386 20.3711 12.6703 20.369C12.7069 20.3666 12.7435 20.3641 12.7811 20.3617C12.8229 20.3589 12.8647 20.3558 12.9076 20.3526C12.9529 20.3498 12.9982 20.3467 13.0449 20.3432C13.8463 20.2868 14.6476 20.215 15.449 20.1471C17.5744 19.9662 17.5744 19.9662 18.5744 19.885C18.6496 19.8791 18.7253 19.8728 18.8009 19.8666L19.1113 19.8415C19.1413 19.8391 19.1712 19.8366 19.2019 19.8342C19.3765 19.8202 19.5489 19.8091 19.7245 19.8174L19.7942 19.8871C19.7496 19.9464 19.7029 20.0046 19.6549 20.0613H19.5852C19.5712 20.092 19.5712 20.092 19.5569 20.123C19.5148 20.2021 19.4691 20.2589 19.4089 20.3248C19.2789 20.4697 19.1566 20.6199 19.036 20.7707C18.957 20.8645 18.8719 20.9498 18.7848 21.0362C18.7531 21.0742 18.7218 21.1125 18.6911 21.1516C18.6646 21.1826 18.6381 21.2132 18.6106 21.2453H18.5409C18.5329 21.2704 18.5253 21.2955 18.5169 21.3213C18.4618 21.4397 18.3925 21.5049 18.297 21.5937C18.1646 21.715 18.1646 21.715 18.088 21.8725C18.0385 21.9185 18.0385 21.9185 17.9768 21.9658C17.8577 22.0641 17.7709 22.1704 17.6824 22.2965C17.6357 22.3592 17.5897 22.4132 17.5305 22.4648H17.4608C17.4479 22.4937 17.4479 22.4937 17.4347 22.5233C17.3831 22.6188 17.3239 22.6972 17.2518 22.7784H17.1821C17.1692 22.8073 17.1692 22.8073 17.1559 22.8369C17.065 23.0055 16.933 23.1317 16.8006 23.2655C16.7755 23.2979 16.7504 23.3299 16.7243 23.3634C16.7033 23.3885 16.6828 23.4135 16.6612 23.4397H16.5915C16.5786 23.4686 16.5786 23.4686 16.5654 23.4982C16.5023 23.6153 16.4337 23.7275 16.3128 23.7881C16.2988 23.8181 16.2988 23.8181 16.2845 23.8491C16.2417 23.9299 16.1912 23.9825 16.1253 24.0452C15.9577 24.2121 15.8006 24.3919 15.6514 24.5748C15.6278 24.6024 15.6041 24.6295 15.5797 24.6578H15.51C15.4981 24.6856 15.4981 24.6856 15.4859 24.7142C15.4243 24.8257 15.3518 24.9118 15.2661 25.0062H15.1964C15.1884 25.025 15.1807 25.0442 15.1727 25.0637C15.1124 25.171 15.0344 25.2515 14.9504 25.3414C14.8333 25.4605 14.8333 25.4605 14.7435 25.5985H14.6738C14.6619 25.6274 14.6619 25.6274 14.6497 25.6571C14.5912 25.7602 14.5138 25.8281 14.4299 25.9121C14.3651 25.9947 14.3023 26.0786 14.24 26.163C14.2222 26.1839 14.2044 26.2044 14.186 26.2257H14.1163C14.1044 26.2536 14.1044 26.2536 14.0922 26.2821C14.0226 26.4086 13.9341 26.5431 13.8027 26.6089C13.7633 26.679 13.7633 26.679 13.733 26.7483H13.6633C13.6515 26.7772 13.6515 26.7772 13.6393 26.8069C13.5808 26.91 13.5034 26.9779 13.4194 27.0619C13.3783 27.1135 13.3376 27.1661 13.2975 27.2187C13.2059 27.3386 13.1097 27.4441 13.0013 27.5497C12.9463 27.6145 12.8923 27.68 12.8386 27.7462C12.8233 27.7619 12.808 27.7776 12.7923 27.7936H12.7226C12.7097 27.8225 12.7097 27.8225 12.6965 27.8521C12.6449 27.9476 12.5857 28.026 12.5135 28.1072H12.4438C12.432 28.1351 12.432 28.1351 12.4198 28.1636C12.3581 28.2751 12.2857 28.3612 12.2 28.4556H12.1303C12.1223 28.4807 12.1146 28.5058 12.1062 28.5316C12.0623 28.6256 12.0174 28.6789 11.9425 28.7493C11.7467 28.9399 11.5731 29.1535 11.392 29.3591C11.2923 29.4723 11.1909 29.5838 11.0899 29.6956C11.0233 29.7702 10.9589 29.8462 10.8951 29.9232C10.8658 29.9563 10.8362 29.9894 10.8059 30.0235H10.7362C10.7331 30.0444 10.7296 30.065 10.7261 30.0866C10.6958 30.18 10.6589 30.2082 10.5815 30.2674C10.4843 30.342 10.4408 30.4016 10.3878 30.5113C10.354 30.5472 10.3192 30.582 10.2833 30.6158C10.2439 30.6604 10.2045 30.7054 10.1655 30.7507C10.0927 30.835 10.0188 30.9169 9.93902 30.9946C9.86376 31.0622 9.86376 31.0622 9.83031 31.1385H9.76063C9.74774 31.1674 9.74774 31.1674 9.7345 31.197C9.65296 31.3482 9.53938 31.4768 9.4122 31.5907H9.34252C9.33903 31.6116 9.3359 31.6322 9.33241 31.6538C9.30245 31.7465 9.26656 31.7754 9.18991 31.8346C9.09723 31.9092 9.02963 31.982 8.95925 32.0785H8.88957C8.88678 32.1001 8.88399 32.1214 8.88085 32.1437C8.85472 32.2179 8.85472 32.2179 8.78295 32.2615C8.76065 32.2698 8.73835 32.2785 8.71535 32.2876V32.3921C8.67668 32.4332 8.63731 32.474 8.59584 32.5127C8.50769 32.5991 8.43034 32.6952 8.35125 32.79C8.33348 32.8081 8.31571 32.8262 8.29724 32.8451H8.22756C8.19306 32.9311 8.19306 32.9311 8.15787 33.0193C8.12686 32.936 8.12024 32.89 8.14463 32.8036C8.18505 32.7214 8.22756 32.6419 8.2725 32.5621C8.361 32.4036 8.44602 32.2437 8.53034 32.0813C8.54497 32.0531 8.55996 32.0249 8.57529 31.996C8.62197 31.9068 8.66866 31.8179 8.71535 31.7287C8.77702 31.6109 8.8387 31.4935 8.90037 31.3768C8.9143 31.3507 8.92789 31.3242 8.94218 31.297C9.02406 31.1409 9.10872 30.9866 9.19444 30.8336C9.26656 30.7033 9.33625 30.5712 9.40558 30.4399C9.42823 30.397 9.42823 30.397 9.45123 30.3535C9.54879 30.1671 9.64356 29.9807 9.73659 29.789C9.81533 29.6294 9.89791 29.4765 9.99547 29.3291C10.0652 29.2145 10.1223 29.0943 10.1815 28.9737C10.4157 28.4999 10.6693 28.0364 10.9237 27.5696C11.0362 27.3629 11.1442 27.1549 11.2484 26.9424C11.3024 26.8344 11.3606 26.7292 11.4202 26.6239C11.6372 26.2337 11.8418 25.8365 12.0473 25.4393C12.0958 25.3473 12.1442 25.255 12.193 25.1626C12.5264 24.647 12.5264 24.647 12.7226 24.0965C12.4121 24.0898 12.1094 24.1097 11.7993 24.1407C11.7522 24.1456 11.7048 24.1501 11.6575 24.1546C11.5595 24.1644 11.4613 24.1738 11.363 24.1839C11.238 24.1965 11.1125 24.2087 10.9867 24.2208L10.6244 24.2564C10.5798 24.2606 10.5352 24.2651 10.4892 24.2696C10.2916 24.2895 10.0955 24.3114 9.90035 24.3404C9.78815 24.3526 9.67596 24.3634 9.56377 24.3742C9.53206 24.3773 9.50035 24.3801 9.46795 24.3832C9.4014 24.3898 9.33485 24.3961 9.2683 24.4024C9.16656 24.4121 9.06517 24.4219 8.96378 24.4316C8.89862 24.4379 8.83382 24.4442 8.76901 24.4505C8.7387 24.4532 8.70873 24.4564 8.67737 24.4592C8.55612 24.4707 8.43801 24.4797 8.31501 24.4794C8.22686 24.4731 8.22686 24.4731 8.15718 24.5146C8.0847 24.5219 8.01223 24.5275 7.93941 24.532C7.87425 24.5362 7.87425 24.5362 7.80771 24.5407C7.71537 24.5463 7.62339 24.5522 7.53106 24.5581C7.4659 24.5623 7.4659 24.5623 7.39935 24.5668C7.35928 24.5693 7.31921 24.5717 7.2781 24.5745C7.18298 24.5783 7.18298 24.5783 7.1119 24.6191C7.06591 24.6261 7.01957 24.6313 6.97288 24.6358C6.94431 24.6386 6.91574 24.6414 6.88612 24.6442C6.85511 24.647 6.8241 24.6501 6.7924 24.6529C6.74466 24.6574 6.74466 24.6574 6.69553 24.662C6.62794 24.6686 6.56034 24.6748 6.49275 24.6811C6.38996 24.6909 6.28683 24.7006 6.1837 24.7104C6.11784 24.7167 6.05234 24.7229 5.98649 24.7292C5.95583 24.732 5.92517 24.7351 5.89346 24.7379C5.77046 24.7494 5.65095 24.7585 5.52761 24.7581C5.43981 24.7518 5.43981 24.7518 5.37012 24.7933C5.29243 24.8048 5.21473 24.8146 5.13668 24.8233C5.10044 24.8275 5.10044 24.8275 5.06386 24.8316C4.98372 24.841 4.90358 24.8498 4.82345 24.8585C4.79592 24.8616 4.76874 24.8647 4.74052 24.8679C4.15168 24.933 3.55936 24.9787 2.96704 25.0212C2.78063 25.0348 2.59422 25.0518 2.40956 25.072L2.37471 25.0024C2.41966 24.9191 2.41966 24.9191 2.48586 24.8194C2.50816 24.7853 2.53081 24.7512 2.55415 24.7156C2.57541 24.6839 2.59666 24.6518 2.61861 24.6191C2.64091 24.5836 2.64091 24.5836 2.66356 24.5473C2.69317 24.5003 2.72523 24.455 2.75798 24.41H2.82767C2.83847 24.3769 2.84927 24.3438 2.86042 24.3097C2.89735 24.201 2.89735 24.201 2.93219 24.1313H3.00188C3.01129 24.0975 3.02069 24.0637 3.0301 24.0289C3.04369 23.9937 3.05763 23.9585 3.07156 23.9222C3.10606 23.9107 3.14055 23.8993 3.17609 23.8874C3.21512 23.8055 3.21512 23.8055 3.24578 23.7132C3.26842 23.6665 3.29142 23.6198 3.31546 23.5738H3.38515C3.39316 23.5501 3.40152 23.5264 3.40988 23.502C3.46598 23.3745 3.5395 23.2658 3.61824 23.1501C3.6496 23.1034 3.68131 23.0568 3.71301 23.0101C3.72835 22.9874 3.74368 22.9644 3.7597 22.9411C3.81859 22.8529 3.87538 22.763 3.93183 22.6731C4.02799 22.5209 4.12938 22.3735 4.23391 22.2272C4.30394 22.1258 4.36736 22.0212 4.42903 21.9146C4.44087 21.8982 4.45307 21.8822 4.46526 21.8658H4.53495C4.54366 21.8421 4.55237 21.8185 4.56108 21.7941C4.613 21.6718 4.67676 21.562 4.744 21.4477H4.81369C4.82658 21.4118 4.82658 21.4118 4.83982 21.3753C4.89069 21.2561 4.9548 21.1481 5.02274 21.0383C5.04121 21.0073 5.04121 21.0073 5.06037 20.976C5.1534 20.8247 5.1534 20.8247 5.2318 20.7857C5.26351 20.731 5.29486 20.676 5.32518 20.6209C5.49207 20.3331 5.69102 20.0634 5.88266 19.7917C5.98753 19.6398 6.08858 19.4858 6.19032 19.3317C6.26662 19.2171 6.34432 19.1053 6.42864 18.9962C6.6255 18.7558 6.6255 18.7558 6.68752 18.4701C6.66313 18.3879 6.63491 18.313 6.59867 18.2353C6.47707 17.9715 6.36104 17.7091 6.26105 17.4374C6.24537 17.3945 6.24537 17.3945 6.22899 17.3506C6.15269 17.1402 6.08753 16.929 6.02865 16.713C5.983 16.5482 5.92865 16.3862 5.87011 16.2252C5.7952 16.014 5.75339 15.8036 5.71681 15.5806C5.70496 15.5123 5.69346 15.4444 5.68162 15.3761C5.67639 15.3461 5.67151 15.3165 5.66629 15.2858C5.65409 15.2109 5.65409 15.2109 5.61646 15.143C5.47674 14.1674 5.5419 13.2615 5.82552 12.3207C5.7081 12.2476 5.59033 12.1855 5.46315 12.1291C5.4297 12.1138 5.39591 12.0988 5.36141 12.0831C5.28894 12.0514 5.21612 12.0204 5.1433 11.9897C4.5231 11.719 3.96214 11.3312 3.42208 10.927C3.39142 10.904 3.36041 10.8814 3.3287 10.858C3.30013 10.8361 3.27121 10.8145 3.24125 10.7918C3.21581 10.7727 3.19003 10.7532 3.16355 10.7333C3.14543 10.7169 3.12731 10.7002 3.1085 10.6831V10.6135C3.08968 10.6061 3.07087 10.5988 3.0517 10.5912C2.93777 10.5257 2.8531 10.4351 2.76216 10.341C2.73533 10.3138 2.73533 10.3138 2.70816 10.2859C2.67262 10.25 2.63708 10.2135 2.60154 10.1772C2.5559 10.1305 2.50921 10.0845 2.46287 10.0386C2.10399 9.67271 1.81131 9.26853 1.53954 8.83649C1.52212 8.80896 1.5047 8.78144 1.48658 8.75321C1.37613 8.57517 1.28693 8.39434 1.2061 8.2027C1.08171 7.90654 0.969516 7.6731 0.72527 7.45707C0.379981 7.13617 0.0353888 6.62782 0.000546349 6.15048C-0.00746743 5.76373 0.071625 5.54073 0.307509 5.24457C0.362211 5.17698 0.362211 5.17698 0.420398 5.0829C0.518654 4.94005 0.628756 4.80869 0.739904 4.67525C0.813073 4.58779 0.813073 4.58779 0.879971 4.48396C0.918646 4.44633 0.958715 4.4101 0.999829 4.3749C1.03084 4.34808 1.03084 4.34808 1.06289 4.3202C1.12387 4.27491 1.12387 4.27491 1.2284 4.24006L1.26324 4.17038C1.29808 4.10069 1.29808 4.10069 1.40261 4.06585V3.99617C1.52316 3.89164 1.52316 3.89164 1.61166 3.89164C1.62037 3.86934 1.62908 3.84704 1.6378 3.82404C1.68135 3.75227 1.68135 3.75227 1.75312 3.73276C1.78657 3.72509 1.78657 3.72509 1.82072 3.71743C1.83814 3.66551 1.83814 3.66551 1.85556 3.6129C1.9235 3.56377 1.99354 3.51778 2.06462 3.47353C2.10434 3.44705 2.14406 3.42022 2.18343 3.39339C2.62941 3.09409 3.07191 2.82546 3.55971 2.60247C4.1137 2.34777 4.62589 2.03802 5.1311 1.69656C5.17083 1.67008 5.17083 1.67008 5.21159 1.64325C5.33702 1.56033 5.46071 1.47636 5.58092 1.38716C5.68754 1.31329 5.68754 1.31329 5.75722 1.31329L5.79207 1.20877C6.74327 0.139101 8.10909 0.876717 9.1021 1.50702L9.10176 1.50562Z" fill="black"/>
</svg>
