<svg width="36" height="37" viewBox="0 0 36 37" fill="none" xmlns="http://www.w3.org/2000/svg">
<g clip-path="url(#clip0_208_381)">
<path d="M30.1336 0.866666C30.1634 0.873777 30.1634 0.873777 30.1941 0.881111C31.1408 1.11444 31.9652 1.71889 32.483 2.54555C33.0363 3.46111 33.2341 4.51222 32.9919 5.56778C32.8681 6.05889 32.643 6.50555 32.3408 6.91C32.2999 6.96489 32.2705 7.00867 32.2488 7.074C32.2668 7.08244 32.285 7.09089 32.3034 7.09933C32.7034 7.29178 33.0745 7.55044 33.419 7.83266C33.4894 7.88978 33.5621 7.944 33.6348 7.998C33.6468 8.00867 33.6585 8.01933 33.6708 8.03022V8.07466C33.6899 8.08311 33.6899 8.08311 33.7094 8.09155C33.7665 8.12289 33.8045 8.15866 33.8503 8.20466L33.9021 8.25644C33.9285 8.28333 33.9285 8.28333 33.9554 8.31067C33.9728 8.32822 33.9903 8.34555 34.0081 8.36355C34.115 8.47111 34.2172 8.58133 34.3148 8.69689C34.3254 8.70933 34.3359 8.72178 34.3468 8.73444C35.1468 9.68333 35.6268 10.8344 35.8268 12.0456C35.8294 12.0604 35.8321 12.0753 35.835 12.0904C35.9072 12.4927 35.9034 12.8971 35.9028 13.3038C35.9028 13.4071 35.903 13.5102 35.9034 13.6127C35.9039 13.8142 35.9039 14.0149 35.9039 14.2171C35.9039 14.3813 35.9039 14.546 35.9041 14.7104C35.9041 14.758 35.9041 14.8056 35.9043 14.8529V14.9247C35.9048 15.3713 35.9048 15.8158 35.9045 16.2624C35.9043 16.6691 35.905 17.0758 35.9056 17.4824C35.9063 17.9002 35.9068 18.3202 35.9065 18.7402C35.9065 18.9758 35.9068 19.2091 35.9072 19.4447C35.9076 19.6444 35.9076 19.8447 35.9074 20.0447C35.9072 20.1464 35.9072 20.248 35.9076 20.3491C35.9121 21.3958 35.6765 22.3491 34.9232 23.1269C34.771 23.278 34.6054 23.4047 34.4276 23.5247C34.4076 23.538 34.4076 23.538 34.3874 23.5516C34.223 23.66 34.0541 23.7449 33.8719 23.8204C33.8523 23.8284 33.833 23.8364 33.8132 23.8449C33.7659 23.8644 33.7188 23.884 33.6714 23.9033V23.9769C33.6703 25.048 33.6694 26.1191 33.6679 27.1991V27.2482C33.6674 27.6016 33.6668 27.9527 33.6663 28.306L33.6656 28.8238C33.6656 28.8496 33.6656 28.8496 33.6654 28.876C33.6648 29.4338 33.6641 29.9916 33.6636 30.5493C33.6632 31.1227 33.6625 31.696 33.6616 32.2693C33.6614 32.3502 33.6612 32.4313 33.6612 32.5116C33.6612 32.5276 33.661 32.5433 33.661 32.5598C33.6605 32.8153 33.6605 33.0731 33.6603 33.3287C33.6603 33.5864 33.6599 33.8442 33.6592 34.102C33.659 34.2415 33.6588 34.382 33.6588 34.5198C33.659 34.6478 33.6588 34.7753 33.6583 34.9042C33.6581 34.9504 33.6581 34.9967 33.6583 35.0429C33.659 35.374 33.647 35.654 33.4492 35.934C33.4394 35.9482 33.4296 35.9622 33.4194 35.9769C33.2512 36.1958 32.955 36.3302 32.6861 36.3658C32.6101 36.3698 32.5352 36.3704 32.4594 36.3698C32.4308 36.37 32.4021 36.3702 32.3728 36.3704C32.2943 36.3709 32.2159 36.3707 32.1372 36.3704C32.0523 36.3702 31.9672 36.3707 31.8816 36.3709C31.7154 36.3716 31.5483 36.3716 31.3839 36.3713C31.2488 36.3711 31.1128 36.3711 30.9794 36.3713H30.921C30.8816 36.3713 30.8425 36.3716 30.8034 36.3716C30.4368 36.372 30.0701 36.3718 29.7034 36.3711C29.3901 36.3707 29.0745 36.3711 28.7612 36.3718C28.3945 36.3724 28.0301 36.3729 27.6634 36.3727C27.6243 36.3727 27.5852 36.3727 27.5463 36.3724H27.4881C27.3532 36.3724 27.2192 36.3727 27.0836 36.3731C26.9192 36.3736 26.7548 36.3736 26.5903 36.3729C26.5063 36.3724 26.4225 36.3724 26.3392 36.3729C25.5659 36.3771 25.5659 36.3771 25.2503 36.0884C25.2214 36.0622 25.2214 36.0622 25.1921 36.0356C24.9832 35.8044 24.8921 35.5844 24.8921 35.2711C24.8921 35.2513 24.8921 35.2318 24.8919 35.2116C24.8916 35.1451 24.8916 35.0789 24.8916 35.0127C24.8916 34.9649 24.8914 34.9169 24.8914 34.8691C24.891 34.7373 24.891 34.6047 24.8908 34.4736C24.8905 34.3316 24.8903 34.1891 24.8899 34.0469C24.8894 33.8002 24.889 33.5536 24.8888 33.3091C24.8883 33.0513 24.8879 32.7936 24.8874 32.5358V32.4871C24.8872 32.4056 24.8872 32.3242 24.887 32.2427C24.8859 31.6649 24.885 31.0871 24.8841 30.5116C24.8832 29.9516 24.8823 29.3893 24.8812 28.8293V28.7769C24.8808 28.6033 24.8805 28.4302 24.8803 28.2569L24.8783 27.1969V27.1476L24.873 23.8809H24.7396C24.7403 23.9078 24.7412 23.9347 24.7421 23.9624C24.7614 24.9402 24.3999 25.7869 23.7399 26.4958C23.6836 26.5522 23.6248 26.6022 23.5621 26.6513C23.5319 26.6764 23.5319 26.6764 23.501 26.7022C23.2565 26.9018 22.8254 27.2289 22.4965 27.2289V27.2811C22.4981 28.3011 22.4992 29.3211 22.4999 30.3478C22.5001 30.4702 22.5001 30.5922 22.5001 30.7144C22.5003 30.7387 22.5003 30.7631 22.5003 30.7882C22.5005 31.1838 22.501 31.5771 22.5016 31.9727C22.5023 32.3771 22.5028 32.7838 22.5028 33.1882C22.503 33.4371 22.5032 33.6882 22.5036 33.9371C22.5041 34.1087 22.5041 34.2793 22.5041 34.4527C22.5041 34.5516 22.5041 34.6504 22.5045 34.7504C22.5048 34.8409 22.5048 34.9316 22.5045 35.0216C22.5045 35.0542 22.5048 35.0869 22.5048 35.1196C22.5068 35.4462 22.4561 35.7729 22.2248 36.0218C21.8603 36.364 21.4514 36.3662 20.9781 36.364C20.893 36.3636 20.8081 36.364 20.7225 36.3644C20.5563 36.3649 20.3892 36.3647 20.2248 36.3642C20.0896 36.3638 19.9536 36.3638 19.8203 36.3638C19.801 36.3638 19.7816 36.364 19.7619 36.364H19.6443C19.2776 36.3642 18.911 36.3638 18.5443 36.3629C18.231 36.3622 17.9154 36.3622 17.6021 36.3627C17.2376 36.3631 16.871 36.3633 16.5043 36.3627H16.3872C16.3679 36.3627 16.3488 36.3627 16.329 36.3624C16.1941 36.3624 16.0601 36.3624 15.9245 36.3627C15.7601 36.3629 15.5956 36.3627 15.4312 36.362C15.3474 36.3618 15.2636 36.3616 15.1801 36.362C15.089 36.3622 14.9979 36.3618 14.9068 36.3611C14.8808 36.3613 14.8545 36.3616 14.8276 36.3618C14.5299 36.3582 14.2521 36.238 14.0299 36.0396C13.8459 35.8453 13.7388 35.584 13.7276 35.3196C13.7265 35.2911 13.7265 35.2911 13.7252 35.262C13.7134 34.9576 13.7163 34.6509 13.7165 34.3464C13.7168 34.2511 13.7168 34.1558 13.7168 34.0598V33.5664C13.717 33.3287 13.7172 33.0909 13.7172 32.8509C13.7172 32.4642 13.7174 32.0776 13.7174 31.6909L13.7181 30.5642V30.494V30.1451C13.7183 29.1829 13.7188 28.2184 13.7192 27.2562C13.6752 27.2416 13.6312 27.2269 13.5859 27.2118C13.5863 27.236 13.587 27.2602 13.5874 27.2851C13.6008 28.1851 13.3141 29.0696 12.6874 29.7296C12.6541 29.764 12.6205 29.7978 12.5865 29.8316C12.5759 29.8422 12.5652 29.8531 12.5541 29.864C12.2585 30.1596 11.8941 30.3862 11.503 30.5351C11.477 30.5449 11.451 30.5549 11.4241 30.5651C11.4043 30.5727 11.3845 30.5802 11.3641 30.588C11.3641 30.6124 11.3639 30.6371 11.3639 30.6622C11.3621 31.26 11.3601 31.8556 11.3576 32.4533C11.3565 32.7422 11.3556 33.0311 11.3548 33.32C11.3541 33.5711 11.3532 33.8222 11.3521 34.0756C11.3514 34.2089 11.351 34.3422 11.3508 34.4756C11.3503 34.6011 11.3499 34.7267 11.3492 34.8511C11.349 34.8971 11.349 34.9431 11.349 34.9891C11.3483 35.5669 11.3483 35.5669 11.2223 35.7869C11.2094 35.81 11.1963 35.8333 11.183 35.8573C11.0296 36.1018 10.7896 36.2573 10.5141 36.3329C10.2896 36.3787 10.0519 36.3638 9.8252 36.3624C9.74009 36.362 9.6552 36.3624 9.56965 36.3629C9.40343 36.3633 9.23631 36.3631 9.07187 36.3627C8.93676 36.3622 8.80076 36.3622 8.66743 36.3622C8.64809 36.3622 8.62876 36.3624 8.60898 36.3624H8.49143C8.12476 36.3627 7.75809 36.3622 7.39143 36.3613C7.07809 36.3607 6.76254 36.3607 6.4492 36.3611C6.08476 36.3616 5.71809 36.3618 5.35143 36.3611H5.23432C5.20543 36.3611 5.20543 36.3611 5.17609 36.3609C5.0412 36.3609 4.9072 36.3609 4.77165 36.3611C4.6072 36.3613 4.44276 36.3611 4.27832 36.3604C4.19454 36.3602 4.11076 36.36 4.0272 36.3604C3.93609 36.3607 3.84498 36.3602 3.75387 36.3596C3.72787 36.3598 3.70165 36.36 3.67476 36.3602C3.40365 36.3569 3.18143 36.2616 2.96809 36.1002C2.94876 36.0873 2.92965 36.0747 2.90987 36.0613C2.72832 35.8896 2.59654 35.6436 2.58765 35.3902C2.58743 35.3536 2.5872 35.3171 2.5872 35.2807C2.5872 35.2604 2.58698 35.2404 2.58698 35.2196C2.58654 35.152 2.58631 35.0844 2.58609 35.0169C2.58609 34.9684 2.58587 34.92 2.58542 34.8718L2.58409 34.4762C2.58343 34.3387 2.58298 34.2007 2.58231 34.0629C2.5812 33.8029 2.58032 33.5429 2.5792 33.2829C2.57809 32.9873 2.57698 32.6896 2.57565 32.394C2.5732 31.7851 2.57076 31.174 2.56854 30.5651C2.54765 30.5618 2.52654 30.5584 2.50498 30.5551C2.40676 30.538 2.32587 30.4982 2.23609 30.4553C2.20831 30.442 2.20831 30.442 2.17987 30.4284C1.41765 30.0551 0.804314 29.3751 0.524314 28.5684C0.508314 28.5153 0.492982 28.4622 0.478537 28.4087C0.472537 28.3864 0.472536 28.3864 0.466314 28.364C0.438536 28.2609 0.412537 28.1576 0.389648 28.0529C0.385871 28.0371 0.382093 28.0216 0.378315 28.0053C0.334759 27.8016 0.336981 27.5987 0.336092 27.3898C0.336092 27.3696 0.33587 27.3496 0.33587 27.3289C0.335203 27.222 0.33476 27.1151 0.334538 27.0089C0.334316 26.9224 0.333647 26.836 0.332758 26.7489C0.326092 26.1689 0.364537 25.62 0.478537 25.0511C0.487648 25.0033 0.496982 24.9553 0.506093 24.9076C0.602093 24.412 0.788316 23.9253 1.01276 23.4742C1.02076 23.458 1.02876 23.442 1.03698 23.4253C1.23054 23.0387 1.45698 22.6809 1.72365 22.3409C1.74809 22.3093 1.74809 22.3093 1.77298 22.2771C1.87676 22.1449 1.98809 22.0193 2.10187 21.8971C2.13654 21.8582 2.17143 21.8193 2.20609 21.7804C2.28031 21.6982 2.35387 21.6169 2.43498 21.5404H2.47943V21.496C2.5152 21.4636 2.55254 21.4329 2.59054 21.4029C2.66632 21.3424 2.74076 21.2818 2.81276 21.2169C3.16387 20.9102 3.58165 20.6702 3.99054 20.4524C3.93832 20.3584 3.8852 20.2713 3.81965 20.1858C3.25743 19.4169 3.03076 18.4302 3.17076 17.4969C3.27898 16.8502 3.53076 16.2324 3.92409 15.7058C3.94454 15.6782 3.94454 15.6782 3.9652 15.6502C4.5652 14.8724 5.44076 14.3436 6.40965 14.2102C7.42076 14.0927 8.44743 14.3169 9.25409 14.9436C9.34854 15.0189 9.43676 15.1004 9.52298 15.1836C9.55743 15.2167 9.59232 15.2491 9.6272 15.2816C10.3272 15.9416 10.7472 16.9482 10.7783 17.9038C10.7801 17.9416 10.7801 17.9416 10.7819 17.98C10.803 18.8422 10.5174 19.6689 9.98631 20.3356C9.9312 20.4013 9.9312 20.4013 9.91143 20.4724C9.93009 20.478 9.94854 20.4836 9.96787 20.4891C10.0536 20.52 10.131 20.5607 10.2101 20.6058C10.2254 20.6144 10.241 20.6233 10.2568 20.6324C10.5834 20.8204 10.8856 21.0436 11.1768 21.2813C11.225 21.3204 11.225 21.3204 11.2892 21.362V21.4064C11.3025 21.4124 11.3159 21.4184 11.3294 21.4244C11.3779 21.4507 11.4063 21.4791 11.4448 21.5176C11.4668 21.5249 11.4888 21.5322 11.5114 21.5398L11.4892 21.4731C11.487 21.4222 11.4863 21.3713 11.4863 21.3204V21.2736C11.4861 21.222 11.4861 21.1704 11.4863 21.1191C11.4863 21.0827 11.4863 21.0464 11.4861 21.0102C11.4861 20.9338 11.4861 20.8571 11.4863 20.7813C11.4865 20.6853 11.4863 20.5891 11.4863 20.4924C11.4859 20.1391 11.4865 19.788 11.4988 19.4347C11.4996 19.4107 11.5003 19.3869 11.5012 19.3622C11.5685 17.6733 12.3079 16.1622 13.4679 14.9622C13.4892 14.9398 13.4892 14.9398 13.511 14.9171C13.5248 14.9029 13.5388 14.8884 13.553 14.8738C13.5654 14.8609 13.5779 14.848 13.5908 14.8347C13.6234 14.8067 13.6234 14.8067 13.6679 14.8067V14.7622C13.7103 14.7227 13.7103 14.7227 13.7705 14.6747C13.793 14.6569 13.8154 14.6389 13.8385 14.6204C13.8565 14.6062 13.8565 14.6062 13.875 14.5918C13.9123 14.5622 13.9492 14.5324 13.9861 14.5024C14.169 14.3551 14.3594 14.2224 14.5572 14.0958C14.5699 14.0878 14.5823 14.0798 14.5954 14.0713C14.7708 13.9598 14.951 13.8589 15.1354 13.7624C15.1076 13.6853 15.0772 13.6291 15.0243 13.5667C14.6554 13.1022 14.4488 12.5622 14.3354 11.9844C14.3279 11.9484 14.3279 11.9484 14.3201 11.9118C14.2094 11.2984 14.2976 10.6318 14.5132 10.0518C14.5212 10.0298 14.5212 10.0298 14.5294 10.0073C14.8139 9.23178 15.3116 8.59844 15.9805 8.11844C15.9939 8.10889 16.007 8.09933 16.0205 8.08955C16.3628 7.84733 16.7561 7.694 17.1583 7.58511C17.1843 7.578 17.2103 7.57111 17.237 7.56378C18.1859 7.34333 19.2592 7.49889 20.0814 8.01489C20.9792 8.59044 21.6059 9.46822 21.837 10.5038C22.0461 11.5127 21.8803 12.4971 21.3303 13.3704C21.2645 13.4682 21.1939 13.5613 21.1212 13.6549C21.0794 13.7027 21.0794 13.7027 21.0836 13.7518C21.1041 13.7622 21.1245 13.7729 21.1456 13.7836C21.3472 13.8884 21.539 14.002 21.7279 14.1302C21.7425 14.1402 21.7574 14.1502 21.7725 14.1604C22.0681 14.3624 22.3459 14.5849 22.617 14.8182C22.6172 14.7991 22.6174 14.7802 22.6176 14.7607C22.6199 14.5776 22.6221 14.394 22.6245 14.2118C22.6256 14.118 22.627 14.024 22.6281 13.9296C22.6325 13.5473 22.6381 13.1651 22.6494 12.7807C22.6503 12.7524 22.651 12.7242 22.6519 12.6951C22.6821 11.7529 22.9274 10.8373 23.3496 9.984C23.3576 9.96778 23.3657 9.95155 23.3741 9.93489C23.7741 9.13933 24.3874 8.33711 25.1052 7.806C25.1379 7.78066 25.1708 7.75533 25.2034 7.73C25.5456 7.46778 25.9012 7.24778 26.2834 7.05C26.2525 6.96067 26.2105 6.89822 26.1514 6.82555C25.5781 6.08111 25.347 5.10778 25.4559 4.18111C25.5523 3.47889 25.8159 2.78555 26.2603 2.22778C26.2699 2.21578 26.2794 2.20355 26.2894 2.19133C26.5428 1.87578 26.8228 1.618 27.1494 1.38244C27.1699 1.36756 27.1903 1.35267 27.2114 1.33756C28.0425 0.773111 29.1581 0.613111 30.1225 0.848666L30.1336 0.866666ZM28.1559 3.24444C28.1383 3.25844 28.1208 3.27222 28.1028 3.28667C27.7739 3.56222 27.5494 3.99778 27.5072 4.42667C27.4716 4.93111 27.6328 5.42 27.9605 5.80444C28.2694 6.13333 28.7028 6.33778 29.1561 6.35778C29.1754 6.35889 29.195 6.36 29.215 6.36133C29.7061 6.37711 30.1661 6.19 30.5261 5.85911C30.8616 5.53244 31.0216 5.05467 31.0305 4.59467C31.0305 4.11467 30.8208 3.68355 30.4994 3.33467C30.1505 2.99911 29.6772 2.83911 29.1994 2.84355C28.8061 2.86467 28.4617 2.99756 28.1572 3.248L28.1559 3.24444ZM28.3559 8.53333C28.3368 8.53733 28.3176 8.54111 28.2979 8.54533C28.0268 8.60155 27.769 8.67733 27.5112 8.77867C27.4852 8.78867 27.4594 8.79866 27.4328 8.80889C26.9528 9.00489 26.515 9.29333 26.1328 9.64444C26.1199 9.65622 26.107 9.66822 26.0936 9.68044C25.3514 10.3738 24.9225 11.3316 24.7714 12.3249C24.7679 12.3489 24.7641 12.3727 24.7605 12.3971C24.699 12.8304 24.707 13.266 24.707 13.7016C24.707 13.7967 24.707 13.8918 24.7068 13.986C24.7068 14.172 24.7065 14.3571 24.7065 14.5438V14.9971C24.7063 15.426 24.7061 15.8549 24.7061 16.2838V16.3538V16.4238C24.7063 16.7993 24.7061 17.1727 24.7056 17.5482C24.7054 17.9349 24.7052 18.3193 24.7052 18.706C24.7052 18.9222 24.7052 19.1393 24.705 19.3549C24.7048 19.5387 24.7048 19.7238 24.7048 19.906C24.705 19.9998 24.705 20.0933 24.7048 20.186C24.7045 20.272 24.7045 20.358 24.7048 20.4438C24.7048 20.4747 24.7048 20.5056 24.7045 20.5364C24.703 20.9476 24.7643 21.3031 25.0445 21.6209C25.3001 21.8653 25.589 21.9653 25.9334 21.9964C26.1545 22.018 26.3356 22.0713 26.5201 22.1989C26.5543 22.2238 26.5543 22.2238 26.5992 22.22V22.2644L26.6479 22.3131C26.8505 22.5158 26.9345 22.7642 26.9368 23.0487V23.1029C26.9368 23.1222 26.9368 23.1416 26.937 23.1613C26.9372 23.2264 26.9372 23.2913 26.9372 23.3562C26.9372 23.4031 26.9374 23.4502 26.9374 23.4971C26.9379 23.6262 26.9379 23.7549 26.9381 23.8838C26.9383 24.0229 26.9385 24.1616 26.939 24.3016C26.9394 24.5416 26.9399 24.7838 26.9401 25.026C26.9405 25.2793 26.941 25.5327 26.9414 25.786V25.8338C26.9416 25.9138 26.9416 25.9936 26.9419 26.0738C26.943 26.6404 26.9439 27.2049 26.9448 27.7716C26.9456 28.3204 26.9465 28.8716 26.9476 29.4204V29.4718C26.9481 29.642 26.9483 29.8118 26.9485 29.9829L26.9505 31.0229V31.0713C26.9523 32.1358 26.9541 33.2002 26.9559 34.2713C27.5559 34.2718 28.1536 34.2722 28.7536 34.2724C29.0314 34.2727 29.3092 34.2727 29.5892 34.2731C29.8314 34.2733 30.0736 34.2733 30.3159 34.2733C30.4443 34.2736 30.5736 34.2736 30.7003 34.2738H31.0625C31.107 34.2738 31.1514 34.274 31.1959 34.274H31.3772C31.395 34.274 31.413 34.2742 31.4312 34.2742C31.5105 34.2813 31.5105 34.2813 31.5768 34.2491C31.579 34.1891 31.5799 34.1296 31.5796 34.0696C31.5799 34.0409 31.5799 34.0409 31.5799 34.0116C31.5801 33.9467 31.5801 33.8816 31.5799 33.8167C31.5801 33.77 31.5801 33.7233 31.5803 33.6764C31.5805 33.5475 31.5805 33.4187 31.5805 33.2898C31.5808 33.1509 31.5808 33.012 31.581 32.872C31.5814 32.632 31.5816 32.3898 31.5819 32.1498C31.5821 31.7853 31.5828 31.4209 31.5832 31.0564L31.5839 30.6187V30.5693C31.5845 30.1827 31.585 29.796 31.5854 29.4093C31.5854 29.3922 31.5854 29.3753 31.5856 29.358C31.5861 28.9624 31.5865 28.5669 31.587 28.1713V28.1198C31.587 28.0342 31.5872 27.9487 31.5872 27.862V27.8107C31.5874 27.7767 31.5874 27.7424 31.5874 27.7082C31.5881 27.1438 31.5888 26.5793 31.5896 26.0149C31.5899 25.9351 31.5899 25.8556 31.5901 25.7749V25.7273C31.5905 25.474 31.5908 25.2229 31.591 24.9696C31.591 24.7162 31.5914 24.4629 31.5919 24.2073C31.5921 24.0698 31.5923 23.9318 31.5923 23.794C31.5923 23.668 31.5925 23.5429 31.5928 23.4162C31.593 23.3707 31.593 23.3251 31.5928 23.2796C31.5928 23.2176 31.593 23.1556 31.5932 23.0938C31.5932 23.076 31.593 23.0582 31.593 23.04C31.595 22.76 31.6921 22.4933 31.8863 22.2867C32.1241 22.0742 32.393 22.0067 32.7019 21.98C33.0463 21.9484 33.3263 21.8138 33.553 21.5489C33.8241 21.1933 33.8241 20.8 33.8219 20.3689V20.2753C33.8221 20.1907 33.8219 20.1058 33.8219 20.022V19.7464C33.8221 19.5669 33.8221 19.3864 33.8221 19.2087C33.8219 19.0624 33.8219 18.9153 33.8219 18.7709V18.7076C33.8219 18.6651 33.8219 18.6229 33.8221 18.5804C33.8221 18.1827 33.8219 17.7871 33.8219 17.3893C33.8216 17.0493 33.8219 16.7093 33.8219 16.3716C33.8221 15.976 33.8221 15.5804 33.8219 15.1849V15.058V14.9951C33.8219 14.8493 33.8219 14.704 33.8221 14.5573C33.8221 14.3796 33.8221 14.2018 33.8219 14.024V13.7529C33.827 13.0507 33.827 13.0507 33.7592 12.3507C33.7554 12.3256 33.7516 12.3004 33.7477 12.2747C33.5663 11.1524 33.0099 10.0547 32.0788 9.36355C31.8076 9.17089 31.5232 8.99911 31.2188 8.86133C31.1939 8.85022 31.1939 8.85022 31.1683 8.83889C30.875 8.70978 30.5772 8.61933 30.2639 8.55C30.2432 8.54533 30.2228 8.54066 30.2014 8.53578C29.617 8.40689 28.9392 8.40111 28.3525 8.52778L28.3559 8.53333ZM16.8448 10.0667C16.6203 10.3222 16.4448 10.6178 16.3781 10.9556C16.3741 10.9762 16.3701 10.9967 16.3659 11.018C16.2985 11.4958 16.4196 11.9958 16.7059 12.3869C16.8492 12.5709 17.0192 12.7113 17.2236 12.8224C17.2414 12.8327 17.2592 12.8429 17.2774 12.8533C17.6796 13.0707 18.1841 13.1089 18.6196 12.9867C18.873 12.9062 19.1063 12.7693 19.3108 12.6C19.3248 12.5884 19.3388 12.5771 19.3532 12.5651C19.631 12.3118 19.7754 11.9384 19.8443 11.5784C19.8519 11.54 19.8519 11.54 19.8596 11.5007C19.9023 11.0207 19.7785 10.5829 19.4885 10.2007C19.4754 10.1831 19.4621 10.1656 19.4485 10.1476C19.2312 9.88089 18.9196 9.70978 18.5974 9.60533C18.5828 9.60066 18.5681 9.596 18.553 9.59111C17.9641 9.41178 17.2641 9.61933 16.8441 10.0667H16.8448ZM15.5559 15.8889C15.5314 15.9058 15.5068 15.9224 15.4823 15.9393C14.4912 16.6238 13.8868 17.6349 13.6512 18.806C13.5463 19.406 13.5501 20.0038 13.5508 20.6104C13.551 20.7331 13.5508 20.8549 13.5508 20.9793C13.5505 21.1851 13.5508 21.3904 13.551 21.5971C13.5512 21.8349 13.5512 22.0704 13.551 22.3082C13.5508 22.5129 13.5508 22.7171 13.5508 22.9216V23.286C13.5505 23.4004 13.5508 23.5149 13.551 23.6282C13.551 23.6698 13.551 23.7116 13.5508 23.7531C13.5499 24.2398 13.5843 24.6331 13.9374 25.002C14.1841 25.2376 14.4752 25.3109 14.8063 25.3464C15.1241 25.3813 15.3752 25.494 15.5841 25.742C15.7708 26.002 15.7861 26.2842 15.7856 26.5953C15.7856 26.6284 15.7859 26.6618 15.7861 26.6949C15.7863 26.7856 15.7865 26.8762 15.7865 26.966C15.7865 27.064 15.787 27.162 15.7872 27.2593C15.7876 27.4289 15.7881 27.5993 15.7883 27.7682C15.7885 28.0127 15.7892 28.2593 15.7896 28.5038C15.7908 28.9016 15.7916 29.2993 15.7923 29.6971C15.793 30.0838 15.7936 30.4704 15.7945 30.8571C15.7948 30.8809 15.7948 30.9049 15.7948 30.9293C15.795 31.0489 15.7952 31.1693 15.7956 31.2893C15.7979 32.2804 15.7999 33.2716 15.8016 34.2671C16.4016 34.2676 16.9994 34.268 17.5994 34.2682C17.8772 34.2684 18.155 34.2684 18.435 34.2689C18.6772 34.2691 18.9194 34.2691 19.1616 34.2691C19.2901 34.2693 19.4194 34.2693 19.5461 34.2695H19.9083C19.9528 34.2695 19.9972 34.2698 20.0416 34.2698H20.223C20.2408 34.2698 20.2588 34.27 20.277 34.27C20.3563 34.2771 20.3563 34.2771 20.4225 34.2449C20.4248 34.2024 20.4254 34.1598 20.4254 34.1173C20.4254 34.0893 20.4254 34.0615 20.4256 34.0327C20.4254 34.0013 20.4254 33.97 20.4254 33.9387C20.4254 33.9056 20.4256 33.8727 20.4256 33.8396V33.6233C20.4256 33.5062 20.4259 33.3878 20.4259 33.2722C20.4261 33.1018 20.4263 32.9322 20.4263 32.7611C20.4263 32.4922 20.4268 32.2233 20.4272 31.9544C20.4274 31.8624 20.4274 31.7702 20.4276 31.6789V31.6091C20.4281 31.3469 20.4285 31.0847 20.4288 30.8224C20.4288 30.7984 20.429 30.7744 20.429 30.7498C20.4294 30.3609 20.4296 29.9742 20.4299 29.5853C20.4301 29.1876 20.4305 28.7876 20.4314 28.3898C20.4319 28.1431 20.4321 27.8987 20.4319 27.652C20.4319 27.4833 20.4321 27.3142 20.4325 27.1453C20.4328 27.048 20.433 26.9509 20.4328 26.8542C20.4325 26.7651 20.4328 26.676 20.4332 26.5876C20.4334 26.5553 20.4332 26.5233 20.433 26.4911C20.4312 26.1622 20.5121 25.8711 20.7419 25.6267C20.9585 25.4258 21.2085 25.36 21.4996 25.3356C21.8774 25.3022 22.173 25.154 22.4241 24.8622C22.5836 24.6416 22.653 24.3978 22.653 24.1289C22.653 24.1091 22.6532 24.0891 22.6532 24.0684C22.6534 24.0022 22.6534 23.9358 22.6532 23.8693C22.6534 23.8216 22.6534 23.7738 22.6536 23.7262C22.6539 23.5964 22.6539 23.4662 22.6539 23.3373C22.6539 23.2289 22.6541 23.1202 22.6541 23.0129C22.6543 22.7551 22.6543 22.4996 22.6543 22.244C22.6541 21.9796 22.6543 21.7173 22.6548 21.4529C22.6552 21.2262 22.6554 20.9996 22.6552 20.7729C22.6552 20.6376 22.6552 20.5018 22.6556 20.3684C22.6559 20.2409 22.6559 20.1129 22.6556 19.9862C22.6554 19.9398 22.6556 19.8936 22.6556 19.8471C22.6574 19.4227 22.6245 18.9982 22.5181 18.5849C22.5123 18.562 22.5065 18.5391 22.5005 18.5156C22.3063 17.7578 21.9539 17.0933 21.425 16.5156C21.3963 16.4842 21.3963 16.4842 21.3672 16.452C21.1005 16.1742 20.7805 15.952 20.4472 15.7609C20.4325 15.7522 20.4177 15.7438 20.4025 15.7349C19.887 15.4393 19.3048 15.2571 18.7136 15.1838C18.6979 15.1818 18.6823 15.1796 18.6661 15.1776C17.615 15.0542 16.4439 15.2773 15.555 15.8953L15.5559 15.8889ZM5.80031 16.6667C5.78187 16.6809 5.76365 16.6949 5.74476 16.7096C5.44254 16.9584 5.23809 17.394 5.20031 17.7784C5.16209 18.3051 5.30476 18.7962 5.64698 19.2029C5.94254 19.5162 6.37809 19.7184 6.80698 19.7407C7.31809 19.7562 7.77143 19.6416 8.15587 19.2896C8.17165 19.2756 8.1872 19.2618 8.20343 19.2476C8.53232 18.9387 8.6812 18.4876 8.71676 18.0476C8.72809 17.6009 8.57276 17.1498 8.26787 16.8231C8.2532 16.8064 8.23832 16.7896 8.2232 16.7722C8.02409 16.5578 7.76543 16.4056 7.48987 16.3122C7.4692 16.3051 7.44832 16.298 7.42698 16.2909C6.85809 16.1291 6.24254 16.2847 5.80031 16.6687V16.6667ZM4.28254 22.6889C4.24609 22.7164 4.2092 22.7436 4.17209 22.7704C3.82543 23.026 3.51654 23.3438 3.26765 23.6949C3.25409 23.7138 3.25409 23.7138 3.24009 23.7329C2.57565 24.6573 2.39565 25.6996 2.39565 26.8218C2.39565 26.9089 2.3952 26.996 2.39498 27.084C2.39476 27.1402 2.39476 27.1964 2.39476 27.2527C2.39454 27.2782 2.39454 27.3038 2.39431 27.33C2.39543 27.7478 2.48498 28.0633 2.77209 28.37C3.00987 28.5989 3.32098 28.6856 3.6432 28.7122C3.93209 28.7382 4.17654 28.8238 4.37654 29.0456C4.63432 29.39 4.62765 29.7678 4.62765 30.1789L4.62831 30.3136C4.62898 30.4347 4.6292 30.5558 4.62943 30.6758C4.62987 30.8027 4.63054 30.9291 4.63098 31.0558C4.63209 31.2958 4.63298 31.5358 4.63365 31.7758C4.63454 32.0491 4.63565 32.3224 4.63676 32.5958C4.63898 33.158 4.64098 33.718 4.64276 34.2802C5.24276 34.2807 5.84054 34.2811 6.44054 34.2813C6.71832 34.2816 6.99609 34.2816 7.27609 34.282C7.51832 34.2822 7.76054 34.2822 8.00276 34.2822C8.1312 34.2824 8.26054 34.2824 8.3872 34.2827H8.74943C8.79387 34.2827 8.83832 34.2829 8.88276 34.2829H9.06409C9.08187 34.2829 9.09987 34.2831 9.11809 34.2831C9.19743 34.2902 9.19743 34.2902 9.26365 34.258C9.26587 34.1982 9.26676 34.1391 9.26654 34.0793C9.26654 34.0602 9.26676 34.0413 9.26676 34.0218V33.8296C9.26676 33.784 9.26698 33.7382 9.26698 33.6924C9.2672 33.5938 9.26743 33.4949 9.26743 33.3969C9.26743 33.2404 9.26787 33.0836 9.26831 32.928C9.26854 32.8744 9.26854 32.8209 9.26876 32.7676C9.26876 32.7407 9.26898 32.7138 9.26898 32.6862C9.26987 32.3218 9.27054 31.9573 9.27098 31.5929C9.27098 31.3484 9.27165 31.1018 9.27254 30.8573C9.27298 30.7276 9.2732 30.5973 9.27298 30.4684C9.27298 30.346 9.2732 30.224 9.27387 30.1018C9.27409 30.0571 9.27409 30.0124 9.27387 29.9676C9.27276 29.6342 9.2952 29.3564 9.5072 29.0809C9.53254 29.0458 9.53254 29.0458 9.55854 29.01C9.77831 28.7811 10.0474 28.7256 10.3541 28.6967C10.6763 28.6662 10.9785 28.5509 11.1963 28.3033C11.417 28.0122 11.4985 27.7367 11.503 27.3722C11.5036 27.3418 11.5043 27.3113 11.505 27.2807C11.5068 27.1922 11.5076 27.1038 11.5085 27.0162C11.509 26.9813 11.509 26.9813 11.5096 26.9458C11.5114 26.8062 11.511 26.6658 11.5085 26.528C11.5081 26.4956 11.5081 26.4956 11.5076 26.4627C11.4876 25.1804 11.0276 24.0849 10.1521 23.1516C10.1383 23.1369 10.1248 23.1222 10.1105 23.1071C9.34387 22.3138 8.18387 21.8538 7.08831 21.8316C6.07276 21.8162 5.08831 22.0827 4.26609 22.7027L4.28254 22.6889Z" fill="#000100"/>
</g>
<defs>
<clipPath id="clip0_208_381">
<rect width="35.5556" height="35.5556" fill="white" transform="translate(0.333008 0.777771)"/>
</clipPath>
</defs>
</svg>
