<svg width="41" height="41" viewBox="0 0 41 41" fill="none" xmlns="http://www.w3.org/2000/svg">
<path d="M33.8897 7.55555H7.22298C5.38965 7.55555 3.90632 9.05555 3.90632 10.8889L3.88965 30.8889C3.88965 32.7222 5.38965 34.2222 7.22298 34.2222H33.8897C35.723 34.2222 37.223 32.7222 37.223 30.8889V10.8889C37.223 9.05555 35.723 7.55555 33.8897 7.55555ZM33.223 14.6389L21.4396 22.0056C20.9063 22.3389 20.2063 22.3389 19.673 22.0056L7.88965 14.6389C7.47298 14.3722 7.22298 13.9222 7.22298 13.4389C7.22298 12.3222 8.43965 11.6556 9.38965 12.2389L20.5563 19.2222L31.723 12.2389C32.673 11.6556 33.8897 12.3222 33.8897 13.4389C33.8897 13.9222 33.6397 14.3722 33.223 14.6389Z" fill="black"/>
</svg>
