<svg width="41" height="41" viewBox="0 0 41 41" fill="none" xmlns="http://www.w3.org/2000/svg">
<path d="M14.0802 13.3472C14.1302 13.3472 14.1804 13.347 14.2304 13.347C14.3657 13.3467 14.5004 13.3467 14.6354 13.3467C14.7202 13.3467 14.8049 13.3467 14.8904 13.3465C15.1879 13.3462 15.4829 13.3462 15.7804 13.3462C16.0554 13.3462 16.3304 13.346 16.6054 13.3455C16.8427 13.3452 17.0804 13.3452 17.3179 13.3452C17.4589 13.3452 17.6004 13.345 17.7404 13.3447C17.8734 13.3445 18.0054 13.3445 18.1404 13.3447C18.1887 13.3447 18.2369 13.3447 18.2852 13.3445C19.3402 13.3415 20.3627 13.5282 21.2352 14.177C21.2609 14.1957 21.2869 14.2147 21.3134 14.234C22.2384 14.924 22.8434 15.9615 23.0109 17.109C23.0704 17.584 23.0647 18.0665 23.0642 18.5465V18.749C23.0644 18.9117 23.0644 19.074 23.0644 19.2365C23.0642 19.3692 23.0642 19.5015 23.0642 19.634V19.6917C23.0642 19.7302 23.0644 19.769 23.0644 19.8075C23.0644 20.1675 23.0644 20.5275 23.0642 20.89V21.815C23.0644 22.175 23.0644 22.535 23.0642 22.8925V23.008V23.0652C23.0642 23.1972 23.0642 23.3302 23.0644 23.4627C23.0644 23.6242 23.0644 23.7852 23.0642 23.9477V24.194C23.0644 24.489 23.0637 24.784 23.0507 25.079C23.0499 25.0997 23.0492 25.1205 23.0482 25.1417C23.0262 25.5767 22.8484 26.0042 22.5357 26.3117C22.1557 26.6367 21.6882 26.8142 21.1882 26.8167C21.1639 26.8175 21.1639 26.8175 21.1394 26.8182C21.0074 26.8192 20.8819 26.7975 20.7544 26.7722C20.7359 26.7687 20.7172 26.7652 20.6982 26.7617C20.6529 26.753 20.6074 26.7442 20.5622 26.7355V26.7842C20.5627 27.7392 20.5632 28.6967 20.5634 29.6592C20.5634 29.774 20.5634 29.889 20.5637 30.0042V30.0737C20.5637 30.4437 20.5639 30.8137 20.5642 31.1837C20.5644 31.5637 20.5644 31.9437 20.5644 32.3237C20.5647 32.5577 20.5647 32.7912 20.5649 33.0262V33.5087C20.5649 33.6012 20.5649 33.694 20.5652 33.7862C20.5657 34.1037 20.5659 34.4212 20.5522 34.7412C20.5514 34.7612 20.5504 34.7815 20.5497 34.8022C20.5187 35.4022 20.2647 35.9972 19.8222 36.4097C19.2422 36.8922 18.5022 37.1097 17.7547 37.0397C17.2072 36.978 16.6847 36.7722 16.3022 36.3697C16.2432 36.313 16.2432 36.313 16.1724 36.32C16.1089 36.3467 16.0822 36.3692 16.0384 36.4215C15.6459 36.839 14.9809 37.024 14.4209 37.0515C13.7384 37.0707 13.0684 36.8692 12.5609 36.399C12.2534 36.1065 12.0409 35.764 11.9184 35.3565C11.9134 35.3405 11.9087 35.3245 11.9037 35.308C11.8242 35.0255 11.8062 34.738 11.8077 34.4455C11.8077 34.4117 11.8077 34.3782 11.8074 34.3447C11.8074 34.2535 11.8077 34.162 11.8079 34.0697C11.8082 33.971 11.8079 33.8722 11.8079 33.7722C11.8079 33.6015 11.8082 33.4297 11.8084 33.2597C11.8089 33.0125 11.8089 32.7647 11.8089 32.5197C11.8092 32.1197 11.8094 31.7172 11.8099 31.3172C11.8104 30.9272 11.8107 30.5397 11.8109 30.1497V30.0767C11.8109 29.9562 11.8112 29.8357 11.8112 29.7142C11.8117 28.7142 11.8127 27.7167 11.8137 26.7142C11.7964 26.7192 11.7794 26.7245 11.7617 26.73C11.7279 26.7402 11.7279 26.7402 11.6934 26.7505C11.6712 26.7572 11.6489 26.764 11.6259 26.771C11.1609 26.9062 10.6409 26.7977 10.2134 26.5892C10.1162 26.5285 10.0272 26.4615 9.93843 26.3892C9.92243 26.377 9.90618 26.365 9.88968 26.3527C9.54968 26.0877 9.37968 25.6477 9.31968 25.2327C9.29343 24.9835 9.30193 24.7302 9.30268 24.4802C9.30268 24.388 9.30243 24.2955 9.30243 24.2027C9.30193 24.0222 9.30218 23.8427 9.30218 23.6602C9.30243 23.5132 9.30243 23.3652 9.30243 23.2202V23.1567C9.30243 23.114 9.30243 23.0712 9.30218 23.0287C9.30218 22.6287 9.30243 22.2287 9.30268 21.8312C9.30318 21.4887 9.30293 21.1487 9.30268 20.8062C9.30218 20.4087 9.30218 20.0112 9.30243 19.6137V19.486V19.4225C9.30243 19.276 9.30243 19.13 9.30218 18.9825C9.30193 18.8037 9.30218 18.625 9.30243 18.445C9.30268 18.354 9.30268 18.263 9.30243 18.1725C9.29918 16.89 9.59993 15.8025 10.4374 14.8225C10.4527 14.8042 10.4677 14.786 10.4834 14.767C10.5839 14.6482 10.6924 14.5465 10.8134 14.447C10.8264 14.436 10.8394 14.425 10.8529 14.4137C11.0772 14.2252 11.3054 14.0612 11.5629 13.9212C11.5864 13.9082 11.5864 13.9082 11.6107 13.895C12.3957 13.47 13.2157 13.3675 14.0957 13.3675L14.0802 13.3472ZM13.5027 14.5872C13.4817 14.5882 13.4607 14.589 13.4389 14.59C12.6164 14.633 11.8739 15.045 11.3139 15.635C10.8114 16.2125 10.5364 16.935 10.5389 17.6975C10.5387 17.728 10.5384 17.7587 10.5384 17.7902C10.5379 17.8742 10.5377 17.9582 10.5374 18.0427C10.5374 18.1337 10.5369 18.2247 10.5364 18.3152C10.5357 18.4932 10.5349 18.6702 10.5347 18.8502L10.5332 19.2852C10.5332 19.306 10.5329 19.3265 10.5329 19.3477C10.5327 19.3897 10.5327 19.4317 10.5324 19.4737C10.5309 19.8662 10.5299 20.2587 10.5287 20.6537C10.5279 20.9912 10.5267 21.3262 10.5254 21.6637C10.5237 22.0562 10.5224 22.4462 10.5212 22.8387C10.5209 22.8807 10.5209 22.9225 10.5207 22.9642V23.0267C10.5202 23.171 10.5197 23.3167 10.5189 23.4592C10.5182 23.6355 10.5177 23.8117 10.5174 23.9892C10.5172 24.079 10.5169 24.1687 10.5164 24.2592C10.4784 24.8592 10.4784 24.8592 10.6712 25.4042C10.8387 25.5492 11.0412 25.592 11.2587 25.587C11.4289 25.5657 11.5787 25.477 11.6962 25.3542C11.8027 25.182 11.8104 25.0192 11.8084 24.8192C11.8087 24.7885 11.8087 24.758 11.8089 24.7267C11.8092 24.6425 11.8089 24.5582 11.8084 24.4742C11.8082 24.3832 11.8084 24.2922 11.8084 24.2017C11.8087 24.0442 11.8087 23.8867 11.8084 23.7292C11.8079 23.501 11.8079 23.2742 11.8084 23.0442C11.8089 22.6742 11.8089 22.3042 11.8089 21.9317V21.8647C11.8089 21.685 11.8087 21.5047 11.8087 21.3247C11.8087 21.1677 11.8084 21.0097 11.8084 20.8547V20.7877C11.8082 20.4177 11.8087 20.0502 11.8092 19.6802C11.8094 19.4527 11.8094 19.2252 11.8089 18.9977C11.8087 18.842 11.8087 18.6852 11.8089 18.5302C11.8092 18.4405 11.8092 18.3505 11.8087 18.2602C11.8082 18.1627 11.8084 18.065 11.8089 17.9677C11.8087 17.9395 11.8084 17.9115 11.8082 17.8825C11.8099 17.6615 11.8637 17.47 11.9712 17.2775C12.0134 17.2507 12.0134 17.2507 12.0712 17.2275C12.1107 17.208 12.1107 17.208 12.1509 17.1882C12.3244 17.1162 12.4834 17.113 12.6609 17.1737C12.7987 17.2385 12.8937 17.3295 12.9709 17.4612C13.0292 17.6637 13.0259 17.8737 13.0254 18.0837V18.1665C13.0254 18.2577 13.0254 18.349 13.0252 18.4415V18.64V19.0725C13.0249 19.2865 13.0249 19.5 13.0247 19.715C13.0247 20.075 13.0244 20.435 13.0244 20.795C13.0239 21.2875 13.0239 21.78 13.0237 22.2725V22.9625C13.0237 22.9855 13.0237 23.0085 13.0234 23.0322C13.0234 23.5797 13.0232 24.1272 13.0229 24.6747V24.7472C13.0227 25.1597 13.0224 25.5722 13.0224 25.9847C13.0222 26.3222 13.0222 26.6622 13.0219 26.9997V27.072C13.0217 27.617 13.0214 28.162 13.0212 28.707V28.7767V29.4667C13.0209 29.9592 13.0209 30.4492 13.0204 30.9417C13.0202 31.3017 13.0202 31.6592 13.0202 32.0192C13.0199 32.2132 13.0199 32.4067 13.0197 32.6017C13.0194 33.0542 13.0197 33.5067 13.0224 33.9592C13.0227 33.9847 13.0227 34.0102 13.0229 34.0367C13.0237 34.1722 13.0252 34.3067 13.0279 34.4442C13.0284 34.482 13.0289 34.52 13.0294 34.5577C13.0329 34.9027 13.1034 35.1977 13.3419 35.4577C13.6069 35.7077 13.9519 35.8052 14.3094 35.8202C14.5994 35.8105 14.8844 35.7202 15.1244 35.5602C15.1427 35.5482 15.1607 35.5362 15.1794 35.524C15.3967 35.3592 15.5119 35.074 15.5494 34.809C15.5567 34.678 15.5562 34.5465 15.5557 34.4165C15.5557 34.3765 15.5559 34.3365 15.5559 34.2967C15.5562 34.1872 15.5559 34.078 15.5559 33.9692C15.5557 33.8512 15.5559 33.7332 15.5562 33.6142C15.5564 33.41 15.5564 33.2042 15.5562 33.0017C15.5562 32.7067 15.5564 32.4092 15.5569 32.1142C15.5577 31.6342 15.5582 31.1542 15.5584 30.6742V30.5872C15.5587 30.1797 15.5589 29.7722 15.5589 29.3622V29.2752V29.1882C15.5592 28.7107 15.5594 28.2307 15.5604 27.7532C15.5609 27.4582 15.5609 27.1632 15.5607 26.8682C15.5604 26.666 15.5607 26.4632 15.5612 26.2607C15.5614 26.144 15.5617 26.0275 15.5612 25.9107C15.5609 25.804 15.5612 25.697 15.5617 25.5907C15.5617 25.5522 15.5617 25.5135 15.5614 25.475C15.5602 25.26 15.5737 25.08 15.6744 24.885C15.6829 24.8667 15.6912 24.8485 15.6999 24.83C15.7324 24.7702 15.7622 24.7607 15.8244 24.735C15.8462 24.722 15.8677 24.709 15.8902 24.6957C16.0679 24.62 16.2352 24.62 16.4152 24.6827C16.5579 24.7492 16.6509 24.8465 16.7227 24.9852C16.7762 25.227 16.7799 25.4752 16.7784 25.7227C16.7784 25.7575 16.7787 25.7922 16.7787 25.827C16.7787 25.9215 16.7784 26.0157 16.7782 26.1095C16.7779 26.2117 16.7779 26.314 16.7779 26.417C16.7779 26.594 16.7777 26.772 16.7772 26.947C16.7767 27.2045 16.7764 27.462 16.7764 27.7195C16.7762 28.1395 16.7757 28.557 16.7752 28.9745C16.7749 28.9995 16.7749 29.0245 16.7749 29.0502V29.1262C16.7747 29.177 16.7747 29.2275 16.7747 29.2782C16.7747 29.3032 16.7747 29.3285 16.7744 29.3542C16.7742 29.6317 16.7739 29.9092 16.7734 30.1867V30.262C16.7729 30.6795 16.7727 31.0945 16.7724 31.512C16.7722 31.7452 16.7719 31.977 16.7717 32.212C16.7677 33.3195 16.7677 33.3195 16.7779 34.427C16.7787 34.4672 16.7792 34.5075 16.7794 34.548C16.7829 34.8955 16.8507 35.1955 17.0919 35.458C17.3569 35.708 17.7019 35.8055 18.0594 35.8205C18.3494 35.8107 18.6344 35.7205 18.8744 35.5605C18.9017 35.5425 18.9017 35.5425 18.9294 35.5242C19.1489 35.358 19.2569 35.0742 19.2994 34.8092C19.3062 34.7107 19.3062 34.6125 19.3057 34.5142C19.3057 34.485 19.3059 34.4557 19.3059 34.4257C19.3059 34.345 19.3059 34.2642 19.3057 34.1832C19.3057 34.0952 19.3059 34.0075 19.3059 33.9182C19.3062 33.764 19.3062 33.6107 19.3059 33.4557C19.3057 33.2265 19.3059 32.9982 19.3059 32.7682C19.3064 32.3832 19.3064 31.9982 19.3062 31.6107C19.3062 31.0607 19.3064 30.5082 19.3069 29.9582C19.3072 29.7372 19.3072 29.5157 19.3074 29.2957V29.2212C19.3079 28.6362 19.3082 28.0512 19.3084 27.4662V27.3887C19.3087 26.7912 19.3089 26.1937 19.3089 25.5987V25.521V25.1335V25.056V24.9012C19.3089 24.0487 19.3094 23.1937 19.3102 22.3512C19.3104 22.2307 19.3104 22.1102 19.3107 21.9887V21.917C19.3109 21.5345 19.3109 21.1545 19.3107 20.772C19.3104 20.3895 19.3107 20.0045 19.3112 19.622C19.3114 19.394 19.3114 19.167 19.3112 18.937C19.3109 18.785 19.3112 18.632 19.3114 18.4795C19.3117 18.3927 19.3117 18.306 19.3114 18.2195C19.3112 18.126 19.3114 18.0325 19.3119 17.9395C19.3117 17.9127 19.3114 17.8857 19.3112 17.8582C19.3129 17.683 19.3477 17.5482 19.4244 17.3907C19.4329 17.3725 19.4412 17.3542 19.4499 17.3352C19.4824 17.2762 19.5124 17.2657 19.5744 17.2407C19.6047 17.227 19.6047 17.227 19.6357 17.213C19.8212 17.138 19.9632 17.1205 20.1532 17.1837C20.3042 17.2497 20.4024 17.3572 20.4807 17.4987C20.5307 17.689 20.5264 17.8862 20.5257 18.0812V18.1682C20.5257 18.2642 20.5257 18.3602 20.5254 18.4557C20.5254 18.5247 20.5252 18.5935 20.5252 18.6625C20.5252 18.811 20.5249 18.96 20.5249 19.1075C20.5244 19.3225 20.5244 19.5375 20.5242 19.7525C20.5242 20.1025 20.5237 20.45 20.5234 20.8V20.8632C20.5232 21.0325 20.5229 21.2032 20.5229 21.3707C20.5227 21.5185 20.5227 21.6657 20.5224 21.8132V21.8762C20.5219 22.2237 20.5217 22.5712 20.5217 22.9187C20.5214 23.133 20.5212 23.3462 20.5209 23.5612C20.5207 23.708 20.5207 23.8562 20.5207 24.0012C20.5204 24.0857 20.5204 24.1702 20.5202 24.2562V24.5312C20.5199 24.5575 20.5199 24.5837 20.5199 24.611C20.5097 25.0335 20.5097 25.0335 20.6729 25.411C20.8279 25.5512 21.0329 25.6 21.2379 25.5935C21.4399 25.5682 21.5854 25.4972 21.7154 25.341C21.8149 25.178 21.8059 25.0135 21.8052 24.8285C21.8054 24.7972 21.8054 24.7662 21.8054 24.734C21.8057 24.6475 21.8057 24.561 21.8054 24.474C21.8054 24.3807 21.8054 24.2872 21.8057 24.194C21.8059 24.011 21.8059 23.829 21.8057 23.644V23.199V23.1347V23.0057C21.8059 22.6032 21.8057 22.1982 21.8054 21.7957C21.8052 21.4507 21.8052 21.1032 21.8054 20.7582C21.8057 20.3557 21.8059 19.9532 21.8057 19.5532V19.4245V19.3605V18.9155C21.8059 18.7342 21.8059 18.553 21.8057 18.373C21.8054 18.2807 21.8054 18.1885 21.8057 18.0955C21.8057 17.995 21.8054 17.8947 21.8052 17.7955C21.8054 17.7667 21.8054 17.738 21.8057 17.7085C21.8022 16.9835 21.5482 16.266 21.0732 15.7135C21.0544 15.6907 21.0354 15.668 21.0162 15.6445C20.5137 15.0645 19.7662 14.672 18.9987 14.6145C18.8494 14.6072 18.7012 14.6037 18.5512 14.6005C18.5162 14.5997 18.5162 14.5997 18.4802 14.599C17.6602 14.5812 16.8402 14.5857 16.0202 14.5862C15.8349 14.5862 15.6502 14.5862 15.4652 14.586H14.9202H14.5977C14.0527 14.585 14.0527 14.585 13.5052 14.6002L13.5027 14.5872Z" fill="#000100"/>
<path d="M26.2302 3.34722C26.2514 3.34722 26.2727 3.34697 26.2944 3.34697C26.3654 3.34672 26.4362 3.34697 26.5069 3.34722C26.5579 3.34722 26.6089 3.34722 26.6597 3.34697C26.7979 3.34672 26.9347 3.34697 27.0747 3.34722C27.2192 3.34772 27.3647 3.34747 27.5097 3.34747C27.7527 3.34747 27.9947 3.34772 28.2397 3.34822C28.5197 3.34872 28.7997 3.34872 29.0822 3.34872C29.3522 3.34847 29.6222 3.34872 29.8922 3.34897H30.2372C30.3727 3.34897 30.5072 3.34922 30.6422 3.34947C30.6919 3.34972 30.7414 3.34972 30.7912 3.34972C30.8589 3.34947 30.9269 3.34972 30.9947 3.34997C31.0142 3.34997 31.0337 3.34997 31.0537 3.34972C31.3162 3.35172 31.4962 3.40947 31.6812 3.59472C31.7862 3.72047 31.8132 3.86972 31.8177 4.03222C31.7882 4.21472 31.6887 4.39222 31.5427 4.50722C31.3554 4.59722 31.1602 4.59622 30.9552 4.59947C30.9159 4.60022 30.8764 4.60097 30.8372 4.60197C30.1397 4.61522 29.4422 4.61022 28.7447 4.60922C28.5369 4.60872 28.3297 4.60872 28.1197 4.60847C27.6947 4.60822 27.2672 4.60797 26.8422 4.60722L26.8172 6.08222C26.9614 6.08147 27.1047 6.08047 27.2547 6.07972C27.3459 6.07922 27.4374 6.07897 27.5297 6.07872C27.6749 6.07822 27.8197 6.07772 27.9647 6.07672C28.0817 6.07597 28.1987 6.07547 28.3147 6.07522C28.3592 6.07497 28.4039 6.07472 28.4484 6.07447C28.5112 6.07397 28.5737 6.07372 28.6362 6.07372C28.6637 6.07347 28.6637 6.07347 28.6917 6.07297C28.8764 6.07422 29.0167 6.13922 29.1517 6.26222C29.2589 6.38497 29.3102 6.54722 29.3159 6.70722C29.2982 6.91547 29.2024 7.05222 29.0509 7.19222C28.8874 7.30122 28.7159 7.31172 28.5234 7.31072H28.4674C28.4064 7.31072 28.3457 7.31047 28.2847 7.31022H28.1577L27.8227 7.30947C27.6892 7.30922 27.5552 7.30922 27.4227 7.30897C27.2199 7.30872 27.0177 7.30822 26.8152 7.30772V8.78272C27.0287 8.78148 27.0287 8.78148 27.2477 8.78023C27.3379 8.77973 27.4282 8.77947 27.5177 8.77922C27.6609 8.77872 27.8052 8.77822 27.9477 8.77723C28.0634 8.77647 28.1789 8.77597 28.2952 8.77572C28.3392 8.77548 28.3834 8.77523 28.4274 8.77497C28.4892 8.77448 28.5509 8.77422 28.6127 8.77422C28.6309 8.77397 28.6489 8.77373 28.6674 8.77348C28.8512 8.77472 28.9974 8.84323 29.1424 8.95773C29.2607 9.09547 29.3114 9.25273 29.3174 9.43272C29.2947 9.60773 29.2192 9.76022 29.0924 9.88273C28.9292 9.99323 28.7674 10.0117 28.5749 10.0107H28.5174C28.4547 10.0107 28.3922 10.0105 28.3294 10.0102H28.1989C28.0844 10.01 27.9702 10.0097 27.8564 10.0095C27.7397 10.0092 27.6229 10.0092 27.5064 10.009C27.2774 10.0087 27.0489 10.0085 26.8189 10.0077C26.8189 10.022 26.8192 10.036 26.8192 10.0505C26.8197 10.198 26.8202 10.3455 26.8204 10.493C26.8204 10.5477 26.8207 10.6027 26.8209 10.6577C26.8212 10.7372 26.8214 10.8165 26.8214 10.896C26.8217 10.9202 26.8217 10.9442 26.8219 10.9692C26.8219 11.094 26.8172 11.217 26.8064 11.3417C26.8039 11.3682 26.8017 11.3947 26.7994 11.4222C26.7977 11.4422 26.7959 11.4622 26.7939 11.4827H26.8619C27.4094 11.4815 27.9544 11.4807 28.5019 11.4802C28.7669 11.48 29.0319 11.4797 29.2944 11.479C29.5249 11.4785 29.7544 11.4782 29.9869 11.4782C30.1089 11.478 30.2309 11.478 30.3519 11.4775C30.4669 11.4772 30.5819 11.4772 30.6969 11.4772C30.7392 11.4772 30.7812 11.477 30.8232 11.477C31.4257 11.4742 31.4257 11.4742 31.6432 11.6827C31.7762 11.8152 31.8129 11.9727 31.8182 12.1577C31.7887 12.3402 31.6892 12.5177 31.5432 12.6327C31.3559 12.7227 31.1607 12.7217 30.9557 12.725C30.9164 12.7257 30.8769 12.7265 30.8377 12.7275C30.1402 12.7407 29.4427 12.7357 28.7452 12.7347C28.5374 12.7342 28.3302 12.7342 28.1202 12.734C27.6952 12.7337 27.2677 12.7335 26.8427 12.7327L26.8177 14.2077C26.9619 14.207 27.1052 14.206 27.2552 14.2052C27.3464 14.2047 27.4379 14.2045 27.5302 14.2042C27.6754 14.2037 27.8202 14.2032 27.9652 14.2022C28.0822 14.2015 28.1992 14.201 28.3152 14.2007C28.3597 14.2005 28.4044 14.2002 28.4489 14.2C28.5117 14.1995 28.5742 14.1992 28.6367 14.1992C28.6642 14.199 28.6642 14.199 28.6922 14.1985C28.8769 14.1997 29.0172 14.2647 29.1522 14.3877C29.2594 14.5105 29.3107 14.6727 29.3164 14.8327C29.2987 15.041 29.2029 15.1777 29.0514 15.3177C28.8879 15.4267 28.7164 15.4372 28.5239 15.4362H28.4679C28.4069 15.4362 28.3462 15.436 28.2852 15.4357H28.1582L27.8232 15.435C27.6897 15.4347 27.5557 15.4347 27.4232 15.4345C27.2204 15.4342 27.0182 15.4337 26.8157 15.4332V16.9082C27.0292 16.907 27.0292 16.907 27.2482 16.9057C27.3384 16.9052 27.4287 16.905 27.5182 16.9047C27.6614 16.9042 27.8057 16.9037 27.9482 16.9027C28.0639 16.902 28.1794 16.9015 28.2957 16.9012C28.3397 16.901 28.3839 16.9007 28.4279 16.9005C28.4897 16.9 28.5514 16.8997 28.6132 16.8997C28.6404 16.8995 28.6404 16.8995 28.6679 16.899C28.8517 16.9002 28.9979 16.9687 29.1429 17.0832C29.2612 17.221 29.3119 17.3782 29.3179 17.5582C29.2952 17.7332 29.2197 17.8857 29.0929 18.0082C28.9297 18.1187 28.7679 18.1372 28.5754 18.1362H28.5179C28.4552 18.1362 28.3927 18.136 28.3299 18.1357H28.1994C28.0849 18.1355 27.9707 18.1352 27.8569 18.135C27.7402 18.1347 27.6234 18.1347 27.5069 18.1345C27.2779 18.1342 27.0494 18.134 26.8194 18.1332C26.8194 18.1475 26.8197 18.1615 26.8197 18.176C26.8202 18.3235 26.8207 18.471 26.8209 18.6185C26.8209 18.6732 26.8212 18.7282 26.8214 18.7832C26.8217 18.8627 26.8219 18.942 26.8219 19.0215C26.8222 19.0457 26.8222 19.0697 26.8224 19.0947C26.8224 19.2195 26.8177 19.3425 26.8069 19.4672C26.8044 19.4937 26.8022 19.5202 26.7999 19.5477C26.7972 19.5777 26.7972 19.5777 26.7944 19.6082H26.8624C27.4099 19.607 27.9549 19.6062 28.5024 19.6057C28.7674 19.6055 29.0324 19.6052 29.2949 19.6045C29.5254 19.604 29.7549 19.6037 29.9874 19.6037C30.1094 19.6035 30.2314 19.6035 30.3524 19.603C30.4674 19.6027 30.5824 19.6027 30.6974 19.6027C30.7397 19.6027 30.7817 19.6025 30.8237 19.6025C31.4262 19.5997 31.4262 19.5997 31.6437 19.8082C31.7767 19.9407 31.8134 20.0982 31.8187 20.2832C31.7892 20.4657 31.6897 20.6432 31.5437 20.7582C31.3564 20.8482 31.1612 20.8472 30.9562 20.8505C30.9169 20.8512 30.8774 20.852 30.8382 20.853C30.1407 20.8662 29.4432 20.8612 28.7457 20.8602C28.5379 20.8597 28.3307 20.8597 28.1207 20.8595C27.6957 20.8592 27.2682 20.859 26.8432 20.8582L26.8182 22.3082C27.0344 22.3097 27.0344 22.3097 27.2557 22.3112C27.3469 22.312 27.4384 22.3127 27.5307 22.3135C27.6759 22.315 27.8207 22.3162 27.9657 22.317C28.0827 22.3177 28.1997 22.3187 28.3157 22.32C28.3602 22.3202 28.4049 22.3207 28.4494 22.3207C28.5122 22.321 28.5747 22.3217 28.6372 22.3225H28.6927C28.8769 22.3257 29.0177 22.3905 29.1527 22.5132C29.2599 22.636 29.3112 22.7982 29.3169 22.9582C29.2992 23.1665 29.2034 23.3032 29.0519 23.4432C28.8884 23.5522 28.7169 23.5627 28.5244 23.5617H28.4684C28.4074 23.5617 28.3467 23.5615 28.2857 23.5612H28.1587L27.8237 23.5605C27.6902 23.5602 27.5562 23.5602 27.4237 23.56C27.2209 23.5597 27.0187 23.5592 26.8162 23.5587V25.0337C27.0297 25.0325 27.0297 25.0325 27.2487 25.0312C27.3389 25.0307 27.4292 25.0305 27.5187 25.0302C27.6619 25.0297 27.8062 25.0292 27.9487 25.0282C28.0644 25.0275 28.1799 25.027 28.2962 25.0267C28.3402 25.0265 28.3844 25.0262 28.4284 25.026C28.4902 25.0255 28.5519 25.0252 28.6137 25.0252C28.6409 25.025 28.6409 25.025 28.6684 25.0245C28.8522 25.0257 28.9984 25.0942 29.1434 25.2087C29.2617 25.3465 29.3124 25.5037 29.3184 25.6837C29.2957 25.8587 29.2202 26.0112 29.0934 26.1337C28.9302 26.2442 28.7684 26.2627 28.5759 26.2617H28.5184C28.4557 26.2617 28.3932 26.2615 28.3304 26.2612H28.1999C28.0854 26.261 27.9712 26.2607 27.8574 26.2605C27.7407 26.2602 27.6239 26.2602 27.5074 26.26C27.2784 26.2597 27.0499 26.2595 26.8199 26.2587C26.8199 26.273 26.8202 26.287 26.8202 26.3015C26.8207 26.449 26.8212 26.5965 26.8214 26.744C26.8214 26.7987 26.8217 26.8537 26.8219 26.9087C26.8222 26.9882 26.8224 27.0675 26.8224 27.147C26.8227 27.1712 26.8227 27.1952 26.8229 27.2202C26.8229 27.345 26.8182 27.468 26.8074 27.5927C26.8049 27.6192 26.8027 27.6457 26.8004 27.6732C26.7977 27.7032 26.7977 27.7032 26.7949 27.7337H26.8629C27.4104 27.7325 27.9554 27.7317 28.5029 27.7312C28.7679 27.731 29.0329 27.7307 29.2954 27.73C29.5259 27.7295 29.7554 27.7292 29.9879 27.7292C30.1099 27.729 30.2319 27.729 30.3529 27.7285C30.4679 27.7282 30.5829 27.7282 30.6979 27.7282C30.7402 27.7282 30.7822 27.728 30.8242 27.728C31.4267 27.7252 31.4267 27.7252 31.6442 27.9337C31.7772 28.0662 31.8139 28.2237 31.8192 28.4087C31.7897 28.5912 31.6902 28.7687 31.5442 28.8837C31.3569 28.9737 31.1617 28.9727 30.9567 28.976C30.9174 28.9767 30.8779 28.9775 30.8387 28.9785C30.1412 28.9917 29.4437 28.9867 28.7462 28.9857C28.5384 28.9852 28.3312 28.9852 28.1212 28.985C27.6962 28.9847 27.2687 28.9845 26.8437 28.9837L26.8187 30.4337C27.0349 30.4352 27.0349 30.4352 27.2562 30.4367C27.3474 30.4375 27.4389 30.4382 27.5312 30.439C27.6764 30.4405 27.8212 30.4417 27.9662 30.4425C28.0832 30.4432 28.2002 30.4442 28.3162 30.4455C28.3607 30.4457 28.4054 30.4462 28.4499 30.4462C28.5127 30.4465 28.5752 30.4472 28.6377 30.448H28.6932C28.8774 30.4512 29.0182 30.516 29.1532 30.6387C29.2604 30.7615 29.3117 30.9237 29.3174 31.0837C29.2997 31.292 29.2039 31.4287 29.0524 31.5687C28.8889 31.6777 28.7174 31.6882 28.5249 31.6872H28.4689C28.4079 31.6872 28.3472 31.687 28.2862 31.6867H28.1592L27.8242 31.686C27.6907 31.6857 27.5567 31.6857 27.4242 31.6855C27.2214 31.6852 27.0192 31.6847 26.8167 31.6842V33.1592C26.9592 33.1585 27.1017 33.1575 27.2492 33.1567C27.3394 33.1562 27.4297 33.156 27.5192 33.1557C27.6624 33.1552 27.8067 33.1547 27.9492 33.1537C28.0649 33.153 28.1804 33.1525 28.2967 33.1522C28.3407 33.152 28.3849 33.1517 28.4289 33.1515C28.4907 33.151 28.5524 33.1507 28.6142 33.1507C28.6414 33.1505 28.6414 33.1505 28.6689 33.15C28.8527 33.1512 28.9989 33.2197 29.1439 33.3342C29.2622 33.472 29.3129 33.6292 29.3189 33.8092C29.2962 33.9842 29.2207 34.1367 29.0939 34.2592C28.9307 34.3697 28.7689 34.3882 28.5764 34.3872H28.5189C28.4562 34.3872 28.3937 34.387 28.3309 34.3867H28.2004C28.0859 34.3865 27.9717 34.3862 27.8579 34.386C27.7207 34.3857 27.5829 34.3857 27.4454 34.3855C27.2369 34.3852 27.0279 34.3847 26.8204 34.3842V35.8342C27.0174 35.835 27.0174 35.835 27.2179 35.8357C27.6504 35.8375 28.0854 35.8395 28.5179 35.8415C28.7804 35.8427 29.0429 35.844 29.3054 35.845C29.5347 35.8457 29.7629 35.8467 29.9929 35.848C30.1142 35.8485 30.2354 35.849 30.3579 35.8495C30.4722 35.8497 30.5864 35.8502 30.7004 35.851C30.7422 35.8512 30.7842 35.8515 30.8259 35.8515C31.4359 35.8522 31.4359 35.8522 31.6834 36.0975C31.7887 36.223 31.8154 36.3725 31.8199 36.535C31.7904 36.7175 31.6909 36.895 31.5449 37.01C31.3812 37.0832 31.2224 37.0982 31.0449 37.102C31.0172 37.103 30.9894 37.1037 30.9607 37.1045C30.5432 37.1155 30.1257 37.1137 29.7082 37.1135H29.3382C29.1324 37.1135 28.9257 37.1135 28.7207 37.1132C28.4832 37.1132 28.2457 37.1132 28.0082 37.1135H27.3932H27.0282H26.6857C26.6439 37.1132 26.6022 37.1132 26.5604 37.1135C25.9429 37.1142 25.9429 37.1142 25.7454 36.935C25.5964 36.7545 25.5667 36.62 25.5672 36.3875V36.3182C25.5669 36.241 25.5669 36.1637 25.5672 36.0865C25.5669 36.0305 25.5669 35.9745 25.5669 35.9185C25.5667 35.7637 25.5667 35.6085 25.5667 35.4535C25.5667 35.3027 25.5664 35.151 25.5664 35.001C25.5662 34.6885 25.5659 34.376 25.5659 34.0635C25.5657 33.746 25.5657 33.431 25.5654 33.1135V33.053C25.5652 32.9717 25.5652 32.8905 25.5652 32.809C25.5644 31.824 25.5642 30.8365 25.5637 29.859C25.5637 29.539 25.5637 29.219 25.5634 28.899C25.5629 27.224 25.5622 25.549 25.5619 23.874V23.5065V23.4327C25.5619 23.1862 25.5617 22.9402 25.5617 22.6927V22.5445C25.5614 20.957 25.5607 19.3695 25.5597 17.7945C25.5589 16.6545 25.5582 15.5145 25.5579 14.3695V14.2985C25.5579 13.7835 25.5577 13.2685 25.5577 12.7535V12.1335V12.0647C25.5577 11.3347 25.5572 10.6047 25.5564 9.87472C25.5557 9.13972 25.5554 8.40473 25.5557 7.66722C25.5559 7.56547 25.5559 7.46397 25.5559 7.36223V7.30197C25.5559 6.98697 25.5557 6.67197 25.5552 6.35447C25.5547 6.04447 25.5547 5.73447 25.5552 5.42447C25.5552 5.25847 25.5552 5.09197 25.5547 4.92697C25.5542 4.77622 25.5544 4.62447 25.5549 4.47447C25.5549 4.42022 25.5549 4.36597 25.5544 4.31147C25.5512 3.75147 25.5512 3.75147 25.7402 3.55147C25.8874 3.41247 26.0327 3.36197 26.2352 3.36397L26.2302 3.34722Z" fill="#000100"/>
<path d="M16.0798 3.34722C17.2998 3.32347 18.3923 3.82722 19.2548 4.66222C19.8573 5.25222 20.2498 6.00972 20.4448 6.82472C20.4493 6.84297 20.4538 6.86147 20.4583 6.88022C20.6988 7.92022 20.4518 9.08022 19.8958 9.98022C19.4508 10.6702 18.8758 11.2252 18.1458 11.6052C18.1298 11.6137 18.1135 11.622 18.097 11.6307C17.2545 12.0632 16.197 12.2282 15.272 12.0057C15.2513 12.0007 15.2305 11.9957 15.2093 11.9907C14.6243 11.8455 14.0743 11.6032 13.5968 11.2307C13.5768 11.2155 13.5565 11.2002 13.5358 11.1845C12.5758 10.4395 11.9733 9.38697 11.8208 8.18447C11.8175 8.16097 11.8143 8.13747 11.8108 8.11322C11.6828 7.07572 12.0445 5.96072 12.6733 5.13822C12.8145 4.96247 12.9658 4.79572 13.1208 4.63322C13.144 4.60747 13.144 4.60747 13.1678 4.58122C13.9003 3.80122 15.0253 3.39622 16.0678 3.35622L16.0798 3.34722ZM14.1748 5.32472C14.1503 5.34597 14.126 5.36697 14.1008 5.38872C13.5083 5.90872 13.0958 6.66622 13.0433 7.45872C13.0143 8.30372 13.2168 9.07372 13.7733 9.72372C13.7845 9.73697 13.7955 9.74997 13.807 9.76347C13.9558 9.93647 14.112 10.091 14.297 10.2235C14.3175 10.2382 14.3175 10.2382 14.3385 10.2535C15.0135 10.736 15.7985 10.931 16.626 10.8335C17.246 10.7265 17.771 10.4535 18.2485 10.0485C18.2755 10.0272 18.3028 10.0057 18.3298 9.98447C18.8823 9.49447 19.2398 8.72947 19.2998 7.99947C19.3405 7.15947 19.1238 6.37197 18.5748 5.72447C18.5538 5.69947 18.5328 5.67422 18.511 5.64822C18.2335 5.32572 17.901 5.09322 17.526 4.89822C17.5035 4.88622 17.4813 4.87422 17.458 4.86197C16.4005 4.33447 15.053 4.55697 14.183 5.32197L14.1748 5.32472Z" fill="#000100"/>
</svg>
