<svg width="35" height="35" viewBox="0 0 35 35" fill="none" xmlns="http://www.w3.org/2000/svg">
<g clip-path="url(#clip0_208_365)">
<path d="M8.3242 0.323817C8.3385 0.323817 8.3528 0.324034 8.36753 0.324034C8.8052 0.327284 9.16919 0.44905 9.49853 0.744367C9.51218 0.756284 9.52605 0.7682 9.54013 0.78055C9.78496 1.00805 9.89546 1.31572 9.97563 1.63205L9.9973 2.65038H25.099L25.1206 1.76205C25.2116 1.27672 25.3655 0.919217 25.762 0.613717C26.0696 0.405717 26.399 0.323384 26.7673 0.323384H26.8128C27.0468 0.324034 27.2461 0.342667 27.4606 0.44125C27.4868 0.452517 27.5131 0.463784 27.5401 0.475267C27.9345 0.651634 28.1966 0.9541 28.3483 1.3506C28.4241 1.5586 28.4384 1.7601 28.4371 1.9811C28.4369 2.00103 28.4369 2.02097 28.4369 2.04155C28.4369 2.10438 28.4365 2.16743 28.4363 2.23027C28.4361 2.27317 28.4361 2.31607 28.4361 2.35918C28.4358 2.46383 28.4354 2.56848 28.435 2.67335C28.4497 2.67292 28.4642 2.6727 28.4794 2.67248C31.5994 2.61507 31.5994 2.61507 32.4444 3.41998C32.8864 3.88148 33.1464 4.49032 33.1442 5.12948V5.18863V5.3845C33.1442 5.43217 33.1442 5.47962 33.1444 5.52707V5.9214C33.1444 6.04902 33.1444 6.17707 33.1447 6.3049C33.1447 6.56923 33.1449 6.83357 33.1449 7.0979C33.1449 7.36657 33.1449 7.63307 33.1451 7.90173V7.95287V8.15978C33.1455 8.97662 33.1455 9.79128 33.1457 10.6081C33.1457 11.0154 33.1457 11.4206 33.146 11.828C33.1462 13.1323 33.1464 14.4279 33.1464 15.728C33.1466 15.7901 33.1466 15.8525 33.1466 15.9147V16.2895V16.7272V16.8529C33.1466 18.1962 33.147 19.5395 33.1475 20.8829C33.1479 21.8492 33.1481 22.8155 33.1483 23.7862V23.8464V25.1551V25.6231V25.7395C33.1483 26.3591 33.1486 26.9766 33.149 27.5941C33.1492 28.2181 33.1494 28.84 33.1492 29.464V29.7218C33.149 29.7387 33.149 29.7554 33.149 29.7729C33.149 30.0394 33.1492 30.3081 33.1494 30.5746C33.1496 30.8368 33.1496 31.1011 33.1494 31.3633C33.1494 31.5039 33.1494 31.6449 33.1496 31.7858C33.1499 31.9136 33.1499 32.0414 33.1494 32.1693C33.1494 32.2152 33.1494 32.2611 33.1496 32.3071C33.1525 33.0697 32.9221 33.7306 32.3826 34.2787C32.3673 34.2945 32.3519 34.3106 32.3361 34.3268C31.9092 34.7385 31.2484 34.9985 30.6591 34.9963H30.6027C30.5403 34.9965 30.4779 34.9965 30.4153 34.9963C30.37 34.9965 30.3247 34.9965 30.2795 34.9965C30.1542 34.9968 30.0281 34.9968 29.9046 34.9968C29.7688 34.9968 29.6338 34.997 29.4973 34.997C29.259 34.9972 29.0206 34.9974 28.7823 34.9974C28.5266 34.9976 28.271 34.9976 28.0153 34.9978H27.9663C27.9007 34.9981 27.8348 34.9981 27.7689 34.9981C26.9716 34.9987 26.1721 34.9989 25.3856 34.9994C25.1278 34.9994 24.8678 34.9994 24.6099 34.9996C23.2536 35 21.9016 35.0007 20.5366 35.0009H20.2376H20.178C19.9785 35.0009 19.7794 35.0011 19.58 35.0011H19.46C18.1752 35.0013 16.8817 35.002 15.6033 35.0028C14.6803 35.0035 13.7573 35.0041 12.83 35.0043H12.7724C12.3564 35.0043 11.9382 35.0046 11.5222 35.0046H11.0195H10.9638C10.3723 35.0046 9.78301 35.005 9.19151 35.0056C8.59568 35.0063 7.99985 35.0065 7.40618 35.0063C7.32384 35.0061 7.24151 35.0061 7.15918 35.0061H7.11043C6.85476 35.0061 6.59909 35.0063 6.34559 35.0067C6.09426 35.0072 5.84293 35.0072 5.59159 35.0067C5.45748 35.0067 5.32293 35.0067 5.18859 35.0072C5.06618 35.0076 4.94376 35.0074 4.82243 35.0069C4.77866 35.0069 4.73489 35.0069 4.69113 35.0074C3.88729 35.0126 3.20046 34.7257 2.62846 34.1645C2.05213 33.56 1.95896 32.7865 1.95896 31.9979C1.95896 31.9511 1.95896 31.9043 1.95874 31.8575V31.4718V31.0515C1.95853 30.8066 1.95853 30.5618 1.95853 30.3148V29.5261V29.4759C1.95853 29.4081 1.95853 29.3405 1.95831 29.2726C1.95809 28.5663 1.95809 27.86 1.95809 27.1536V26.9261V26.8692V25.6147C1.95788 25.4424 1.95788 25.2702 1.95788 25.099V25.0414C1.95788 23.9515 1.95766 22.853 1.95766 21.7697V21.6473V21.0948V20.8478V20.7245C1.95766 19.4245 1.95766 18.1245 1.95723 16.8245C1.95723 16.4973 1.95701 16.1702 1.95701 15.843V15.7821C1.95679 15.1603 1.95679 14.5384 1.95679 13.9166V13.8575V12.5726V12.1133V11.9989C1.95679 11.3922 1.95658 10.7834 1.95636 10.1767C1.95636 9.56573 1.95614 8.95257 1.95636 8.34157V8.08807V8.0378C1.95658 7.77563 1.95636 7.51347 1.95614 7.2513C1.95614 6.99347 1.95614 6.73563 1.95636 6.4778C1.95636 6.34 1.95636 6.20263 1.95614 6.06397C1.95593 5.9383 1.95614 5.81263 1.95636 5.68697C1.95636 5.6419 1.95636 5.59683 1.95614 5.55177C1.95419 4.75443 2.10283 4.05027 2.65598 3.44793C2.67158 3.4306 2.68696 3.41327 2.70299 3.39528C3.15799 2.91212 3.79933 2.67378 4.45366 2.64562C4.62396 2.64172 4.79383 2.64302 4.96499 2.64345H5.11233L5.49799 2.6441C5.62951 2.64432 5.76016 2.64432 5.89233 2.64453C6.15016 2.64475 6.40799 2.64518 6.66366 2.64562C6.66388 2.60402 6.66388 2.60402 6.66431 2.56155C6.66518 2.45712 6.66648 2.35247 6.66821 2.24738C6.66864 2.20253 6.66908 2.15747 6.66951 2.11262C6.67276 1.65978 6.72909 1.22862 7.03134 0.86895H7.07468C7.07944 0.856817 7.08443 0.844467 7.08941 0.8319C7.18691 0.662034 7.39058 0.550234 7.56175 0.470067C7.57605 0.463134 7.59034 0.456417 7.60529 0.449267C7.83929 0.343534 8.07113 0.316234 8.3268 0.3184L8.3242 0.323817ZM7.80419 1.53065C7.6846 1.6639 7.66878 1.82098 7.67181 1.99215C7.67203 2.01122 7.67203 2.03007 7.67225 2.04957C7.67246 2.1098 7.67333 2.16982 7.6742 2.22983C7.67463 2.27078 7.67484 2.31173 7.67506 2.35268C7.67571 2.45257 7.67701 2.55245 7.67831 2.65168C7.92965 2.67335 8.18098 2.6766 8.43448 2.67617C8.50056 2.67595 8.56643 2.67617 8.6323 2.67617H8.75796C8.78764 2.67617 8.78765 2.67617 8.81776 2.67638C8.9053 2.68483 8.9053 2.68483 8.97896 2.65168C8.98156 2.58798 8.98308 2.52493 8.98329 2.46123C8.98351 2.43242 8.98351 2.43242 8.98373 2.40295C8.98395 2.362 8.98394 2.32105 8.98416 2.27988C8.98438 2.2177 8.98503 2.15552 8.98568 2.09333C8.9859 2.05347 8.9859 2.0136 8.98611 1.97373C8.98633 1.95532 8.98655 1.9369 8.98676 1.91783C8.98611 1.7445 8.94191 1.6015 8.82296 1.4715C8.54563 1.23533 8.0473 1.27043 7.80463 1.53022L7.80419 1.53065ZM26.2425 1.53477C26.2304 1.55297 26.2183 1.57138 26.2059 1.59023C26.1877 1.61688 26.1877 1.61688 26.1693 1.6444C26.0891 1.85782 26.1158 2.1189 26.1164 2.34207C26.1164 2.37197 26.1164 2.40165 26.1162 2.43155V2.51627C26.1164 2.54162 26.1164 2.56697 26.1164 2.59318C26.1125 2.64908 26.1125 2.64908 26.1409 2.67248C26.1806 2.67465 26.2204 2.6753 26.2603 2.6753C26.2986 2.6753 26.2986 2.6753 26.3376 2.67552C26.3654 2.6753 26.3933 2.6753 26.4219 2.6753H26.5075H26.6876C26.7645 2.67508 26.8414 2.6753 26.9194 2.6753C26.9926 2.67552 27.0659 2.6753 27.1382 2.6753C27.166 2.6753 27.1937 2.6753 27.2223 2.67552C27.2479 2.6753 27.2734 2.6753 27.2996 2.6753C27.3224 2.6753 27.3449 2.6753 27.3681 2.67508C27.4184 2.67812 27.4184 2.67812 27.4409 2.65082C27.4439 2.58928 27.4455 2.52818 27.4461 2.46665C27.4461 2.44802 27.4463 2.42938 27.4465 2.4101C27.4468 2.37023 27.447 2.33058 27.4472 2.29072C27.4476 2.23048 27.4485 2.17025 27.4496 2.11023C27.4517 1.86973 27.4502 1.6704 27.2825 1.4819C27.0074 1.23057 26.4939 1.26762 26.2425 1.53347V1.53477ZM3.34086 4.1781C2.97036 4.63527 2.94653 5.11843 2.94869 5.68177C2.94869 5.72813 2.94848 5.77428 2.94848 5.82065V6.19548C2.94869 6.32657 2.94848 6.45765 2.94848 6.58765C2.94848 6.80648 2.94848 7.02748 2.94869 7.24632V8.00898C2.94848 8.22782 2.94848 8.44665 2.94848 8.66332V9.05332C2.94848 9.17573 2.94848 9.29815 2.94869 9.41948C2.94869 9.46455 2.94869 9.50962 2.94848 9.55447C2.94848 9.61557 2.94869 9.67688 2.94869 9.73798C2.94869 9.75597 2.94869 9.77395 2.94848 9.79258C2.94133 9.8721 2.94133 9.8721 2.97318 9.93883C3.00264 9.94078 3.03211 9.94143 3.06158 9.94122C3.08086 9.94143 3.09993 9.94143 3.11964 9.94143C3.14109 9.94122 3.16233 9.94122 3.18421 9.941H3.25246C3.32829 9.941 3.40413 9.94078 3.47996 9.94057C3.53413 9.94057 3.58829 9.94035 3.64246 9.94035C3.75946 9.94013 3.87646 9.93992 3.99346 9.9397C4.16289 9.93948 4.33146 9.93927 4.50046 9.93905C4.77563 9.93883 5.05079 9.9384 5.32596 9.93797H5.37579C5.60979 9.93753 5.84379 9.93732 6.07563 9.93688C6.09209 9.93667 6.10856 9.93667 6.12546 9.93667H6.17508C6.44808 9.93602 6.72324 9.9358 6.99624 9.93558C7.16503 9.93537 7.33424 9.93515 7.50324 9.93472C7.63281 9.9345 7.76324 9.93428 7.89108 9.93428C7.94416 9.93428 7.99724 9.93407 8.05033 9.93385C8.12269 9.93363 8.19528 9.93363 8.26699 9.93363C8.28801 9.93363 8.30903 9.93342 8.3307 9.9332C8.53544 9.93407 8.69686 9.96548 8.84853 10.1161C8.92978 10.2424 8.969 10.3674 8.94495 10.5191C8.90681 10.6543 8.83705 10.7769 8.71528 10.8506C8.58658 10.8967 8.46828 10.9002 8.33394 10.9C8.31098 10.9 8.28801 10.9002 8.26439 10.9002C8.1877 10.9006 8.11078 10.9006 8.03473 10.9008C7.97969 10.901 7.92444 10.9013 7.86941 10.9015C7.75089 10.9019 7.63324 10.9021 7.51408 10.9023C7.34269 10.9028 7.17174 10.9032 7.00058 10.9039C6.72324 10.9049 6.44374 10.9056 6.16641 10.9065C5.89558 10.9071 5.62691 10.9078 5.35608 10.9086C5.33939 10.9086 5.32271 10.9088 5.30559 10.9088C5.22218 10.9091 5.13854 10.9093 5.05426 10.9095C4.36093 10.9119 3.66759 10.9138 2.97643 10.9156C2.95693 10.9988 2.95194 11.0757 2.95194 11.1604C2.95194 11.1883 2.95194 11.2163 2.95173 11.2451C2.95194 11.2761 2.95194 11.3071 2.95194 11.3383V11.4373C2.95173 11.5287 2.95194 11.62 2.95194 11.7103V12.0071C2.95173 12.1811 2.95173 12.356 2.95173 12.5293C2.95194 12.7871 2.95194 13.0471 2.95173 13.305V14.6916V15.905V15.9862V16.3134V18.5884V18.6319C2.95173 18.8638 2.95194 19.0978 2.95194 19.3296V22.1029C2.95173 23.1213 2.95173 24.1418 2.95173 25.1579V25.4829V25.5642C2.95194 25.9672 2.95173 26.3723 2.95173 26.7753V28.1533C2.95194 28.4112 2.95194 28.669 2.95173 28.9247C2.95173 29.0965 2.95173 29.2692 2.95194 29.4403V29.735C2.95173 29.8243 2.95194 29.9133 2.95194 30.0037V30.0994C2.95108 30.6671 3.02843 31.1199 3.43294 31.5424C3.81428 31.9043 4.29094 31.9801 4.79794 31.9779C4.83218 31.9779 4.86619 31.9782 4.90043 31.9782C4.99381 31.9784 5.08719 31.9784 5.17993 31.9782C5.28154 31.9782 5.38338 31.9782 5.48543 31.9784C5.66374 31.9786 5.84076 31.9786 6.0206 31.9786C6.28493 31.9784 6.55143 31.9786 6.81576 31.9788C7.31626 31.979 7.81676 31.979 8.31726 31.979H9.47643C9.53211 31.979 9.58758 31.9792 9.64326 31.9792H9.89459C10.6724 31.9795 11.4503 31.9795 12.2346 31.9795H12.279C12.4424 31.9795 12.6062 31.9795 12.7687 31.9792H12.8133H12.9925C13.9372 31.9792 14.8818 31.9792 15.8308 31.9797C16.0692 31.9799 16.3075 31.9799 16.5458 31.9801H16.59C17.3809 31.9803 18.1739 31.9803 18.9734 31.9803H19.307H19.39C19.8038 31.9803 20.2177 31.9805 20.6315 31.9808C21.1017 31.981 21.5718 31.981 22.0442 31.9808C22.3085 31.9805 22.5707 31.9805 22.835 31.981C23.0109 31.981 23.186 31.981 23.3637 31.9808C23.464 31.9805 23.5641 31.9805 23.6648 31.9808C23.7563 31.981 23.8475 31.981 23.9378 31.9808C23.9706 31.9805 24.0033 31.9808 24.0358 31.9808C24.4388 31.9829 24.7919 31.919 25.0909 31.6298C25.1065 31.6137 25.1224 31.5979 25.1384 31.5817C25.151 31.5689 25.1637 31.5561 25.1767 31.5431C25.4302 31.2701 25.4519 30.9148 25.4497 30.5616C25.4497 30.5252 25.45 30.489 25.4502 30.4526C25.4504 30.375 25.4506 30.2975 25.4506 30.2208C25.4506 30.0977 25.451 29.9738 25.4515 29.8524C25.4523 29.6141 25.4528 29.3758 25.4532 29.1353C25.4536 28.8319 25.4543 28.5264 25.4554 28.2231C25.4558 28.1011 25.456 27.9783 25.456 27.8569C25.4562 27.7809 25.4565 27.7048 25.4567 27.6294V27.5244C25.4562 27.2535 25.4734 26.9914 25.5615 26.7335C25.5672 26.7173 25.5726 26.701 25.5782 26.6841C25.6759 26.4111 25.8296 26.1381 26.0419 25.9366C26.0746 25.9085 26.0746 25.9085 26.0696 25.8638C26.0824 25.858 26.0952 25.8523 26.1082 25.8463C26.1576 25.8198 26.1905 25.7912 26.2306 25.7527C26.7029 25.3345 27.2814 25.2543 27.8838 25.2543C27.92 25.2541 27.9561 25.2541 27.9921 25.2541C28.0695 25.2539 28.1468 25.2537 28.2239 25.2537C28.3466 25.2535 28.4688 25.2533 28.5923 25.2528C28.6345 25.2526 28.6766 25.2524 28.7186 25.2524C28.7396 25.2524 28.7606 25.2522 28.7825 25.2522C29.0663 25.2513 29.3523 25.2504 29.6362 25.2502C29.8288 25.25 30.0218 25.2496 30.2147 25.2487C30.3165 25.2483 30.4181 25.2481 30.5202 25.2483C30.6157 25.2483 30.7115 25.2481 30.8062 25.2474C30.8411 25.2472 30.8759 25.2472 30.9108 25.2474C31.2813 25.2489 31.5652 25.1525 31.8382 24.8921C32.0288 24.6925 32.1588 24.4414 32.1588 24.1597C32.159 24.1309 32.159 24.1309 32.159 24.1012C32.159 24.0802 32.159 24.059 32.1588 24.0373C32.1588 24.0148 32.159 23.992 32.159 23.9689C32.159 23.8926 32.159 23.8163 32.1588 23.7392C32.159 23.6839 32.159 23.6289 32.159 23.5739V23.2142V22.679C32.1593 22.3605 32.1593 22.042 32.159 21.7235V20.8872V20.8313V20.606C32.1593 19.9018 32.159 19.1998 32.159 18.4956C32.1588 17.8695 32.1588 17.2455 32.159 16.6193C32.159 15.9173 32.1593 15.2153 32.159 14.5133V14.288V14.2321V13.3958C32.1593 13.0794 32.1593 12.7631 32.159 12.4467V11.9137V11.5173V11.3563C32.159 11.2837 32.159 11.2113 32.1588 11.1396C32.159 11.1184 32.159 11.0971 32.159 11.075C32.159 11.0464 32.159 11.0464 32.1588 11.0172V10.9669C32.1603 10.9286 32.1603 10.9286 32.1346 10.9075C32.0873 10.9054 32.0399 10.9047 31.9926 10.9047H31.9469C31.8956 10.9045 31.8442 10.9045 31.7929 10.9047C31.7558 10.9047 31.7188 10.9045 31.6817 10.9045H31.3741C31.2627 10.9045 31.1509 10.9045 31.0404 10.9043C30.8447 10.9041 30.6482 10.9041 30.4532 10.9041C30.1629 10.9041 29.8726 10.9039 29.5801 10.9039C29.1207 10.9034 28.6614 10.9034 28.2021 10.9032C27.4892 10.903 26.7764 10.9026 26.0614 10.9021C25.7819 10.9019 25.5024 10.9017 25.2229 10.9015H25.0814C24.3556 10.901 23.6319 10.9006 22.9147 10.9002H22.7672C22.0089 10.8997 21.2527 10.8993 20.4922 10.8991H20.4428C20.2623 10.8991 20.081 10.8989 19.9011 10.8989H19.8519C19.77 10.8989 19.6881 10.8989 19.6071 10.8987C18.8661 10.8984 18.1273 10.8982 17.3971 10.8978C17.3815 10.8978 17.3659 10.8976 17.3501 10.8976C17.0251 10.8974 16.6979 10.8971 16.3729 10.8969C16.2204 10.8969 16.0674 10.8967 15.9158 10.8967C15.9006 10.8965 15.8856 10.8965 15.87 10.8965C15.3847 10.8963 14.9015 10.8961 14.4162 10.8961C13.9157 10.8961 13.413 10.8958 12.9125 10.8952C12.6222 10.895 12.334 10.8948 12.0459 10.895C11.8528 10.895 11.6602 10.895 11.4674 10.8945C11.3571 10.8943 11.2464 10.8943 11.138 10.8945C11.0379 10.8948 10.9378 10.8945 10.8369 10.8941C10.8009 10.8941 10.7647 10.8941 10.7288 10.8943C10.3453 10.8958 10.3453 10.8958 10.2044 10.7873C10.103 10.6614 10.0372 10.5338 10.045 10.367C10.0688 10.2235 10.1338 10.1178 10.2439 10.0246C10.43 9.91413 10.6144 9.92258 10.8245 9.92367C10.8618 9.92367 10.8988 9.92367 10.9361 9.92345C11.0386 9.92323 11.1411 9.92345 11.2438 9.92388C11.3551 9.9241 11.4669 9.92388 11.5774 9.92388C11.7727 9.92367 11.9674 9.92388 12.1624 9.9241C12.4528 9.92453 12.7431 9.92475 13.0334 9.92475C13.5209 9.92475 14.0106 9.92497 14.4981 9.9254C14.9813 9.92583 15.4644 9.92627 15.9498 9.92627H15.9953C16.1478 9.92627 16.3008 9.92648 16.4524 9.92648C16.7774 9.92648 17.1046 9.92648 17.4296 9.9267H17.4766C18.2155 9.92692 18.9543 9.92735 19.6866 9.92778C19.7683 9.928 19.85 9.928 19.9315 9.928H19.9804C20.1609 9.92822 20.3401 9.92822 20.5221 9.92843H20.5715C21.3277 9.92887 22.0838 9.9293 22.8465 9.92973H22.9938C23.7175 9.93017 24.439 9.93038 25.1605 9.9306H25.3015C25.581 9.93082 25.8605 9.93082 26.1379 9.93103C26.8485 9.93125 27.5614 9.93147 28.272 9.93212C28.7422 9.93233 29.2124 9.93255 29.6825 9.93277C29.9707 9.93298 30.2589 9.9332 30.5492 9.93342C30.7416 9.93363 30.9349 9.93363 31.1255 9.93363C31.2356 9.93385 31.3465 9.93385 31.4549 9.93407H31.7539C31.7901 9.93407 31.826 9.93407 31.8622 9.93428H32.0078H32.0897C32.1476 9.9384 32.1476 9.9384 32.1712 9.91002C32.1733 9.84718 32.1744 9.78478 32.1742 9.72195C32.1744 9.69205 32.1744 9.69205 32.1746 9.6615C32.1749 9.59412 32.1749 9.52673 32.1749 9.45913C32.1751 9.41103 32.1753 9.36293 32.1753 9.31483C32.1757 9.18353 32.1759 9.05267 32.1762 8.9205C32.1764 8.83838 32.1764 8.75648 32.1766 8.6735C32.177 8.446 32.1772 8.2185 32.1775 7.991V7.81377V7.76935C32.1777 7.53318 32.1783 7.29485 32.179 7.05868C32.1796 6.81602 32.1801 6.57118 32.1801 6.32852C32.1803 6.1918 32.1805 6.05552 32.1809 5.91902C32.1814 5.7901 32.1816 5.66118 32.1814 5.53335C32.1814 5.48612 32.1814 5.4391 32.1818 5.39187C32.1846 4.8957 32.0865 4.4602 31.729 4.09403C31.2826 3.67153 30.754 3.64553 30.1711 3.6477H30.0405C29.923 3.6477 29.8065 3.64792 29.6873 3.64813H29.319C29.0871 3.64835 28.8531 3.64857 28.6213 3.64878C28.357 3.649 28.0905 3.649 27.8261 3.64922C27.2823 3.64943 26.7363 3.64987 26.1925 3.6503C26.1628 3.74975 26.1437 3.83468 26.1435 3.93847C26.1433 3.96447 26.1433 3.99068 26.1431 4.01755C26.1431 4.0455 26.1433 4.07323 26.1433 4.10205V4.19002C26.1431 4.25133 26.1433 4.31265 26.1435 4.37397C26.1437 4.45197 26.1435 4.52997 26.1433 4.60797C26.1431 4.66842 26.1431 4.72908 26.1433 4.78953C26.1433 4.832 26.1433 4.87468 26.1431 4.91715C26.1439 5.26815 26.1439 5.26815 26.3225 5.55632C26.4397 5.66768 26.589 5.69065 26.7428 5.71838C26.8771 5.74373 26.9855 5.78122 27.0808 5.88392C27.1731 6.03212 27.1993 6.16342 27.1677 6.33675C27.115 6.47022 27.0414 6.58158 26.9077 6.64008C26.5784 6.73693 26.2274 6.64658 25.9327 6.48712C25.586 6.275 25.326 5.94762 25.222 5.55112C25.1861 5.3975 25.172 5.24562 25.17 5.08745C25.1698 5.07185 25.1696 5.05647 25.1694 5.04065C25.1687 4.99017 25.1683 4.93968 25.1676 4.88942C25.1672 4.8541 25.1668 4.819 25.1663 4.78368C25.165 4.6916 25.164 4.5993 25.1631 4.50635C25.1618 4.4121 25.1607 4.31785 25.1594 4.22468L25.1529 3.67002C24.9499 3.65312 24.7477 3.6451 24.5441 3.64553H24.4555C24.3749 3.64532 24.2943 3.64553 24.2128 3.64553H23.9485C23.7946 3.64532 23.6408 3.64532 23.487 3.64532C23.2573 3.64553 23.0298 3.64553 22.8001 3.64532H21.5738H20.5013H20.4296H20.1414C19.2401 3.64532 18.3366 3.64532 17.4331 3.64553H15.0281C14.1267 3.64532 13.2254 3.64532 12.3197 3.64532H12.0316H11.9601C11.6026 3.64553 11.2451 3.64532 10.8876 3.64532H9.66991C9.44241 3.64553 9.21491 3.64553 8.98741 3.64532C8.83574 3.64532 8.68408 3.64532 8.53241 3.64553H8.27241C8.19376 3.64532 8.11511 3.64553 8.03624 3.64553C7.99421 3.64553 7.95218 3.64553 7.91036 3.64532C7.88588 3.64553 7.8614 3.64553 7.83605 3.64553H7.77148C7.72446 3.64293 7.72446 3.64293 7.70236 3.67002C7.69976 3.71877 7.69889 3.76773 7.69846 3.81648C7.69825 3.83945 7.69824 3.83945 7.69803 3.86285C7.69759 3.91398 7.69738 3.9649 7.69716 4.01603C7.69716 4.03337 7.69694 4.0507 7.69694 4.06868C7.69651 4.1612 7.69608 4.2535 7.69586 4.34602C7.69565 4.44135 7.69499 4.53625 7.69413 4.63202C7.69348 4.70547 7.69326 4.77892 7.69326 4.85302C7.69304 4.88812 7.69283 4.92322 7.6924 4.9581C7.69023 5.17217 7.69478 5.35027 7.83171 5.52577C7.955 5.63497 8.06138 5.6783 8.22171 5.7095C8.52938 5.77103 8.52938 5.77103 8.63338 5.9045C8.71095 6.02757 8.74409 6.14933 8.72005 6.2945C8.67909 6.44053 8.60716 6.535 8.48171 6.6195C8.27761 6.73217 8.02021 6.67822 7.80571 6.6234C7.41354 6.50163 7.10588 6.2594 6.90004 5.90407C6.77806 5.6614 6.72433 5.41873 6.72259 5.1479C6.72238 5.12385 6.72238 5.12385 6.72194 5.09915C6.72173 5.0647 6.72129 5.03025 6.72108 4.9958C6.72064 4.9412 6.72 4.8866 6.71935 4.83222C6.71783 4.6968 6.71653 4.56138 6.71523 4.42705C6.71414 4.31243 6.71306 4.19738 6.71176 4.08255C6.71111 4.0286 6.71068 3.97487 6.71025 3.92092C6.70981 3.8882 6.70938 3.85548 6.70916 3.82277C6.70894 3.80782 6.70894 3.79265 6.70873 3.77727C6.71371 3.70772 6.71371 3.70772 6.68338 3.6503C6.61794 3.64792 6.55316 3.64705 6.48773 3.64705C6.46736 3.64705 6.44678 3.64705 6.42554 3.64683C6.35708 3.64662 6.28861 3.64662 6.22014 3.64662C6.17248 3.64662 6.12481 3.6464 6.07715 3.6464C5.97683 3.64618 5.87651 3.64618 5.77598 3.64618C5.64836 3.64618 5.52031 3.64597 5.39248 3.64553C5.29368 3.64532 5.19509 3.64532 5.09564 3.64532C5.04863 3.64532 5.00161 3.6451 4.95459 3.6451C4.34359 3.64293 3.80409 3.69775 3.36643 4.16943L3.34086 4.1781ZM31.3342 26.1914C31.2495 26.2023 31.1665 26.2053 31.0807 26.2055C31.0655 26.2057 31.0506 26.2057 31.035 26.2057C30.9851 26.2059 30.9351 26.2062 30.885 26.2062C30.8491 26.2064 30.8131 26.2064 30.7769 26.2066C30.6996 26.207 30.6222 26.2072 30.5451 26.2075C30.4225 26.2077 30.3003 26.2083 30.1768 26.2088C29.8279 26.2103 29.4791 26.2116 29.1303 26.2127C28.9376 26.2133 28.7446 26.2142 28.5518 26.215C28.4302 26.2157 28.3091 26.2161 28.1878 26.2163C28.1117 26.2166 28.0357 26.2168 27.9603 26.2172C27.9254 26.2174 27.8903 26.2174 27.8554 26.2176C27.4329 26.2176 27.0776 26.2549 26.7591 26.5643C26.4557 26.8871 26.4016 27.21 26.4016 27.6411C26.4013 27.6767 26.4013 27.712 26.4011 27.7473C26.4007 27.8229 26.4007 27.8985 26.4005 27.9748C26.4005 28.0948 26.3998 28.2153 26.3994 28.3345C26.3983 28.5901 26.3977 28.8436 26.397 29.0993C26.3961 29.3745 26.3955 29.6496 26.3942 29.9248C26.3938 30.0438 26.3935 30.1631 26.3933 30.2823C26.3931 30.3566 26.3929 30.4312 26.3925 30.5055V30.608C26.3925 30.8333 26.3756 31.0521 26.3428 31.2753C26.4237 31.2627 26.4607 31.2304 26.5179 31.1732C26.5352 31.1557 26.5528 31.1384 26.5708 31.1204C26.5901 31.1011 26.6091 31.0818 26.6288 31.0619C26.6494 31.0413 26.67 31.0207 26.6906 31.0003C26.7474 30.9436 26.8037 30.8868 26.8602 30.83C26.9211 30.7689 26.9822 30.7078 27.0431 30.6467C27.1491 30.541 27.2546 30.4351 27.3594 30.3282C27.5122 30.1748 27.6649 30.0206 27.8188 29.8689C28.0658 29.6197 28.3149 29.3727 28.5619 29.1236C28.8024 28.8831 29.0429 28.6404 29.2834 28.3999L29.3283 28.3551C29.4904 28.1928 29.6533 28.0301 29.8136 27.8676L29.8567 27.8244C29.9135 27.7675 29.9705 27.7105 30.0273 27.6537C30.1939 27.4867 30.3609 27.32 30.5278 27.1532C30.6322 27.0486 30.7366 26.9439 30.8419 26.839C30.9022 26.7786 30.9626 26.7181 31.0228 26.6577C31.0779 26.6024 31.1329 26.5472 31.1882 26.4919C31.2178 26.4623 31.2473 26.4326 31.2768 26.4029L31.3294 26.3502C31.3446 26.3351 31.3595 26.3199 31.3751 26.3045C31.4124 26.2699 31.4124 26.2699 31.4557 26.2482V26.1832C31.4061 26.1821 31.4061 26.1821 31.3329 26.1938L31.3342 26.1914ZM32.0037 27.0603C31.9868 27.0769 31.9699 27.0936 31.9523 27.111C31.925 27.1385 31.925 27.1385 31.8971 27.1666L31.8405 27.2232C31.8009 27.2626 31.7615 27.3023 31.7218 27.3419C31.6611 27.4028 31.6003 27.4635 31.5394 27.5241C31.501 27.5625 31.4629 27.6008 31.4245 27.6392C31.4061 27.6574 31.3877 27.6758 31.3689 27.6944C31.3437 27.72 31.3437 27.72 31.3182 27.7458L31.2729 27.7911C31.2365 27.8255 31.2365 27.8255 31.2412 27.8717L31.1546 27.915V27.9583C31.1223 27.969 31.1223 27.969 31.0896 27.98V28.0233L31.0029 28.0667V28.11C30.9706 28.1206 30.9706 28.1206 30.9379 28.1317V28.175C30.9253 28.1802 30.9128 28.1856 30.9 28.1913C30.8441 28.2222 30.8066 28.2569 30.7646 28.305V28.3483C30.7516 28.3542 30.7386 28.36 30.7254 28.3661C30.6792 28.3908 30.6491 28.4149 30.6123 28.4515C30.6001 28.4636 30.588 28.4755 30.5756 28.4879C30.5564 28.5074 30.5564 28.5074 30.5366 28.5271L30.4963 28.5674C30.4682 28.5953 30.44 28.6235 30.4121 28.6517C30.3692 28.695 30.3258 28.7379 30.2827 28.781L30.2008 28.8629C30.1813 28.8822 30.1813 28.8822 30.1614 28.9019C30.0938 28.9609 30.0938 28.9609 30.0712 29.0417C30.039 29.0523 30.039 29.0523 30.0062 29.0633V29.1067L29.9196 29.15V29.1933C29.9077 29.1981 29.8955 29.2031 29.8834 29.2081C29.818 29.2449 29.772 29.2919 29.7192 29.345C29.6999 29.3641 29.6804 29.3834 29.6604 29.4031C29.6115 29.4475 29.6115 29.4475 29.6162 29.4967L29.5296 29.54V29.5833C29.4973 29.594 29.4973 29.594 29.4646 29.605V29.6483C29.4529 29.6529 29.441 29.6577 29.429 29.6624C29.3601 29.7016 29.3084 29.7547 29.2533 29.8108C29.2369 29.8271 29.2369 29.8271 29.22 29.8436C29.1584 29.8982 29.1584 29.8982 29.1396 29.9733C29.1181 29.9805 29.0967 29.9876 29.0746 29.995V30.0383L28.9879 30.0817V30.125C28.9665 30.1322 28.945 30.1393 28.9229 30.1467V30.19L28.8362 30.2333V30.2767C28.8235 30.2823 28.8109 30.2877 28.7979 30.2936C28.7457 30.3222 28.7101 30.3536 28.6683 30.3958C28.6549 30.4091 28.6417 30.4221 28.628 30.4357C28.5931 30.4693 28.5931 30.4693 28.5979 30.515C28.5765 30.5222 28.555 30.5293 28.5329 30.5367V30.58L28.4462 30.6233V30.6667C28.4248 30.6738 28.4033 30.681 28.3812 30.6883V30.7317L28.2946 30.775V30.8183C28.2818 30.824 28.2692 30.8296 28.2562 30.8352C28.2044 30.8634 28.17 30.894 28.1284 30.9356C28.1056 30.9581 28.1056 30.9581 28.0825 30.9811C28.0582 31.0053 28.0582 31.0053 28.0335 31.0302C28.0168 31.0469 28.0001 31.0636 27.9828 31.0807C27.9477 31.1158 27.9124 31.1511 27.8773 31.1865C27.8233 31.2406 27.7692 31.2948 27.7148 31.3487C27.6808 31.383 27.6465 31.4172 27.6123 31.4514C27.5878 31.4757 27.5878 31.4757 27.5629 31.5006C27.5479 31.5156 27.5332 31.5305 27.5178 31.5461L27.4777 31.5862C27.4448 31.6183 27.4448 31.6183 27.4496 31.6633L27.3629 31.7067V31.75C27.3501 31.7556 27.3373 31.7615 27.3241 31.7673C27.2745 31.7942 27.2414 31.8226 27.2013 31.8622C27.1881 31.8757 27.1746 31.8891 27.1608 31.9028C27.1402 31.9238 27.1402 31.9238 27.1192 31.945C27.1051 31.9589 27.091 31.9727 27.0765 31.987C27.0633 32.0005 27.0498 32.0139 27.0362 32.0276C27.018 32.0458 27.018 32.0458 26.9993 32.0646C26.9684 32.0952 26.9684 32.0952 26.9729 32.14C26.9515 32.1472 26.93 32.1543 26.9079 32.1617V32.205C26.8956 32.2102 26.8832 32.2156 26.8704 32.221C26.8126 32.2531 26.7725 32.2917 26.725 32.3376C26.023 32.9789 25.1044 32.9443 24.2117 32.9443C24.1073 32.9443 24.0028 32.9443 23.8975 32.9445H23.3494C23.0764 32.9445 22.8055 32.9447 22.5347 32.9447C22.0212 32.9449 21.5077 32.9449 20.9942 32.9449C20.5977 32.9451 20.2012 32.9451 19.8047 32.9451H19.4624H19.3761C18.5766 32.9454 17.7771 32.9454 16.9711 32.9454H16.8799H16.4683H16.2845H16.1927C15.2242 32.9454 14.2557 32.9456 13.2893 32.9458C13.0445 32.946 12.8018 32.946 12.557 32.946H12.5115C12.0478 32.9462 11.5842 32.9462 11.1205 32.9464H11.0763H10.0731H9.73079H9.64543C9.1926 32.9464 8.73976 32.9464 8.28693 32.9467C7.83193 32.9469 7.37693 32.9469 6.92193 32.9467C6.65109 32.9467 6.38243 32.9467 6.11159 32.9469C5.93089 32.9471 5.74976 32.9471 5.56993 32.9469C5.46723 32.9469 5.36431 32.9467 5.26226 32.9469C4.02076 32.9488 4.02076 32.9488 3.60909 32.7898C3.59436 32.7842 3.57963 32.7785 3.56468 32.7727C3.37574 32.6988 3.20501 32.6082 3.03384 32.4975C2.98466 32.4611 2.98466 32.4611 2.93699 32.465C2.97621 32.9157 3.12268 33.2948 3.45699 33.6133C3.83833 33.9297 4.25866 33.9947 4.73749 33.9925C4.78321 33.9925 4.82871 33.9927 4.87443 33.9927C4.99923 33.9932 5.12359 33.9929 5.24926 33.9927C5.38533 33.9923 5.52226 33.9927 5.65659 33.9929C5.89493 33.9932 6.13326 33.9932 6.37159 33.9927C6.62726 33.9925 6.88293 33.9925 7.13859 33.9925C7.16286 33.9927 7.16286 33.9927 7.18756 33.9927H7.38516C7.99833 33.9932 8.6115 33.9932 9.22466 33.9927C9.81616 33.9925 10.4055 33.9923 10.997 33.9923H11.1084C11.2574 33.9923 11.4074 33.9925 11.5547 33.9925H12.8049H12.8623C13.4668 33.9925 14.0713 33.9923 14.6758 33.9921H14.7351C15.0536 33.9919 15.3721 33.9919 15.6906 33.9916C16.9538 33.9912 18.2256 33.991 19.4823 33.9912C19.5623 33.9912 19.642 33.9912 19.7228 33.9914H19.7826H20.4391H20.4985C21.5385 33.9916 22.5785 33.9914 23.6185 33.9912H24.0648H24.2314C24.6388 33.991 25.0439 33.991 25.4513 33.991H25.5069C25.599 33.991 25.6913 33.9912 25.7843 33.9912C26.4516 33.9912 27.1168 33.9912 27.7819 33.9908C27.8474 33.9906 27.913 33.9906 27.9787 33.9906H28.0274C28.2831 33.9903 28.5366 33.9903 28.7923 33.9906C29.0436 33.9908 29.2949 33.9906 29.5441 33.9903C29.6782 33.9901 29.8128 33.9901 29.9471 33.9901C30.0691 33.9903 30.1919 33.9903 30.3133 33.9899C30.357 33.9899 30.401 33.9899 30.4448 33.9901C30.6679 33.9908 30.8716 33.9884 31.0861 33.9167C31.1104 33.9087 31.1349 33.9009 31.16 33.8926C31.3195 33.8276 31.4503 33.742 31.5847 33.6348C31.5985 33.6244 31.6126 33.6138 31.6271 33.6032C31.911 33.3822 32.0756 33.0095 32.1255 32.6607C32.1406 32.4743 32.1363 32.288 32.1352 32.0995V31.9316C32.1354 31.8118 32.135 31.6911 32.1346 31.5719C32.1339 31.3988 32.1337 31.2252 32.1335 31.0519C32.1333 30.7702 32.1328 30.4886 32.132 30.2091C32.1311 29.9361 32.1304 29.6631 32.1302 29.3901C32.1302 29.3732 32.1302 29.3563 32.13 29.3389C32.13 29.2542 32.1298 29.1697 32.1298 29.0854C32.1289 28.3856 32.1274 27.6858 32.1255 26.9838C32.0615 26.9838 32.0442 27.0161 31.9996 27.0607L32.0037 27.0603Z" fill="#000100"/>
<path d="M13.0269 12.965C13.065 12.9648 13.065 12.9648 13.1038 12.9646C13.1872 12.9643 13.2706 12.9643 13.353 12.9643C13.3965 12.9643 13.4403 12.9643 13.4838 12.9641C13.6205 12.9639 13.7568 12.9639 13.8933 12.9641C14.0339 12.9643 14.175 12.9639 14.3137 12.9635C14.435 12.963 14.5563 12.963 14.6777 12.963C14.7496 12.963 14.8217 12.963 14.8939 12.9628C14.9745 12.9624 15.0551 12.9626 15.1366 12.9628C15.16 12.9626 15.1834 12.9626 15.2076 12.9624C15.4676 12.9641 15.693 13.0137 15.9075 13.1658C15.9415 13.1901 15.9415 13.1901 15.9764 13.2146C16.1597 13.394 16.2862 13.6306 16.3014 13.8906C16.3014 13.9188 16.3014 13.9188 16.3016 13.9474C16.3016 13.9688 16.3018 13.9905 16.3018 14.0128C16.3018 14.0479 16.3018 14.0479 16.302 14.0839C16.302 14.1086 16.3022 14.1335 16.3022 14.1593C16.3027 14.2416 16.3027 14.3239 16.3029 14.4063C16.3029 14.4492 16.3031 14.4921 16.3031 14.535C16.3033 14.6546 16.3035 14.7733 16.3035 14.8946C16.3037 15.0487 16.3042 15.2023 16.3048 15.3561C16.3053 15.4755 16.3055 15.5945 16.3055 15.7136C16.3055 15.7847 16.3057 15.8558 16.3059 15.9268C16.3098 16.7458 16.3098 16.7458 16.0329 17.0557C15.7837 17.2962 15.4999 17.3525 15.1662 17.3525C15.127 17.3527 15.127 17.3527 15.0872 17.3527C15.0161 17.3531 14.945 17.3531 14.874 17.3531H14.6954C14.5548 17.3536 14.4138 17.3536 14.2729 17.3534C14.1284 17.3531 13.9848 17.3536 13.8396 17.354C13.715 17.3544 13.5904 17.3544 13.4669 17.3544C13.3928 17.3544 13.3185 17.3544 13.2438 17.3547C13.161 17.3551 13.078 17.3549 12.9946 17.3547C12.9703 17.3547 12.9461 17.3549 12.9211 17.3551C12.6286 17.3531 12.3708 17.2524 12.1606 17.0431C11.9503 16.7636 11.8963 16.4928 11.8963 16.1504C11.8963 16.1147 11.8963 16.1147 11.8961 16.0783C11.8957 15.9996 11.8957 15.9212 11.8954 15.8421C11.8954 15.8152 11.8954 15.7882 11.8952 15.7604C11.895 15.6324 11.8948 15.5048 11.8948 15.3769C11.8946 15.23 11.8941 15.0823 11.8937 14.9371C11.8931 14.809 11.8928 14.6814 11.8928 14.5536C11.8928 14.4996 11.8926 14.4455 11.8924 14.3915C11.8883 13.5769 11.8883 13.5769 12.1957 13.2475C12.4384 13.02 12.7071 12.9659 13.0277 12.9659L13.0269 12.965ZM12.9183 13.9682V16.3515C13.3083 16.3521 13.6962 16.3526 14.097 16.353C14.2818 16.3532 14.2818 16.3532 14.4697 16.3534C14.5795 16.3537 14.5795 16.3537 14.6907 16.3537C14.7396 16.3537 14.7888 16.3539 14.838 16.3539C14.9121 16.3541 14.9864 16.3541 15.0612 16.3541C15.0941 16.3541 15.0941 16.3541 15.1279 16.3543C15.1478 16.3543 15.1675 16.3543 15.1881 16.3541C15.2141 16.3543 15.2141 16.3543 15.2408 16.3543C15.2806 16.3558 15.2806 16.3558 15.3021 16.3298C15.304 16.2995 15.3047 16.2692 15.3047 16.2386C15.3049 16.2189 15.3049 16.1992 15.3049 16.179C15.3049 16.1571 15.3049 16.1355 15.3047 16.1129C15.3049 16.0902 15.3049 16.0674 15.3049 16.044V15.8165V15.6592V15.3299C15.3047 15.1886 15.3047 15.0482 15.3049 14.9052V14.5802V14.4238C15.3049 14.3512 15.3049 14.2784 15.3047 14.205C15.3049 14.1723 15.3049 14.1723 15.3049 14.1389C15.3049 14.1094 15.3049 14.1094 15.3047 14.0793V14.0271C15.3062 13.9874 15.3062 13.9874 15.2804 13.9662C15.2497 13.9643 15.2189 13.9636 15.1881 13.9636H15.1279C15.1058 13.9636 15.0837 13.9638 15.0612 13.9638H14.9901C14.914 13.9638 14.8378 13.964 14.7604 13.9643H14.6198C14.4456 13.9645 14.271 13.9647 14.0976 13.9649C13.7076 13.9653 13.3198 13.9658 12.919 13.9662L12.9183 13.9682Z" fill="#000100"/>
<path d="M13.027 19.2483C13.0524 19.2483 13.0779 19.2481 13.1042 19.2481C13.1878 19.2479 13.2712 19.2481 13.3555 19.2481H13.5308C13.6532 19.2479 13.7756 19.2481 13.8969 19.2483C14.0378 19.2485 14.1786 19.2485 14.3194 19.2481C14.4408 19.2481 14.5621 19.2479 14.6834 19.2481H14.9001C14.9809 19.2479 15.0615 19.2481 15.1428 19.2483C15.1664 19.2483 15.1898 19.2481 15.2141 19.2481C15.5152 19.2496 15.7752 19.3094 16.0027 19.5189C16.1856 19.7159 16.2996 19.9609 16.3017 20.2318C16.3019 20.2536 16.3022 20.2755 16.3022 20.2981V20.3698C16.3024 20.3951 16.3024 20.4203 16.3026 20.446C16.3028 20.5295 16.303 20.6127 16.3032 20.6952C16.3032 20.7385 16.3035 20.7819 16.3035 20.8252C16.3037 20.9461 16.3039 21.0679 16.3039 21.187C16.3041 21.3426 16.3043 21.499 16.305 21.655C16.3056 21.7757 16.3058 21.8955 16.3058 22.0169C16.3058 22.0888 16.3058 22.1607 16.3063 22.2325C16.3067 22.3131 16.3067 22.3934 16.3065 22.473C16.3067 22.4964 16.3069 22.5198 16.3071 22.5438C16.3054 22.8645 16.2114 23.1331 15.9951 23.3693C15.7568 23.5881 15.4795 23.6358 15.1653 23.6358C15.1263 23.636 15.1263 23.636 15.0864 23.6362C15.0156 23.6367 14.9447 23.6367 14.8739 23.6367C14.8293 23.6367 14.7848 23.6369 14.7404 23.6369C14.5851 23.6373 14.4306 23.6375 14.2746 23.6375C14.1303 23.6375 13.9864 23.638 13.8413 23.6386C13.7169 23.6393 13.5921 23.6395 13.4686 23.6395C13.3945 23.6395 13.3204 23.6395 13.2476 23.6399C13.1648 23.6404 13.0821 23.6404 13.0006 23.6399C12.9765 23.6404 12.9523 23.6406 12.9276 23.6408C12.6307 23.6384 12.3989 23.5325 12.1822 23.3375C11.9396 23.084 11.8962 22.7611 11.8962 22.4231C11.896 22.3874 11.896 22.3874 11.8958 22.351C11.8956 22.2728 11.8956 22.1948 11.8956 22.117C11.8956 22.0624 11.8954 22.0076 11.8954 21.9527C11.8952 21.8383 11.8952 21.7231 11.8954 21.6104C11.8954 21.4789 11.8952 21.3482 11.8947 21.2161C11.8943 21.0885 11.8943 20.9604 11.8943 20.8326C11.8943 20.7788 11.8943 20.7249 11.8941 20.6712C11.891 19.8587 11.891 19.8587 12.1974 19.5293C12.4401 19.2997 12.7087 19.2477 13.0294 19.2477L13.027 19.2483ZM12.9176 20.2515V22.6348C13.3076 22.6352 13.6954 22.6357 14.0963 22.6361C14.2809 22.6363 14.2809 22.6363 14.4689 22.6368H14.6878C14.737 22.637 14.7861 22.637 14.8353 22.637C14.9094 22.6372 14.9837 22.6372 15.0585 22.6372C15.0916 22.6374 15.0916 22.6374 15.1254 22.6374H15.1857H15.2383C15.2782 22.6391 15.2782 22.6391 15.2994 22.6131C15.3016 22.5828 15.3022 22.5523 15.3022 22.5219C15.3022 22.5022 15.3025 22.4825 15.3025 22.4621C15.3025 22.4405 15.3025 22.4186 15.3022 22.3963C15.3022 22.3735 15.3025 22.3505 15.3025 22.3271V22.0996V21.9426C15.3025 21.8325 15.3025 21.7216 15.3022 21.6132C15.3022 21.4717 15.3022 21.3316 15.3025 21.1886V20.8636V20.7073C15.3025 20.6345 15.3025 20.562 15.3022 20.4885C15.3025 20.4558 15.3025 20.4558 15.3025 20.4226C15.3022 20.393 15.3022 20.393 15.3022 20.3628V20.3108C15.3038 20.2712 15.3038 20.2712 15.2778 20.25C15.2472 20.2478 15.2164 20.2474 15.1857 20.2474C15.1657 20.2474 15.1458 20.2474 15.1254 20.2471C15.1033 20.2474 15.0812 20.2474 15.0585 20.2476C15.0234 20.2476 15.0234 20.2476 14.9876 20.2474C14.9114 20.2476 14.8353 20.2476 14.758 20.2478H14.6174C14.4432 20.248 14.2685 20.2482 14.0952 20.2487C13.7052 20.2491 13.3174 20.2495 12.9165 20.25L12.9176 20.2515Z" fill="#000100"/>
<path d="M13.0263 25.5316C13.0519 25.5316 13.0777 25.5314 13.1041 25.5314C13.1743 25.5312 13.2445 25.5312 13.3145 25.5312C13.3585 25.5312 13.4024 25.5312 13.4462 25.531C13.5998 25.5308 13.7539 25.5308 13.9077 25.5308C14.0503 25.5308 14.1937 25.5306 14.3367 25.5301C14.4596 25.5299 14.5815 25.5299 14.705 25.5299C14.7783 25.5299 14.8515 25.5297 14.9239 25.5295C15.0058 25.5293 15.0875 25.5295 15.1687 25.5295C15.1925 25.5295 15.2164 25.5293 15.2411 25.5293C15.5466 25.5303 15.7957 25.6034 16.0232 25.8153C16.1983 26.009 16.3049 26.2486 16.3049 26.5108C16.3051 26.5435 16.3051 26.5435 16.3051 26.5766V26.6481C16.3053 26.673 16.3053 26.6982 16.3053 26.724C16.3056 26.8067 16.3056 26.8895 16.3056 26.9731C16.3058 27.0162 16.3058 27.0594 16.3058 27.1023C16.306 27.2377 16.306 27.3731 16.306 27.5096C16.306 27.6489 16.3062 27.7891 16.3066 27.9278C16.3069 28.0478 16.3071 28.1683 16.3071 28.2874C16.3071 28.3589 16.3071 28.4304 16.3073 28.5019C16.3075 28.5817 16.3075 28.6616 16.3073 28.7403C16.3075 28.7637 16.3075 28.7871 16.3077 28.8111C16.3064 29.1123 16.2293 29.4156 16.0152 29.6409C15.7552 29.8641 15.4909 29.9139 15.1572 29.9161C15.1189 29.9163 15.1189 29.9163 15.0799 29.9165C14.9954 29.917 14.9109 29.9172 14.8264 29.9174C14.7971 29.9176 14.7679 29.9176 14.7388 29.9178C14.6013 29.9181 14.4637 29.9185 14.3272 29.9187C14.1692 29.9189 14.0108 29.9194 13.8527 29.9202C13.73 29.9209 13.6078 29.9213 13.4843 29.9213C13.4113 29.9213 13.3383 29.9217 13.2655 29.9222C13.1838 29.9226 13.1021 29.9226 13.0207 29.9226C12.9968 29.9228 12.9732 29.923 12.9487 29.9233C12.6432 29.9213 12.4006 29.8206 12.1796 29.6156C11.9347 29.3621 11.8979 29.0501 11.8979 28.7143C11.8977 28.6785 11.8977 28.6785 11.8975 28.6421C11.8973 28.5637 11.897 28.485 11.8968 28.4059C11.8968 28.3791 11.8968 28.352 11.8966 28.3243C11.8964 28.1962 11.8962 28.0686 11.8962 27.9408C11.896 27.7939 11.8957 27.6461 11.8951 27.5009C11.8944 27.3729 11.8942 27.2453 11.8942 27.1174C11.8942 27.0635 11.894 27.0093 11.8938 26.9554C11.8916 26.5069 11.897 26.145 12.2188 25.8027C12.455 25.5774 12.7085 25.534 13.0248 25.534L13.0263 25.5316ZM12.9221 26.5326V28.916H15.2838C15.2989 28.8397 15.308 28.7842 15.308 28.7091C15.3082 28.69 15.3082 28.6709 15.3082 28.6512V28.5888V28.5223C15.3085 28.4497 15.3082 28.3773 15.3082 28.3056V28.1548V27.8385C15.308 27.7031 15.308 27.5677 15.3082 27.4333V27.1213V26.9716C15.3085 26.9021 15.3082 26.8325 15.3082 26.763V26.6997C15.3082 26.6715 15.3082 26.6715 15.308 26.6427V26.5929C15.3093 26.5545 15.3093 26.5545 15.2838 26.5337C15.253 26.5316 15.2222 26.5309 15.1915 26.5311C15.1715 26.5309 15.1518 26.5309 15.1312 26.5309C15.1091 26.5309 15.0872 26.5311 15.0645 26.5311H14.9934C14.9174 26.5311 14.8411 26.5313 14.7659 26.5316H14.6253C14.4509 26.5318 14.2765 26.532 14.1031 26.5322C13.7131 26.5326 13.3253 26.5331 12.9245 26.5337L12.9221 26.5326Z" fill="#000100"/>
<path d="M26.806 19.4C26.8448 19.3998 26.8448 19.3998 26.8842 19.3996C26.9544 19.3993 27.0248 19.3993 27.095 19.3993C27.154 19.3993 27.2129 19.3993 27.2718 19.3991C27.4111 19.3989 27.5513 19.3989 27.69 19.3991C27.833 19.3993 27.976 19.3989 28.119 19.3985C28.2425 19.398 28.366 19.398 28.4895 19.398C28.5629 19.398 28.6364 19.398 28.7105 19.3978C28.7924 19.3974 28.8745 19.3976 28.9575 19.3978C28.9815 19.3976 29.0054 19.3976 29.0299 19.3974C29.3202 19.3993 29.5802 19.4724 29.8012 19.6661C30.0439 19.9196 30.1045 20.2121 30.1024 20.5522C30.1026 20.5893 30.1026 20.5893 30.1028 20.6274C30.1028 20.7089 30.1028 20.7903 30.1026 20.8722C30.1026 20.9292 30.1026 20.9862 30.1028 21.0432C30.1028 21.1624 30.1028 21.2815 30.1026 21.4007C30.1024 21.5381 30.1024 21.6759 30.1026 21.8124C30.1028 21.9452 30.1028 22.0767 30.1026 22.211C30.1026 22.2672 30.1026 22.3233 30.1028 22.3794C30.1028 22.458 30.1028 22.5367 30.1024 22.6156C30.1026 22.6387 30.1026 22.6617 30.1028 22.6853C30.1011 22.9822 30.0289 23.2487 29.8363 23.4805C29.5806 23.7275 29.3098 23.7903 28.9631 23.7903C28.9241 23.7905 28.9241 23.7905 28.8843 23.7908C28.8134 23.791 28.7426 23.7912 28.6717 23.7912C28.6273 23.7912 28.5829 23.7912 28.5385 23.7914C28.3829 23.7918 28.2265 23.7921 28.0726 23.7921C27.9285 23.7918 27.7845 23.7925 27.6393 23.7931C27.5149 23.7936 27.3901 23.7938 27.2666 23.7938C27.1925 23.7938 27.1186 23.794 27.0456 23.7944C26.9629 23.7949 26.8803 23.7947 26.7986 23.7944C26.7746 23.7947 26.7505 23.7949 26.7256 23.7951C26.4461 23.7929 26.2186 23.7004 26.0106 23.5156C25.6596 23.1169 25.6964 22.6793 25.6964 22.1744C25.6962 22.1235 25.6962 22.0726 25.6962 22.0217C25.696 21.9157 25.696 21.8096 25.696 21.7032C25.696 21.5678 25.6958 21.4323 25.6954 21.2958C25.6951 21.191 25.6951 21.0861 25.6951 20.9817C25.6951 20.9316 25.6949 20.8818 25.6947 20.8319C25.6923 20.0021 25.6923 20.0021 25.998 19.6771C26.2429 19.4518 26.4877 19.3998 26.8105 19.3998L26.806 19.4ZM26.7148 20.4032C26.6894 20.4539 26.6903 20.4833 26.6903 20.5397C26.6903 20.5592 26.6901 20.5787 26.6901 20.5988C26.6901 20.6203 26.6901 20.6419 26.6903 20.664C26.6901 20.6866 26.6901 20.7091 26.6901 20.7325V20.9578V21.1134C26.6901 21.2222 26.6901 21.3301 26.6903 21.4406C26.6903 21.5803 26.6903 21.7201 26.6901 21.8609V22.1816V22.3363C26.6901 22.4082 26.6901 22.4801 26.6903 22.5521C26.6901 22.5735 26.6901 22.5952 26.6901 22.6173C26.6901 22.6368 26.6903 22.6563 26.6903 22.6764V22.728C26.6888 22.7672 26.6888 22.7672 26.7148 22.7882C26.7453 22.7904 26.7761 22.791 26.8069 22.7908C26.8268 22.791 26.8467 22.791 26.8673 22.791C26.8892 22.791 26.9113 22.7908 26.934 22.7908H27.0038C27.0803 22.7908 27.1568 22.7906 27.2335 22.7904H27.3921C27.5318 22.7902 27.6716 22.79 27.8102 22.7898C27.9526 22.7895 28.0941 22.7895 28.2371 22.7893C28.5166 22.7891 28.7961 22.7889 29.0756 22.7882C29.0949 22.5022 29.1003 22.2162 29.1001 21.9302V21.7994V21.5285C29.0998 21.4124 29.0998 21.2967 29.1001 21.1797V20.911V20.7823V20.6042V20.5503C29.1072 20.4712 29.1072 20.4712 29.0756 20.4051C29.0448 20.4032 29.014 20.4025 28.9833 20.4025H28.9228C28.9009 20.4025 28.8788 20.4027 28.8563 20.4027H28.7863C28.7098 20.4027 28.6334 20.4029 28.5567 20.4032H28.3981C28.2583 20.4034 28.1186 20.4034 27.9799 20.4038C27.8375 20.404 27.6961 20.404 27.5531 20.4042C27.2736 20.4045 26.9941 20.4047 26.7146 20.4051L26.7148 20.4032Z" fill="#000100"/>
<path d="M26.8275 12.965C26.8657 12.9648 26.8657 12.9648 26.9045 12.9645C26.9874 12.9643 27.0704 12.9645 27.1536 12.9648C27.2117 12.9648 27.27 12.9645 27.3283 12.9645C27.45 12.9645 27.5709 12.9645 27.6923 12.965C27.8322 12.9652 27.9718 12.9652 28.1126 12.9648C28.2335 12.9645 28.3553 12.9645 28.4766 12.9645C28.5485 12.9648 28.6202 12.9648 28.6922 12.9645C28.7726 12.9643 28.8527 12.9645 28.9327 12.965C28.9561 12.9648 28.9793 12.9648 29.0033 12.9645C29.2633 12.9667 29.4886 13.0159 29.701 13.1684C29.7146 13.1775 29.7281 13.1864 29.7421 13.1957C29.961 13.3591 30.0455 13.6052 30.091 13.8609C30.099 13.9495 30.0999 14.0373 30.0992 14.1252C30.0992 14.1501 30.0992 14.1748 30.0994 14.2004C30.0996 14.2817 30.0992 14.3627 30.099 14.4431V14.6136C30.099 14.7325 30.0988 14.8519 30.0983 14.9689C30.0979 15.1059 30.0979 15.2419 30.0979 15.3784C30.0981 15.5108 30.0979 15.6428 30.0977 15.7749V15.9428C30.0977 16.0213 30.0975 16.0995 30.097 16.1768C30.097 16.1996 30.097 16.2226 30.0973 16.2462C30.0949 16.5603 30.0119 16.8398 29.7983 17.076C29.5599 17.2992 29.2696 17.349 28.9576 17.349C28.9184 17.3492 28.9184 17.3492 28.8785 17.3494C28.8074 17.3497 28.7364 17.3497 28.6653 17.3497C28.6057 17.3497 28.5461 17.3497 28.4868 17.3499C28.3462 17.3501 28.2051 17.3501 28.0643 17.3499C27.9198 17.3499 27.7761 17.3501 27.6309 17.3505C27.5064 17.351 27.3818 17.3512 27.2583 17.351C27.184 17.351 27.1099 17.351 27.0351 17.3514C26.9521 17.3516 26.8694 17.3514 26.7859 17.3512C26.7617 17.3514 26.7374 17.3516 26.7125 17.3516C26.42 17.3497 26.1622 17.2489 25.952 17.0396C25.6552 16.6453 25.6877 16.2228 25.6877 15.7526C25.6874 15.7013 25.6874 15.6499 25.6874 15.5986C25.6872 15.4911 25.6872 15.3838 25.6872 15.2757C25.6872 15.1388 25.687 15.0027 25.6866 14.8641C25.6864 14.7579 25.6864 14.6519 25.6864 14.5456C25.6861 14.4951 25.6861 14.4446 25.6859 14.3943C25.6835 13.5602 25.6835 13.5602 25.9806 13.246C26.2298 13.0185 26.4963 12.9535 26.8256 12.9557L26.8275 12.965ZM26.7114 13.9703C26.6863 14.0208 26.6871 14.0503 26.6871 14.1066C26.6869 14.1263 26.6869 14.1458 26.6869 14.166C26.6869 14.1874 26.6869 14.2089 26.6871 14.231C26.6869 14.2535 26.6869 14.2762 26.6869 14.2994V14.5248V14.6805V15.0077C26.6871 15.1475 26.6871 15.2872 26.6869 15.428V15.7487V15.9034C26.6869 15.9753 26.6869 16.0473 26.6871 16.119C26.6869 16.1407 26.6869 16.1621 26.6869 16.1844C26.6869 16.2037 26.6869 16.2232 26.6871 16.2434V16.2949C26.6856 16.3341 26.6856 16.3341 26.7114 16.3554C26.7422 16.3573 26.7729 16.358 26.8037 16.358H26.8642C26.886 16.358 26.9081 16.358 26.9307 16.3578H27.0007C27.0771 16.3578 27.1536 16.3575 27.2303 16.3575C27.2832 16.3573 27.3361 16.3573 27.3889 16.3573C27.5287 16.3573 27.6684 16.3571 27.8071 16.3569C27.9494 16.3567 28.0909 16.3565 28.2339 16.3565C28.5134 16.3562 28.7929 16.3558 29.0724 16.3554C29.0902 16.2158 29.0973 16.0802 29.0969 15.9394C29.0971 15.9184 29.0971 15.8971 29.0971 15.8755V15.6679V15.5232V15.2198C29.0969 15.0905 29.0969 14.9598 29.0971 14.832V14.533V14.3898C29.0971 14.3233 29.0971 14.257 29.0969 14.1904C29.0971 14.1605 29.0971 14.1605 29.0971 14.1302C29.1056 14.0433 29.1056 14.0433 29.0724 13.9705C29.0419 13.9684 29.0111 13.9679 28.9803 13.9679C28.9604 13.9679 28.9405 13.9679 28.9199 13.9677C28.898 13.9679 28.8759 13.9679 28.8534 13.9679H28.7834C28.7069 13.9679 28.6304 13.9681 28.5537 13.9684H28.3951C28.2554 13.9686 28.1156 13.9688 27.977 13.969C27.8346 13.9692 27.6931 13.9692 27.5501 13.9694C27.2706 13.9697 26.9911 13.9701 26.7116 13.9705L26.7114 13.9703Z" fill="#000100"/>
<path d="M19.9378 12.965C19.976 12.9648 19.976 12.9648 20.0148 12.9645C20.0982 12.9643 20.1816 12.9643 20.2661 12.9643C20.3096 12.9643 20.3532 12.9643 20.3967 12.9641C20.5337 12.9639 20.6697 12.9639 20.8084 12.9641C20.9488 12.9643 21.0901 12.9639 21.2287 12.9635C21.3499 12.963 21.4714 12.963 21.5927 12.963C21.6649 12.963 21.737 12.963 21.8092 12.9628C21.8898 12.9624 21.9702 12.9626 22.0519 12.9628C22.0755 12.9626 22.0989 12.9626 22.1229 12.9624C22.4176 12.9643 22.6928 13.0415 22.9116 13.2462C23.1283 13.4802 23.1976 13.7315 23.1954 14.0435C23.1956 14.07 23.1956 14.0964 23.1959 14.1237C23.1963 14.1954 23.1963 14.2674 23.1961 14.3393C23.1961 14.3995 23.1961 14.4598 23.1963 14.52C23.1965 14.6626 23.1965 14.806 23.1963 14.9468C23.1961 15.0929 23.1963 15.2393 23.1969 15.3845C23.1974 15.5106 23.1976 15.6358 23.1974 15.7637C23.1974 15.8388 23.1974 15.9138 23.1978 15.989C23.1982 16.0728 23.1978 16.1567 23.1976 16.2403C23.1978 16.2769 23.1978 16.2769 23.1982 16.3142C23.1956 16.585 23.1218 16.8104 22.9491 17.0205C22.9376 17.0346 22.9263 17.0487 22.9146 17.0632C22.7552 17.2413 22.5181 17.3341 22.282 17.3492C22.2133 17.351 22.1446 17.3514 22.0759 17.3514C22.0369 17.3516 22.0369 17.3516 21.997 17.3518C21.9262 17.352 21.8556 17.3523 21.7847 17.3523C21.7403 17.3523 21.6959 17.3523 21.6517 17.3525C21.4963 17.3529 21.3418 17.3531 21.1858 17.3531C21.0418 17.3529 20.8977 17.3536 20.7547 17.3542C20.6303 17.3546 20.5055 17.3549 20.382 17.3549C20.3081 17.3549 20.2342 17.3551 20.161 17.3555C20.0785 17.3559 19.9959 17.3557 19.914 17.3555C19.8902 17.3557 19.8661 17.3559 19.8414 17.3562C19.5468 17.354 19.3041 17.2639 19.0896 17.0615C18.8599 16.8188 18.8058 16.561 18.8058 16.236C18.8055 16.2102 18.8053 16.1844 18.8053 16.1578C18.8049 16.0876 18.8047 16.0174 18.8047 15.9472C18.8047 15.9032 18.8047 15.8592 18.8045 15.8152C18.804 15.6612 18.8038 15.5076 18.804 15.3537C18.804 15.2109 18.8036 15.0677 18.8027 14.9247C18.8023 14.8014 18.8021 14.6777 18.8021 14.5542C18.8021 14.481 18.8019 14.4075 18.8014 14.3332C18.801 14.2513 18.8012 14.1692 18.8014 14.0862C18.8012 14.0624 18.801 14.0386 18.8008 14.0141C18.8029 13.7216 18.8965 13.4572 19.0954 13.2406C19.3424 13.0066 19.6111 12.9589 19.9404 12.9589L19.9378 12.965ZM19.8048 13.9681V16.3515H22.1881V13.9681H19.8048Z" fill="#000100"/>
<path d="M6.13696 19.2483C6.16231 19.2483 6.18788 19.2481 6.2141 19.2481C6.29795 19.2479 6.38201 19.2479 6.46543 19.2479C6.49446 19.2479 6.52371 19.2477 6.55275 19.2477C6.70485 19.2474 6.85608 19.2474 7.00991 19.2474C7.15118 19.2474 7.29158 19.2472 7.43458 19.2468C7.55635 19.2466 7.67725 19.2466 7.80075 19.2466C7.87311 19.2466 7.9457 19.2464 8.01741 19.2461C8.09845 19.2459 8.17926 19.2461 8.26008 19.2461C8.28391 19.2461 8.30753 19.2459 8.33201 19.2459C8.65051 19.2472 8.89101 19.322 9.12501 19.5428C9.34016 19.7768 9.40235 20.0173 9.40018 20.3271C9.4004 20.3537 9.40061 20.3802 9.40083 20.4077C9.40126 20.4801 9.40148 20.5524 9.40126 20.6244C9.40126 20.685 9.40148 20.7457 9.4017 20.8064C9.40213 20.9498 9.40213 21.0924 9.40213 21.2375C9.40191 21.3846 9.40235 21.5322 9.40321 21.6795C9.40386 21.8067 9.40408 21.933 9.40408 22.0609C9.40408 22.1365 9.40408 22.2121 9.40473 22.2884C9.4095 23.0359 9.4095 23.0359 9.13173 23.3262C8.9129 23.5472 8.65723 23.636 8.3474 23.6382C8.32335 23.6382 8.2993 23.638 8.2746 23.638C8.2356 23.6382 8.2356 23.6382 8.19573 23.6384C8.1251 23.6388 8.05446 23.6388 7.98405 23.6386C7.92468 23.6386 7.86553 23.6386 7.80616 23.6388C7.6662 23.6391 7.52666 23.6391 7.38583 23.6388C7.24218 23.6386 7.09766 23.6388 6.95466 23.6395C6.83051 23.6399 6.70766 23.6401 6.582 23.6399C6.50811 23.6399 6.43445 23.6399 6.361 23.6404C6.27866 23.6406 6.19611 23.6404 6.114 23.6401C6.09016 23.6404 6.06611 23.6406 6.04141 23.6408C5.76191 23.6382 5.52575 23.5576 5.31775 23.37C5.07941 23.1208 5.00791 22.8586 5.00791 22.5228C5.00791 22.497 5.0077 22.4712 5.00748 22.4448C5.00726 22.3744 5.00705 22.3042 5.00705 22.2338C5.00705 22.1898 5.00683 22.1458 5.00683 22.1016C5.0064 21.9475 5.00618 21.7939 5.00618 21.6401C5.0064 21.4971 5.00575 21.3541 5.0051 21.2111C5.00466 21.0878 5.00445 20.9641 5.00445 20.8406C5.00445 20.7674 5.00423 20.6939 5.0038 20.6196C5.00336 20.5375 5.00358 20.4554 5.0038 20.3726C5.00358 20.3488 5.00336 20.3249 5.00293 20.3002C5.00488 20.0619 5.06381 19.8344 5.2092 19.6416C5.21895 19.6283 5.22848 19.6153 5.23823 19.6019C5.38058 19.421 5.6044 19.2877 5.83406 19.2552C5.93525 19.2459 6.03686 19.2477 6.1374 19.2477L6.13696 19.2483ZM6.01043 20.2493V22.6326H8.39376V20.2493H6.01043Z" fill="#000100"/>
<path d="M6.13565 12.965C6.17378 12.9648 6.17378 12.9648 6.21257 12.9646C6.29598 12.9643 6.3794 12.9643 6.4639 12.9643C6.50745 12.9643 6.551 12.9643 6.59455 12.9641C6.73148 12.9639 6.86755 12.9639 7.00622 12.9641C7.14662 12.9643 7.28788 12.9639 7.42655 12.9635C7.54767 12.963 7.66922 12.963 7.79055 12.963C7.8627 12.963 7.93485 12.963 8.007 12.9628C8.0876 12.9624 8.16798 12.9626 8.24967 12.9628C8.27328 12.9626 8.29668 12.9626 8.32073 12.9624C8.61757 12.9643 8.89273 13.0417 9.11157 13.2506C9.32455 13.4802 9.39757 13.7402 9.3954 14.0501C9.39562 14.0765 9.39583 14.1029 9.39583 14.13C9.39627 14.2017 9.39627 14.2734 9.39583 14.3452C9.39562 14.4206 9.39583 14.4962 9.39605 14.5727C9.39627 14.6994 9.39605 14.8262 9.39562 14.954C9.39518 15.0998 9.39518 15.2465 9.39562 15.3917C9.39605 15.5175 9.39627 15.643 9.39583 15.7687C9.39583 15.8436 9.39583 15.9186 9.39605 15.994C9.39627 16.0776 9.39605 16.1613 9.3954 16.2453C9.39562 16.2696 9.39583 16.2939 9.39605 16.319C9.39302 16.6072 9.30678 16.8455 9.11655 17.06C8.91462 17.2381 8.70055 17.3503 8.42538 17.3525C8.40285 17.3525 8.38032 17.3527 8.35692 17.3527C8.32008 17.3527 8.32008 17.3527 8.2826 17.3529C8.24338 17.3529 8.24338 17.3529 8.20373 17.3531C8.13223 17.3534 8.06095 17.3536 7.98967 17.3536C7.94503 17.3538 7.9004 17.3538 7.85577 17.354C7.7158 17.3542 7.57627 17.3544 7.43543 17.3544C7.27445 17.3547 7.1126 17.3551 6.95227 17.3555C6.82747 17.3562 6.7031 17.3564 6.57743 17.3564C6.5029 17.3564 6.42858 17.3564 6.35427 17.3568C6.27107 17.3573 6.18787 17.3573 6.1051 17.357C6.08083 17.3573 6.05657 17.3575 6.03143 17.3577C5.74327 17.3562 5.5136 17.2784 5.2991 17.0825C5.06727 16.8399 5.0001 16.569 5.0001 16.2419C4.99988 16.2161 4.99967 16.1903 4.99967 16.1636C4.99923 16.0934 4.99902 16.0232 4.99902 15.9528C4.99902 15.9088 4.99902 15.8646 4.9988 15.8207C4.99837 15.6666 4.99815 15.513 4.99837 15.3592C4.99837 15.2162 4.99793 15.0732 4.99707 14.9302C4.99663 14.8069 4.99642 14.6832 4.99642 14.5597C4.99642 14.4862 4.9962 14.413 4.99577 14.3387C4.99533 14.2565 4.99555 14.1744 4.99577 14.0917C4.99555 14.0678 4.99533 14.044 4.99512 14.0193C4.99728 13.7268 5.09088 13.4625 5.28978 13.2458C5.53678 13.0118 5.80545 12.9641 6.13478 12.9641L6.13565 12.965ZM6.00262 13.9682V16.3515H8.38595V13.9682H6.00262Z" fill="#000100"/>
<path d="M19.9383 19.2483C19.9634 19.2483 19.9888 19.2481 20.0148 19.2481C20.0975 19.2479 20.1803 19.2481 20.2639 19.2481H20.4377C20.5588 19.2479 20.6804 19.2481 20.8017 19.2483C20.9412 19.2485 21.0812 19.2485 21.2199 19.2481C21.3401 19.2481 21.4604 19.2479 21.5817 19.2481H21.7966C21.8766 19.2479 21.9563 19.2481 22.0371 19.2483C22.0605 19.2483 22.0839 19.2481 22.108 19.2481C22.433 19.2498 22.6822 19.3183 22.9227 19.5471C23.1378 19.7789 23.2 20.0194 23.1978 20.3293C23.198 20.3689 23.198 20.3689 23.1983 20.4094C23.1985 20.4816 23.1983 20.5535 23.198 20.6257C23.198 20.7013 23.198 20.7771 23.1983 20.8532C23.1983 20.9804 23.1983 21.1088 23.1978 21.2345C23.1976 21.381 23.1976 21.527 23.198 21.6743C23.1983 21.8009 23.1983 21.9278 23.1983 22.0535C23.198 22.1289 23.198 22.2041 23.1983 22.2788C23.1985 22.3629 23.1983 22.4468 23.1978 22.5302C23.198 22.5547 23.198 22.5794 23.1983 22.6045C23.1959 22.9057 23.1066 23.1418 22.9014 23.365C22.6696 23.5808 22.3793 23.638 22.0716 23.638C22.0326 23.6382 22.0326 23.6382 21.9929 23.6384C21.9223 23.6389 21.8517 23.6389 21.781 23.6386C21.7219 23.6386 21.6625 23.6389 21.6034 23.6389C21.4632 23.6393 21.3239 23.6393 21.183 23.6389C21.0394 23.6386 20.8949 23.6391 20.7519 23.6395C20.6279 23.6402 20.5049 23.6402 20.3792 23.6402C20.3053 23.6399 20.2317 23.6402 20.1582 23.6404C20.0759 23.6408 19.9933 23.6406 19.9112 23.6402C19.8872 23.6404 19.8633 23.6406 19.8386 23.6408C19.544 23.638 19.3035 23.5472 19.089 23.3461C18.8636 23.11 18.8051 22.8348 18.8073 22.5185C18.8071 22.4925 18.8071 22.4665 18.8069 22.4396C18.8066 22.3683 18.8066 22.2973 18.8066 22.2262C18.8066 22.1666 18.8066 22.1068 18.8064 22.0472C18.8062 21.9066 18.8062 21.7656 18.8064 21.6247C18.8064 21.48 18.8062 21.3344 18.8058 21.1914C18.8053 21.0666 18.8053 20.9422 18.8053 20.8166C18.8053 20.7425 18.8053 20.6681 18.8049 20.5934C18.8047 20.5104 18.8049 20.4276 18.8051 20.3442C18.8049 20.32 18.8047 20.2957 18.8047 20.2708C18.8064 19.9934 18.8924 19.7508 19.0799 19.5406C19.3355 19.2979 19.5977 19.2438 19.94 19.2438L19.9383 19.2483ZM19.8068 20.2515V22.6348H22.1901V20.2515H19.8068Z" fill="#000100"/>
<path d="M6.13543 25.5317C6.161 25.5317 6.18635 25.5314 6.21257 25.5314C6.2962 25.5312 6.37983 25.5314 6.4639 25.5314H6.63918C6.76138 25.5312 6.88402 25.5314 7.00535 25.5317C7.14618 25.5319 7.28702 25.5319 7.42785 25.5314C7.5494 25.5314 7.67052 25.5312 7.79185 25.5314H8.00852C8.08912 25.5312 8.16993 25.5314 8.25118 25.5317C8.2748 25.5317 8.29842 25.5314 8.32268 25.5314C8.63902 25.5332 8.88168 25.6079 9.11568 25.8304C9.33083 26.0644 9.39302 26.3028 9.39085 26.6148C9.39107 26.6546 9.39107 26.6546 9.39128 26.6952C9.3915 26.7673 9.3915 26.8395 9.39128 26.9116C9.39107 26.9874 9.39128 27.0633 9.39128 27.1391C9.3915 27.2665 9.39128 27.3948 9.39107 27.5204C9.39063 27.6673 9.39063 27.8151 9.39107 27.9603C9.39128 28.0868 9.3915 28.2138 9.39128 28.3394C9.39107 28.4146 9.39107 28.49 9.39128 28.5648C9.3915 28.6488 9.39128 28.7329 9.39085 28.8161C9.39107 28.8408 9.39107 28.8655 9.39128 28.8909C9.3889 29.1899 9.29465 29.4282 9.09012 29.647C8.85178 29.8702 8.57445 29.9179 8.25812 29.9179C8.21933 29.9181 8.21933 29.9181 8.1799 29.9183C8.09475 29.9187 8.0096 29.9189 7.92423 29.9192C7.89477 29.9192 7.8653 29.9194 7.83583 29.9194C7.69738 29.9198 7.5585 29.92 7.41983 29.9202C7.26058 29.9205 7.10133 29.9211 6.94317 29.922C6.81967 29.9226 6.69617 29.9228 6.57267 29.9231C6.49922 29.9231 6.42555 29.9233 6.35167 29.9237C6.26933 29.9244 6.18722 29.9244 6.10467 29.9241C6.0687 29.9246 6.0687 29.9246 6.03208 29.925C5.75258 29.9231 5.51642 29.842 5.30842 29.6542C5.12165 29.4644 5.00292 29.2252 5.00292 28.9565C5.0027 28.9342 5.00248 28.9117 5.00248 28.8887C5.00227 28.8644 5.00227 28.8402 5.00227 28.815C5.00205 28.7895 5.00183 28.7637 5.00183 28.737C5.0014 28.6517 5.00118 28.5665 5.00097 28.4814C5.00075 28.4519 5.00075 28.4224 5.00053 28.393C5.0001 28.2543 4.99988 28.1156 4.99967 27.977C4.99945 27.8177 4.99902 27.6585 4.99815 27.4981C4.9975 27.3746 4.99707 27.2511 4.99707 27.1276C4.99685 27.054 4.99685 26.9803 4.9962 26.9066C4.99577 26.8243 4.99577 26.742 4.99577 26.6596C4.99555 26.6237 4.99555 26.6237 4.99512 26.587C4.99685 26.2945 5.09045 26.0302 5.28978 25.8135C5.53678 25.5795 5.80545 25.5319 6.13695 25.5319L6.13543 25.5317ZM6.00153 26.5348V28.9182H8.38487V26.5348H6.00153Z" fill="#000100"/>
<path d="M19.9165 25.5317C19.9421 25.5317 19.9679 25.5314 19.9943 25.5314C20.0645 25.5312 20.1347 25.5312 20.2047 25.5312C20.2487 25.5312 20.2927 25.5312 20.3364 25.531C20.4901 25.5308 20.6441 25.5308 20.7979 25.5308C20.9405 25.5308 21.0839 25.5306 21.2269 25.5301C21.3498 25.5299 21.4718 25.5299 21.5953 25.5299C21.6685 25.5299 21.7417 25.5297 21.8141 25.5295C21.896 25.5293 21.9777 25.5295 22.0589 25.5295C22.0828 25.5295 22.1066 25.5293 22.1313 25.5293C22.4498 25.5304 22.6903 25.6047 22.9265 25.8261C23.1414 26.0579 23.2038 26.2984 23.2016 26.6083C23.2019 26.6481 23.2019 26.6481 23.2021 26.6887C23.2023 26.7606 23.2023 26.8327 23.2021 26.9047C23.2019 26.9805 23.2021 27.0563 23.2021 27.1322C23.2023 27.2594 23.2021 27.3857 23.2019 27.5135C23.2014 27.66 23.2016 27.806 23.2019 27.9533C23.2023 28.0797 23.2023 28.2068 23.2021 28.3325C23.2021 28.4077 23.2021 28.4831 23.2023 28.5578C23.2025 28.6417 23.2021 28.7258 23.2016 28.8092C23.2019 28.8337 23.2021 28.8581 23.2021 28.8835C23.1997 29.1847 23.1098 29.4165 22.9096 29.644C22.6756 29.865 22.3701 29.917 22.0624 29.9148C22.0366 29.9148 22.0108 29.915 21.9842 29.9153C21.914 29.9155 21.8438 29.9157 21.7736 29.9157C21.7296 29.9157 21.6856 29.9159 21.6416 29.9159C21.4876 29.9163 21.334 29.9166 21.1801 29.9166C21.0374 29.9163 20.8941 29.917 20.7511 29.9176C20.6279 29.9181 20.5041 29.9183 20.3806 29.9183C20.3074 29.9183 20.234 29.9185 20.1596 29.9189C20.0777 29.9194 19.9958 29.9192 19.9126 29.9189C19.8888 29.9192 19.8652 29.9194 19.8405 29.9198C19.535 29.9172 19.301 29.8171 19.0778 29.6121C18.8954 29.4189 18.8005 29.1528 18.807 28.8885C18.8243 28.7184 18.8997 28.6155 19.028 28.5071C19.1645 28.4153 19.3097 28.4138 19.4678 28.4417C19.5928 28.4794 19.6758 28.5622 19.7452 28.6714L19.8318 28.888L22.1935 28.9097V26.5264H19.8102V27.3064C19.6656 27.5945 19.6656 27.5945 19.4895 27.6834C19.3357 27.7131 19.1862 27.7213 19.0475 27.6405C18.9279 27.5501 18.8512 27.452 18.8135 27.3068C18.807 27.2373 18.8068 27.1681 18.807 27.0986C18.8068 27.0787 18.8068 27.0587 18.8066 27.0381V26.912C18.8066 26.8481 18.8061 26.7844 18.8057 26.7207C18.8044 26.3654 18.849 26.0664 19.1004 25.7934C19.3344 25.5767 19.6074 25.5269 19.915 25.5269L19.9165 25.5317Z" fill="#000100"/>
</g>
<defs>
<clipPath id="clip0_208_365">
<rect width="34.6667" height="34.6667" fill="white" transform="translate(0.22168 0.333313)"/>
</clipPath>
</defs>
</svg>
