<svg width="41" height="40" viewBox="0 0 41 40" fill="none" xmlns="http://www.w3.org/2000/svg">
<path d="M20.5563 3.33334C11.3563 3.33334 3.88965 10.8 3.88965 20C3.88965 29.2 11.3563 36.6667 20.5563 36.6667C29.7563 36.6667 37.223 29.2 37.223 20C37.223 10.8 29.7563 3.33334 20.5563 3.33334ZM12.3396 30.4667C13.0563 28.9667 17.423 27.5 20.5563 27.5C23.6896 27.5 28.073 28.9667 28.773 30.4667C26.5063 32.2667 23.6563 33.3333 20.5563 33.3333C17.4563 33.3333 14.6063 32.2667 12.3396 30.4667ZM31.1563 28.05C28.773 25.15 22.9896 24.1667 20.5563 24.1667C18.123 24.1667 12.3396 25.15 9.95631 28.05C8.25631 25.8167 7.22298 23.0333 7.22298 20C7.22298 12.65 13.2063 6.66667 20.5563 6.66667C27.9063 6.66667 33.8896 12.65 33.8896 20C33.8896 23.0333 32.8563 25.8167 31.1563 28.05ZM20.5563 10C17.323 10 14.723 12.6 14.723 15.8333C14.723 19.0667 17.323 21.6667 20.5563 21.6667C23.7896 21.6667 26.3896 19.0667 26.3896 15.8333C26.3896 12.6 23.7896 10 20.5563 10ZM20.5563 18.3333C19.173 18.3333 18.0563 17.2167 18.0563 15.8333C18.0563 14.45 19.173 13.3333 20.5563 13.3333C21.9396 13.3333 23.0563 14.45 23.0563 15.8333C23.0563 17.2167 21.9396 18.3333 20.5563 18.3333Z" fill="black"/>
</svg>
