<svg width="41" height="41" viewBox="0 0 41 41" fill="none" xmlns="http://www.w3.org/2000/svg">
<g clip-path="url(#clip0_208_374)">
<path d="M21.6058 0.211111C21.6263 0.214861 21.6466 0.218611 21.6678 0.222361C22.5053 0.382361 23.2628 0.757361 23.9378 1.26736C23.9696 1.29136 23.9696 1.29136 24.0018 1.31561C24.1481 1.42886 24.2793 1.55311 24.4068 1.68561L24.5318 1.81061C24.5471 1.82461 24.5623 1.83861 24.5778 1.85311C24.8678 2.13061 25.1003 2.46811 25.3078 2.81061C25.3243 2.83736 25.3411 2.86411 25.3581 2.89161C25.7156 3.48661 25.9181 4.15411 26.0331 4.83661C26.0363 4.85611 26.0398 4.87561 26.0431 4.89561C26.2021 5.86811 26.0388 6.94561 25.6331 7.84561C25.6196 7.87586 25.6196 7.87586 25.6058 7.90661C25.4831 8.18161 25.3433 8.44161 25.1833 8.69661C25.1583 8.73836 25.1333 8.77986 25.1083 8.82161C25.1303 8.82161 25.1526 8.82186 25.1753 8.82186C25.7153 8.82386 26.2553 8.82611 26.7978 8.82886C27.0578 8.83011 27.3203 8.83111 27.5828 8.83211C27.8111 8.83311 28.0378 8.83411 28.2678 8.83511C28.3883 8.83586 28.5088 8.83636 28.6303 8.83661C29.2428 8.83861 29.8528 8.84261 30.4578 8.93886C30.4971 8.94511 30.4971 8.94511 30.5373 8.95136C30.9973 9.02786 31.4523 9.14886 31.8848 9.32136C31.9043 9.32911 31.9241 9.33686 31.9443 9.34486C32.8768 9.71986 33.6993 10.2599 34.4093 10.9724C34.4323 10.9949 34.4556 11.0174 34.4793 11.0406C34.6431 11.2009 34.7943 11.3656 34.9343 11.5481C34.9456 11.5626 34.9571 11.5771 34.9686 11.5921C35.4836 12.2571 35.8786 12.9796 36.1486 13.7771C36.1618 13.8149 36.1618 13.8149 36.1751 13.8534C36.3361 14.3384 36.4301 14.8434 36.5176 15.3459C36.5278 15.4041 36.5381 15.4626 36.5483 15.5211C36.5716 15.6536 36.5948 15.7861 36.6178 15.9186C36.6723 16.2311 36.7273 16.5436 36.7823 16.8561L36.8086 17.0061C36.8131 17.0311 36.8173 17.0559 36.8218 17.0816C36.8476 17.2274 36.8731 17.3741 36.8986 17.5191C36.9843 18.0091 37.0713 18.4991 37.1611 18.9866C37.2413 19.4266 37.3196 19.8666 37.3961 20.3066C37.4291 20.4969 37.4626 20.6866 37.4958 20.8766C37.5078 20.9456 37.5198 21.0149 37.5318 21.0839C37.6351 21.6739 37.7391 22.2664 37.8418 22.8564C37.8468 22.8849 37.8518 22.9136 37.8571 22.9431C38.0123 23.8256 38.1696 24.7081 38.3246 25.5931C38.4826 26.4806 38.6396 27.3681 38.7946 28.2681C38.8368 28.5079 38.8791 28.7481 38.9213 28.9881C38.9576 29.1929 38.9936 29.3981 39.0298 29.6031C39.0513 29.7251 39.0728 29.8474 39.0943 29.9681C39.1773 30.4381 39.2598 30.9106 39.3388 31.3806C39.3433 31.4081 39.3433 31.4081 39.3481 31.4361C39.6731 33.3736 39.3631 35.3611 38.2156 36.9861C38.1316 37.1026 38.0443 37.2164 37.9556 37.3286C37.9383 37.3514 37.9208 37.3741 37.9028 37.3974C37.5878 37.8049 37.2128 38.1874 36.8053 38.5024C36.7873 38.5169 36.7696 38.5316 36.7511 38.5466C35.9511 39.1966 34.9861 39.6691 33.9761 39.9016C33.9521 39.9071 33.9278 39.9129 33.9031 39.9186C33.5681 39.9951 33.2331 40.0541 32.8906 40.0941C32.8516 40.0986 32.8126 40.1034 32.7736 40.1084C32.5733 40.1319 32.3736 40.1301 32.1711 40.1299C32.1301 40.1299 32.0891 40.1301 32.0481 40.1301H31.7081C31.5853 40.1301 31.4626 40.1304 31.3406 40.1304C31.0968 40.1306 30.8531 40.1306 30.6106 40.1306C30.3181 40.1306 30.0281 40.1309 29.7356 40.1309C29.0481 40.1314 28.3581 40.1316 27.6706 40.1316C27.3206 40.1316 26.9706 40.1319 26.6206 40.1319C25.4956 40.1321 24.3706 40.1324 23.2456 40.1326H23.0843H22.7618H22.3843H22.2758C21.1158 40.1326 19.9583 40.1331 18.8008 40.1336C17.9683 40.1341 17.1358 40.1344 16.3008 40.1346H16.2488H15.1188H14.7138H14.6131C14.0631 40.1346 13.5131 40.1351 12.9631 40.1354C12.4281 40.1356 11.8906 40.1359 11.3556 40.1356C11.0381 40.1356 10.7206 40.1356 10.4006 40.1361C10.1878 40.1364 9.97558 40.1361 9.76058 40.1359C9.63958 40.1359 9.51858 40.1359 9.39808 40.1361C8.89308 40.1374 8.40058 40.1274 7.90058 40.0516C7.86408 40.0464 7.82758 40.0411 7.79108 40.0359C7.71008 40.0236 7.62958 40.0101 7.54908 39.9954C7.52033 39.9901 7.49183 39.9849 7.46233 39.9796C7.02233 39.8964 6.58983 39.7724 6.17483 39.6021C6.14558 39.5904 6.14558 39.5904 6.11608 39.5786C5.44858 39.3111 4.81858 38.9511 4.27608 38.4761C4.25033 38.4549 4.22458 38.4336 4.19883 38.4126C3.84383 38.1176 3.50633 37.7926 3.22633 37.4251C3.19958 37.3921 3.17283 37.3591 3.14583 37.3261C2.94283 37.0736 2.77083 36.8136 2.61083 36.5336C2.58033 36.4804 2.54933 36.4276 2.51783 36.3751C1.69783 34.9901 1.44533 33.2501 1.71033 31.6751C1.71358 31.6551 1.71683 31.6354 1.72033 31.6149C1.76383 31.3549 1.80883 31.0949 1.85408 30.8324C1.86133 30.7909 1.86133 30.7909 1.86858 30.7484C1.98508 30.0759 2.10358 29.4034 2.22358 28.7334C2.24583 28.6076 2.26808 28.4809 2.29008 28.3559C2.39633 27.7534 2.50283 27.1534 2.61008 26.5509C2.72208 25.9259 2.83208 25.3009 2.94258 24.6759C2.96008 24.5764 2.97758 24.4771 2.99483 24.3784C2.99833 24.3584 3.00183 24.3386 3.00558 24.3181C3.08308 23.8756 3.16083 23.4356 3.23883 22.9931C3.24958 22.9329 3.26033 22.8724 3.27083 22.8121C3.33158 22.4696 3.39208 22.1246 3.45283 21.7821C3.49908 21.5196 3.54533 21.2571 3.59183 20.9946C3.59683 20.9651 3.59683 20.9651 3.60233 20.9351C3.67958 20.4976 3.75683 20.0601 3.83333 19.6201C3.83633 19.6021 3.83958 19.5841 3.84283 19.5654C3.87508 19.3796 3.90758 19.1929 3.93983 19.0079C4.00358 18.6429 4.06833 18.2779 4.13458 17.9129C4.13983 17.8836 4.14508 17.8541 4.15058 17.8239C4.15508 17.7999 4.15933 17.7759 4.16383 17.7511C4.22383 17.4211 4.28183 17.0911 4.33933 16.7611L4.37908 16.5339C4.38333 16.5086 4.38783 16.4831 4.39233 16.4571C4.40133 16.4056 4.41033 16.3544 4.41933 16.3029C4.44133 16.1759 4.46358 16.0479 4.48533 15.9229C4.74033 14.4529 4.74033 14.4529 4.95533 13.7954C4.96108 13.7774 4.96683 13.7594 4.97283 13.7411C5.20333 13.0336 5.55533 12.3636 6.00533 11.7711C6.02058 11.7509 6.02058 11.7509 6.03633 11.7301C6.18008 11.5411 6.33133 11.3601 6.49383 11.1876C6.54708 11.1306 6.59808 11.0724 6.64858 11.0129C6.71833 10.9324 6.79333 10.8634 6.87458 10.7946C6.94133 10.7371 7.00483 10.6764 7.06883 10.6159C7.47883 10.2359 7.96383 9.93336 8.45633 9.67086C8.47233 9.66236 8.48808 9.65386 8.50458 9.64511C9.24958 9.25011 10.0621 9.02011 10.8946 8.90011C10.9138 8.89736 10.9333 8.89436 10.9531 8.89161C11.4931 8.82211 12.0431 8.84211 12.5856 8.84286C12.7063 8.84286 12.8268 8.84311 12.9481 8.84311C13.1756 8.84311 13.4031 8.84336 13.6306 8.84361C13.8906 8.84386 14.1506 8.84386 14.4081 8.84411C14.9406 8.84436 15.4731 8.84486 16.0056 8.84536C15.9916 8.82086 15.9916 8.82086 15.9773 8.79561C15.9348 8.72061 15.8923 8.64536 15.8498 8.57036C15.8351 8.54461 15.8206 8.51886 15.8053 8.49211C15.0528 7.16211 14.8178 5.64211 15.2153 4.16711C15.3888 3.56211 15.6628 2.98711 16.0303 2.47711C16.0423 2.46036 16.0546 2.44361 16.0668 2.42611C16.3193 2.07611 16.6018 1.75611 16.9293 1.47611C16.9511 1.45736 16.9726 1.43861 16.9948 1.41936C18.2823 0.344361 19.9698 -0.078139 21.5948 0.226861L21.6058 0.211111ZM18.4558 3.26111C18.4216 3.28936 18.3871 3.31736 18.3528 3.34561C18.1166 3.55461 17.9328 3.81061 17.7803 4.08561C17.7718 4.10061 17.7636 4.11536 17.7548 4.13086C17.4448 4.68836 17.2948 5.35086 17.3798 5.98586C17.3828 6.01036 17.3828 6.01036 17.3858 6.03536C17.4618 6.63536 17.6933 7.23786 18.1058 7.68536C18.1243 7.70686 18.1428 7.72836 18.1621 7.75036C18.7246 8.39536 19.5071 8.78036 20.3621 8.84036C21.1096 8.88011 21.9396 8.66336 22.5146 8.16786C22.5626 8.12461 22.6098 8.08061 22.6568 8.03661C22.6906 8.00886 22.7246 7.98136 22.7583 7.95386C23.1408 7.61136 23.4283 7.14886 23.5808 6.66136C23.5898 6.63361 23.5991 6.60586 23.6086 6.57711C23.8538 5.78211 23.7611 4.90961 23.3813 4.17461C22.9863 3.43461 22.3263 2.86211 21.5238 2.59961C20.4563 2.27461 19.2813 2.50661 18.4488 3.25961L18.4558 3.26111ZM10.5558 11.3361C10.5281 11.3439 10.5003 11.3516 10.4718 11.3596C10.2823 11.4134 10.0968 11.4706 9.91933 11.5516C9.88908 11.5646 9.88908 11.5646 9.85833 11.5781C9.49083 11.7394 9.16333 11.9331 8.84333 12.1756C8.82333 12.1909 8.80333 12.2061 8.78283 12.2219C8.17783 12.6969 7.72533 13.2844 7.39283 13.9769C7.38308 13.9966 7.37308 14.0166 7.36308 14.0371C7.08558 14.5996 6.97808 15.1996 6.87308 15.8146C6.85558 15.9149 6.83758 16.0151 6.81983 16.1146C6.78058 16.3341 6.74208 16.5546 6.70358 16.7746C6.68933 16.8556 6.67508 16.9364 6.66083 17.0171C6.62133 17.2414 6.58208 17.4646 6.54283 17.6896C6.48033 18.0496 6.41658 18.4071 6.35233 18.7671C6.34833 18.7896 6.34433 18.8121 6.34008 18.8354C6.31958 18.9501 6.29883 19.0651 6.27833 19.1804C6.10233 20.1629 6.10233 20.1629 5.93333 21.1454C5.88408 21.4404 5.83133 21.7329 5.77758 22.0279C5.70958 22.4004 5.64308 22.7729 5.57658 23.1454C5.56633 23.2036 5.55583 23.2616 5.54558 23.3199C5.42733 23.9849 5.31033 24.6499 5.19308 25.3124C5.17958 25.3896 5.16608 25.4671 5.15233 25.5446C5.14733 25.5736 5.14733 25.5736 5.14208 25.6031C5.04958 26.1306 4.95633 26.6581 4.86208 27.1856C4.75483 27.7931 4.64808 28.4006 4.54208 29.0056C4.47133 29.4106 4.39908 29.8156 4.32608 30.2206C4.25608 30.6081 4.18658 30.9956 4.11883 31.3806C4.11008 31.4296 4.10158 31.4784 4.09283 31.5274C3.97533 32.1924 3.89358 32.8524 3.99158 33.5274C3.99408 33.5451 3.99658 33.5631 3.99908 33.5814C4.11058 34.3739 4.43158 35.1414 4.91658 35.7764C4.93308 35.7981 4.94933 35.8199 4.96633 35.8421C5.62133 36.6871 6.51633 37.2771 7.54133 37.5771C7.55883 37.5824 7.57658 37.5876 7.59483 37.5929C8.22983 37.7754 8.89733 37.7631 9.55233 37.7616C9.67408 37.7614 9.79558 37.7616 9.91733 37.7619C10.1301 37.7621 10.3423 37.7619 10.5548 37.7616C10.8698 37.7614 11.1873 37.7614 11.5048 37.7616C12.0698 37.7619 12.6348 37.7619 13.1998 37.7616C13.6948 37.7614 14.1873 37.7611 14.6823 37.7611H14.7818H15.1818C15.5543 37.7614 15.9268 37.7614 16.2993 37.7611H16.3506C16.8906 37.7611 17.4306 37.7611 17.9706 37.7609H18.0238C18.3088 37.7606 18.5913 37.7606 18.8763 37.7606C20.0038 37.7601 21.1313 37.7599 22.2513 37.7601H22.4651H22.5183H23.1033H23.1563C24.1013 37.7601 25.0463 37.7601 25.9813 37.7599H26.2813H26.4801C26.9426 37.7596 27.4026 37.7596 27.8651 37.7596C28.4601 37.7599 29.0551 37.7596 29.6476 37.7594C29.9626 37.7591 30.2751 37.7589 30.5901 37.7591C30.8001 37.7591 31.0101 37.7591 31.2201 37.7589C31.3396 37.7586 31.4591 37.7586 31.5776 37.7589C33.0026 37.7606 34.3776 37.5251 35.4526 36.5089C35.5056 36.4591 35.5598 36.4121 35.6153 36.3654C36.3153 35.7529 36.7803 34.8229 36.9878 33.9254C36.9953 33.8941 36.9953 33.8941 37.0028 33.8621C37.1586 33.1746 37.1231 32.4446 36.9976 31.7546C36.9871 31.6959 36.9766 31.6371 36.9663 31.5784C36.9273 31.3579 36.8876 31.1384 36.8473 30.9159C36.7741 30.5159 36.7033 30.1134 36.6331 29.7109C36.6011 29.5286 36.5691 29.3459 36.5371 29.1634C36.5296 29.1214 36.5223 29.0791 36.5148 29.0371C36.4358 28.5871 36.3563 28.1371 36.2768 27.6846C36.2701 27.6466 36.2636 27.6086 36.2568 27.5706C36.2193 27.3586 36.1818 27.1456 36.1443 26.9331C36.1083 26.7281 36.0721 26.5231 36.0358 26.3181C35.9766 25.9831 35.9173 25.6481 35.8583 25.3131C35.7476 24.6881 35.6371 24.0606 35.5258 23.4331C35.4876 23.2166 35.4493 23.0006 35.4113 22.7831C35.3906 22.6661 35.3698 22.5491 35.3493 22.4331C35.3443 22.4051 35.3393 22.3771 35.3343 22.3484C35.2751 22.0134 35.2156 21.6759 35.1566 21.3384C35.1271 21.1716 35.0978 21.0059 35.0683 20.8384C35.0638 20.8129 35.0638 20.8129 35.0593 20.7869C34.9781 20.3269 34.8961 19.8669 34.8128 19.4069C34.7326 18.9644 34.6543 18.5194 34.5766 18.0769C34.5558 17.9589 34.5351 17.8409 34.5143 17.7219C34.5076 17.6824 34.5006 17.6426 34.4936 17.6031C34.4831 17.5431 34.4726 17.4831 34.4621 17.4234C34.4186 17.1764 34.3753 16.9284 34.3321 16.6809C34.3033 16.5154 34.2743 16.3509 34.2451 16.1834C34.2278 16.0856 34.2106 15.9876 34.1938 15.8884C34.0598 15.0484 34.0598 15.0484 33.7863 14.2484C33.7678 14.2081 33.7498 14.1676 33.7321 14.1269C33.4978 13.5944 33.1996 13.1069 32.7871 12.6944C32.7588 12.6646 32.7308 12.6346 32.7026 12.6046C32.4773 12.3676 32.2326 12.1771 31.9626 11.9946C31.9286 11.9709 31.9286 11.9709 31.8936 11.9464C31.7136 11.8226 31.5286 11.7219 31.3311 11.6314C31.3161 11.6244 31.3011 11.6174 31.2856 11.6104C30.9856 11.4726 30.6806 11.3736 30.3631 11.2954C30.3456 11.2909 30.3281 11.2866 30.3103 11.2819C29.8453 11.1651 29.3803 11.1629 28.9028 11.1639C28.8096 11.1639 28.7166 11.1636 28.6228 11.1636C28.4601 11.1634 28.2978 11.1634 28.1353 11.1634C27.8933 11.1636 27.6503 11.1634 27.4103 11.1631C26.9528 11.1629 26.4953 11.1629 26.0378 11.1629C25.6853 11.1629 25.3303 11.1629 24.9778 11.1626H24.8253H24.5956C23.8831 11.1624 23.1731 11.1624 22.4606 11.1624H22.3793H21.9718H21.8901H21.7263C20.8763 11.1626 20.0288 11.1624 19.1763 11.1619C18.2213 11.1614 17.2663 11.1611 16.3013 11.1614H15.9963H15.9203C15.5428 11.1614 15.1653 11.1611 14.7853 11.1609C14.3553 11.1606 13.9253 11.1606 13.4953 11.1609C13.2548 11.1611 13.0153 11.1611 12.7753 11.1606C12.6146 11.1604 12.4528 11.1606 12.2928 11.1609C12.2016 11.1609 12.1101 11.1611 12.0178 11.1606C11.5028 11.1591 11.0078 11.1874 10.5103 11.3299L10.5558 11.3361Z" fill="black"/>
<path d="M14.1556 19.6611C14.1791 19.6786 14.1791 19.6786 14.2033 19.6964C14.4221 19.8691 14.5683 20.1364 14.6058 20.4114C14.6098 20.5011 14.6103 20.5909 14.6111 20.6814C14.6113 20.7081 14.6116 20.7351 14.6118 20.7626C14.6126 20.8511 14.6131 20.9396 14.6138 21.0276C14.6143 21.0891 14.6148 21.1504 14.6153 21.2119L14.6191 21.6969C14.6203 21.8619 14.6218 22.0269 14.6231 22.1919C14.6258 22.5144 14.6283 22.8394 14.6308 23.1619C14.6591 23.1386 14.6871 23.1151 14.7153 23.0916C14.7386 23.0719 14.7386 23.0719 14.7626 23.0521C14.8113 23.0099 14.8113 23.0099 14.8558 22.9369H14.9058C14.9113 22.9234 14.9168 22.9096 14.9223 22.8956C14.9668 22.8174 15.0273 22.7596 15.0913 22.6974C15.1046 22.6841 15.1181 22.6709 15.1318 22.6574C15.1746 22.6149 15.2176 22.5729 15.2606 22.5306C15.3166 22.4754 15.3728 22.4201 15.4288 22.3646C15.4423 22.3511 15.4558 22.3376 15.4698 22.3239C15.5546 22.2394 15.6346 22.1524 15.7118 22.0614C15.8071 21.9539 15.9113 21.8549 16.0143 21.7539C16.0591 21.7096 16.1038 21.6656 16.1486 21.6214C16.1681 21.6021 16.1876 21.5826 16.2078 21.5629C16.2603 21.5106 16.2603 21.5106 16.3066 21.4366H16.3566C16.3623 21.4226 16.3681 21.4086 16.3741 21.3944C16.4151 21.3216 16.4661 21.2721 16.5256 21.2136C16.5373 21.2019 16.5491 21.1904 16.5611 21.1784C16.5986 21.1414 16.6361 21.1046 16.6738 21.0679C16.7228 21.0196 16.7721 20.9714 16.8208 20.9229C16.8328 20.9111 16.8448 20.8991 16.8573 20.8871C16.9218 20.8226 16.9838 20.7571 17.0431 20.6879C17.1761 20.5319 17.3256 20.3904 17.4706 20.2479C17.6083 20.1116 17.7431 19.9754 17.8706 19.8279C18.0466 19.6284 18.3131 19.4554 18.5856 19.4329C19.0131 19.4214 19.3106 19.4824 19.6356 19.7754C19.8386 19.9866 19.9556 20.2829 19.9631 20.5729C19.9516 20.9829 19.7598 21.2979 19.4706 21.5729C19.4016 21.6391 19.3368 21.7066 19.2748 21.7794C19.1466 21.9276 19.0048 22.0619 18.8648 22.1994C18.7723 22.2911 18.6806 22.3824 18.5948 22.4819C18.4608 22.6381 18.3098 22.7794 18.1648 22.9244C17.9866 23.0989 17.9866 23.0989 17.8198 23.2844C17.6781 23.4506 17.5173 23.5994 17.3623 23.7544C17.1456 23.9686 17.1456 23.9686 16.9423 24.1944C16.8923 24.2526 16.8383 24.3064 16.7836 24.3604C16.7643 24.3794 16.7451 24.3986 16.7251 24.4181C16.7108 24.4321 16.6968 24.4461 16.6821 24.4604C16.8388 24.6419 17.0071 24.8104 17.1771 24.9804C17.2598 25.0619 17.3401 25.1439 17.4158 25.2329C17.5306 25.3661 17.6571 25.4879 17.7833 25.6129C17.9226 25.7501 18.0608 25.8879 18.1858 26.0354C18.2876 26.1494 18.3986 26.2551 18.5083 26.3629C18.6478 26.5004 18.7858 26.6379 18.9133 26.7879C19.0111 26.8974 19.1171 26.9986 19.2208 27.1029C19.9458 27.8179 19.9458 27.8179 19.9658 28.3304C19.9613 28.6679 19.8288 28.9654 19.5983 29.2054C19.3333 29.4446 19.0283 29.5304 18.6783 29.5229C18.2733 29.4864 18.0133 29.2554 17.7383 28.9754C17.7028 28.9391 17.6673 28.9034 17.6318 28.8676C17.5348 28.7696 17.4391 28.6716 17.3493 28.5676C17.2236 28.4214 17.0843 28.2876 16.9468 28.1526C16.6368 27.8451 16.6368 27.8451 16.5018 27.6876C16.4133 27.5876 16.3168 27.4951 16.2218 27.4026C15.9943 27.1786 15.9943 27.1786 15.8993 27.0676C15.8271 26.9834 15.7503 26.9046 15.6713 26.8266C15.6593 26.8146 15.6473 26.8026 15.6348 26.7904C15.5848 26.7409 15.5346 26.6916 15.4841 26.6424L15.3731 26.5329C15.3511 26.5114 15.3291 26.4899 15.3066 26.4676C15.2588 26.4146 15.2588 26.4146 15.2588 26.3646C15.2341 26.3564 15.2093 26.3481 15.1838 26.3396C15.1436 26.2979 15.1436 26.2979 15.1011 26.2459C15.0473 26.1824 14.9981 26.1309 14.9338 26.0771C14.8538 26.0106 14.7906 25.9386 14.7241 25.8589C14.6821 25.8091 14.6821 25.8091 14.6088 25.7646C14.6088 25.7786 14.6091 25.7926 14.6091 25.8071C14.6113 26.1496 14.6131 26.4921 14.6141 26.8321C14.6146 26.9976 14.6153 27.1621 14.6163 27.3271C14.6176 27.4871 14.6181 27.6471 14.6183 27.8071C14.6186 27.8681 14.6188 27.9289 14.6193 27.9896C14.6233 28.4396 14.6138 28.8071 14.2968 29.1571C14.2761 29.1756 14.2556 29.1944 14.2343 29.2134C14.2011 29.2444 14.2011 29.2444 14.1671 29.2759C13.8896 29.5011 13.5771 29.5359 13.2346 29.5134C12.9296 29.4646 12.6771 29.2739 12.4846 29.0384C12.2643 28.6859 12.2556 28.3234 12.2563 27.9184C12.2561 27.8876 12.2561 27.8566 12.2561 27.8249C12.2558 27.7399 12.2558 27.6549 12.2558 27.5699C12.2558 27.4779 12.2558 27.3859 12.2556 27.2949C12.2556 27.1151 12.2553 26.9349 12.2553 26.7549V26.3149C12.2551 25.8999 12.2548 25.4849 12.2548 25.0674V24.9996V24.9319C12.2551 24.5694 12.2548 24.2069 12.2543 23.8444C12.2541 23.4719 12.2538 23.0994 12.2538 22.7244C12.2538 22.5151 12.2538 22.3069 12.2536 22.0969C12.2533 21.9189 12.2533 21.7419 12.2533 21.5619C12.2536 21.4711 12.2536 21.3804 12.2533 21.2894C12.2508 20.1469 12.2508 20.1469 12.6083 19.7594C13.0358 19.3544 13.6908 19.3069 14.1583 19.6626L14.1556 19.6611Z" fill="black"/>
<path d="M27.7307 20.5111C28.0357 20.8161 28.2682 21.1336 28.2782 21.5761C28.2719 21.9186 28.1689 22.1711 27.9307 22.4211C27.7287 22.6126 27.4757 22.7311 27.1957 22.7536C27.1789 22.7549 27.1624 22.7561 27.1454 22.7574C26.8479 22.7704 26.5704 22.6719 26.3504 22.4774C26.2832 22.4151 26.2189 22.3519 26.1562 22.2851C25.8812 21.9951 25.5462 21.8001 25.1412 21.7726C24.7262 21.7671 24.3787 21.8846 24.0737 22.1726C23.7712 22.4726 23.6412 22.8601 23.6387 23.2801C23.6389 23.3039 23.6389 23.3276 23.6392 23.3521C23.6389 23.3779 23.6389 23.4036 23.6389 23.4304C23.6387 23.5149 23.6387 23.5994 23.6389 23.6829C23.6389 23.7421 23.6389 23.8014 23.6387 23.8606C23.6387 23.9846 23.6389 24.1086 23.6389 24.2331C23.6394 24.3914 23.6392 24.5481 23.6389 24.7081C23.6387 24.8306 23.6387 24.9531 23.6389 25.0756C23.6389 25.1339 23.6389 25.1921 23.6387 25.2504C23.6379 25.8279 23.6587 26.3154 24.0737 26.7604C24.3387 27.0154 24.6887 27.1454 25.0537 27.1404C25.0764 27.1401 25.0994 27.1399 25.1229 27.1396C25.4329 27.1319 25.6729 27.0384 25.9204 26.8546C25.9402 26.8401 25.9599 26.8259 25.9804 26.8111C26.2404 26.6036 26.3654 26.2861 26.4704 25.9786C26.4392 25.9791 26.4079 25.9796 26.3759 25.9804C25.8884 25.9869 25.4159 25.9919 25.0409 25.6329C24.7834 25.3279 24.6909 25.0229 24.7159 24.6304C24.7474 24.3204 24.9374 24.0504 25.1709 23.8554C25.4107 23.6779 25.6509 23.6266 25.9459 23.6266C25.9652 23.6266 25.9847 23.6266 26.0044 23.6264C26.0679 23.6261 26.1314 23.6261 26.1949 23.6261C26.2394 23.6261 26.2839 23.6259 26.3284 23.6259C26.4217 23.6256 26.5147 23.6256 26.6084 23.6256C26.7269 23.6256 26.8457 23.6254 26.9634 23.6249C27.0554 23.6246 27.1472 23.6246 27.2384 23.6246C27.2822 23.6246 27.3259 23.6244 27.3697 23.6244C27.8097 23.6226 28.1522 23.6541 28.4872 23.9694C28.7547 24.2519 28.8222 24.5644 28.8222 24.9419C28.8224 24.9701 28.8224 24.9984 28.8224 25.0271C28.8227 25.0869 28.8227 25.1464 28.8227 25.2061C28.8227 25.2956 28.8232 25.3854 28.8237 25.4761C28.8249 25.9086 28.8159 26.3236 28.6852 26.7386C28.6774 26.7644 28.6694 26.7904 28.6614 26.8169C28.6067 26.9926 28.5507 27.1644 28.4682 27.3294C28.4582 27.3491 28.4482 27.3691 28.4379 27.3896C28.2849 27.6921 28.1254 27.9571 27.8929 28.2046C27.8614 28.2409 27.8302 28.2774 27.7992 28.3139C27.2817 28.8989 26.5942 29.2414 25.8442 29.4289C25.8242 29.4339 25.8042 29.4389 25.7834 29.4441C25.2984 29.5621 24.7284 29.5574 24.2434 29.4289C24.2212 29.4231 24.1992 29.4174 24.1764 29.4114C23.8739 29.3299 23.5889 29.2321 23.3139 29.0789C23.2699 29.0546 23.2254 29.0314 23.1809 29.0084C22.3284 28.5534 21.7234 27.7234 21.4409 26.8109C21.3504 26.5059 21.2939 26.2059 21.2799 25.8859C21.2789 25.8631 21.2779 25.8406 21.2767 25.8171C21.2662 25.5621 21.2654 25.3071 21.2657 25.0546V24.9024C21.2657 24.7969 21.2657 24.6914 21.2659 24.5849C21.2659 24.4509 21.2659 24.3174 21.2657 24.1824V23.8674V23.7194C21.2654 23.4764 21.2677 23.2344 21.2802 22.9919C21.2814 22.9636 21.2814 22.9636 21.2829 22.9346C21.3149 22.3771 21.4854 21.8296 21.7679 21.3496C21.7929 21.3011 21.8179 21.2529 21.8429 21.2044C21.9194 21.0644 22.0157 20.9469 22.1179 20.8244C22.1352 20.8021 22.1522 20.7801 22.1702 20.7571C22.7327 20.0396 23.6102 19.5746 24.5052 19.4346C25.7052 19.2911 26.8627 19.6571 27.7302 20.5071L27.7307 20.5111Z" fill="black"/>
</g>
<defs>
<clipPath id="clip0_208_374">
<rect width="40" height="40" fill="white" transform="translate(0.555664 0.111084)"/>
</clipPath>
</defs>
</svg>
