<svg width="430" height="314" viewBox="0 0 430 314" fill="none" xmlns="http://www.w3.org/2000/svg">
<path d="M-1 0H430V314H-1V0Z" fill="#2DC3DD"/>
<path d="M413.649 261.597C410.91 259.809 407.421 260.097 404.515 258.738C400.948 257.08 401.203 252.047 397.504 250.775C396.271 250.357 394.931 250.527 393.651 250.565C390.688 250.661 389.135 249.763 387.786 247.026C386.615 244.645 385.006 241.589 381.838 243.094C379.379 244.272 378.896 246.883 378.917 249.376C378.673 249.213 378.428 249.049 378.15 248.913C373.262 246.643 370.768 252.216 370.959 256.203C371.169 260.9 372.738 265.397 367.041 267.565C364.673 268.461 362.577 269.399 361.759 271.976C361.445 272.943 361.381 274.013 361.537 275.044C359.359 273.944 356.828 273.577 354.855 275.42C353.41 276.763 352.901 278.879 353.859 280.638C354.543 281.908 355.822 282.639 356.99 283.389C358.332 284.25 359.357 284.908 359.963 286.493C360.521 287.949 360.375 289.072 360.039 290.545C359.499 292.966 358.575 295.823 360.112 298.088C360.886 299.228 362.013 299.636 363.303 299.953C366.046 300.65 367.507 301.553 368.131 304.462C368.689 307.118 368.799 310.097 371.618 311.401C375.054 312.984 378.585 310.64 382.063 310.766C386.246 310.918 387.977 315.478 391.959 315.933C394.286 316.187 396.527 314.879 398.852 315.456C401.296 316.06 403.204 318.147 405.16 319.624C409.272 322.706 414.273 325.526 419.376 326.449C419.452 326.457 419.486 326.43 419.535 326.404C423.216 328.443 427.294 329.922 431.312 328.827C436.439 327.415 439.894 322.372 440.391 317.225C440.718 313.891 440.018 310.666 438.662 307.698C438.847 307.686 438.976 307.484 438.993 307.316C439.002 307.225 438.964 307.144 438.974 307.053L438.989 307.055C438.977 307.023 438.978 307.007 438.966 306.975C438.971 306.33 438.93 305.68 438.779 305.049C438.727 304.813 438.642 304.589 438.573 304.367C438.576 304.336 438.594 304.308 438.582 304.276C436.934 295.756 423.72 296.246 424.217 286.747C424.387 283.597 423.957 281.492 421.772 279.1C420.362 277.556 418.627 276.178 417.751 274.228C416.861 272.26 417.013 270.031 416.797 267.932C416.55 265.4 415.869 263.039 413.649 261.597ZM405.167 318.056C402.017 315.627 399.782 313.429 395.578 314.09C392.858 314.518 391.057 314.687 388.703 312.892C387.263 311.791 386.041 310.359 384.274 309.747C379.891 308.252 374.638 312.834 370.903 309.375C368.362 307.008 369.716 302.948 367.261 300.497C366.075 299.315 364.555 299.297 363.035 298.818C359.18 297.577 360.033 294.204 360.727 291.185C361.36 288.466 361.621 285.925 359.451 283.841C357.644 282.118 355.143 281.754 354.621 279.055C353.813 274.79 358.666 274.703 361.66 275.641C361.808 276.302 362.019 276.939 362.359 277.527C362.974 278.574 363.76 279.162 364.805 279.762C365.109 279.947 365.467 280.06 365.789 280.216C368.259 281.469 368.975 283.342 368.037 285.891C367.267 287.996 365.713 289.805 365.582 292.129C365.437 294.59 366.973 296.408 369.394 296.795C372.844 297.348 375.671 294.517 379.059 294.772C382.158 294.997 384.204 297.391 384.59 300.368C384.764 301.677 384.713 303.072 385.23 304.324C386.056 306.316 387.764 307.06 389.851 307.105C391.676 307.154 393.459 306.706 395.279 307.108C396.481 307.385 397.563 307.927 398.52 308.64C398.532 308.672 398.529 308.702 398.543 308.719C399.417 309.793 400.343 310.811 401.269 311.828C401.281 311.86 401.31 311.879 401.337 311.912C405.263 316.221 409.635 320.068 414.532 323.307C414.776 323.471 415.05 323.653 415.31 323.818C411.767 322.224 408.359 320.521 405.167 318.056ZM439.19 313.795C439.821 319.335 436.996 325.289 431.472 327.121C425.836 328.988 419.858 325.207 415.295 322.309C409.807 318.84 404.781 314.618 400.329 309.902C398.189 306.622 394.732 305.991 390.589 305.904C387.826 305.851 386.088 304.812 385.771 301.904C385.653 300.8 385.676 299.68 385.402 298.606C384.888 296.569 383.498 294.827 381.629 293.851C379.602 292.782 377.539 292.955 375.422 293.645C373.911 294.136 372.492 294.929 370.881 295.04C368.774 295.193 366.459 294.679 367.198 291.064C367.387 290.13 368.082 289.202 368.49 288.367C370.239 284.81 370.65 281.099 366.881 278.867C364.604 277.527 362.268 276.764 362.829 273.392C363.256 270.883 365.442 270.108 367.491 269.319C369.766 268.429 371.567 267.368 372.37 264.929C373.171 262.52 372.677 259.993 372.404 257.551C372.198 255.669 372.046 253.547 373.198 251.912C374.799 249.646 377.33 250.013 379.062 251.56C379.088 251.608 379.114 251.657 379.146 251.645C379.371 251.853 379.579 252.074 379.77 252.309C382.78 256.093 382.456 263.903 388.889 264.009C391.207 264.047 393.34 262.743 395.641 262.795C397.698 262.836 399.734 264.122 400.176 266.258C400.504 267.861 399.613 269.353 399.59 270.919C399.566 272.808 400.614 274.285 402.563 274.469C405.654 274.771 408.761 270.722 411.482 273.723C414.838 277.435 409.966 287.162 416.322 289.059C425.48 295.427 437.823 301.63 439.19 313.795ZM415.495 265.338C416.724 268.648 415.669 272.338 417.48 275.522C418.366 277.074 419.738 278.245 420.943 279.538C423.214 281.985 423.44 284.13 423.359 287.321C423.157 296.189 434.481 296.427 437.32 303.239C437.315 303.284 437.297 303.313 437.307 303.361C437.346 303.734 437.57 304.095 437.705 304.432C437.715 304.479 437.743 304.512 437.752 304.575C437.75 304.59 437.765 304.592 437.779 304.608C437.791 304.64 437.802 304.688 437.79 304.656C437.779 304.608 437.8 304.703 437.814 304.72C437.824 304.767 437.836 304.799 437.862 304.848C437.907 305.006 437.953 305.164 437.996 305.338C438.005 305.401 438.03 305.465 438.038 305.527C438.046 305.605 438.04 305.665 438.047 305.743C438.077 306.054 438.135 306.383 438.18 306.695C437.203 304.826 435.968 303.069 434.56 301.51C432.032 298.714 429.023 296.421 425.9 294.332C424.318 293.263 422.683 292.265 421.064 291.253C419.748 290.441 418.366 289.669 417.102 288.801C413.914 286.598 413.879 283.042 413.897 279.568C413.918 276.664 413.958 272.977 411.099 271.316C408.849 270.008 406.918 271.44 404.822 272.24C404.071 272.517 402.875 272.933 402.108 272.608C400.354 271.874 401.076 270.226 401.3 269.096C401.54 267.952 401.71 266.893 401.445 265.727C401.056 263.98 399.853 262.365 398.259 261.556C395.584 260.205 392.932 261.625 390.242 262.056C382.799 263.261 383.809 253.108 379.204 249.575C379.187 248.097 379.358 246.577 380.206 245.357C381.595 243.361 384.157 242.825 385.82 244.902C386.964 246.342 387.221 248.337 388.393 249.795C390.359 252.226 393.055 251.426 395.807 251.585C400.348 251.836 400.453 258.013 404.374 259.815C408.154 261.494 413.761 260.655 415.495 265.338Z" fill="white"/>
<path d="M380.491 282.042C380.469 282.006 380.44 282.045 380.454 282.072C381.179 283.59 381.535 285.279 381.514 286.955C379.626 285.478 377.825 283.9 376.089 282.245C376.116 282.231 376.136 282.2 376.141 282.15C376.543 280.194 376.025 278.051 374.953 276.389C374.909 276.326 374.848 276.429 374.876 276.482C375.379 277.314 375.73 278.223 375.909 279.181C376.086 280.147 376.062 281.118 375.93 282.078C375.93 282.086 375.93 282.086 375.937 282.095C375.119 281.315 374.31 280.527 373.521 279.716C373.515 279.606 373.46 279.492 373.351 279.489C373.335 279.487 373.318 279.486 373.293 279.483C371.883 278.013 370.502 276.511 369.202 274.943C369.083 274.797 368.973 275.054 369.062 275.164C370.212 276.633 371.426 278.05 372.67 279.427C370.748 279.264 368.877 278.686 367.218 277.685C367.146 277.644 367.116 277.775 367.172 277.806C368.946 278.995 370.995 279.717 373.123 279.919C374.549 281.475 376.041 282.962 377.59 284.388C375.979 284.793 374.258 284.717 372.687 284.162C372.614 284.138 372.609 284.271 372.665 284.302C374.266 284.97 376.053 285.137 377.751 284.782C377.82 284.764 377.851 284.708 377.873 284.652C378.956 285.636 380.056 286.604 381.204 287.519C381.794 287.991 382.4 288.464 383.014 288.939C381.852 289.306 380.626 289.474 379.406 289.424C379.348 289.418 379.353 289.536 379.411 289.542C380.754 289.705 382.117 289.585 383.419 289.24C387.249 292.15 391.477 294.95 395.876 296.644C396.199 296.769 396.274 296.122 396.044 295.989C393.596 294.58 391.032 293.394 388.616 291.913C387.03 290.936 385.493 289.881 383.978 288.786C383.951 288.716 383.897 288.677 383.829 288.678C383.111 288.16 382.391 287.649 381.7 287.109C381.719 287.085 381.731 287.045 381.736 287.003C381.755 285.26 381.325 283.563 380.491 282.042Z" fill="white"/>
<path d="M37.2127 294.872C33.4352 296.161 30.0607 298.252 27.1487 300.977C25.7262 302.304 24.4721 303.779 23.3609 305.369C23.4103 305.12 23.4598 304.872 23.4984 304.632C23.812 302.917 23.9735 301.164 23.9976 299.414C24.0441 295.846 23.4421 292.298 22.2802 288.927C22.1945 288.662 21.6857 288.905 21.7605 289.178C22.7379 292.536 23.1322 296.02 22.949 299.504C22.8477 301.244 22.6005 302.977 22.2204 304.674C22.0351 305.484 21.8111 306.289 21.557 307.101C21.3029 307.912 20.8766 308.772 20.7854 309.613C20.7808 309.651 20.787 309.681 20.7931 309.711C20.6394 310.094 20.4858 310.477 20.3707 310.865C20.1753 311.595 21.3582 311.365 21.5938 310.953C22.5012 309.349 23.1731 307.667 24.1917 306.115C25.2558 304.51 26.5038 303.005 27.8536 301.63C30.5486 298.918 33.8205 296.785 37.3293 295.287C37.6158 295.184 37.5509 294.746 37.2127 294.872Z" fill="white"/>
<path d="M43.8573 300.526C38.1215 302.549 32.8959 307.336 29.1892 312.032C27.2154 314.526 25.5103 317.23 24.1387 320.09C22.9224 322.637 21.6836 325.533 21.1861 328.372C18.6913 327.866 16.2629 327.134 13.9511 326.083C11.5475 324.982 9.37005 323.545 7.19496 322.09C7.20577 322.081 7.22739 322.064 7.2382 322.056C9.10854 319.852 10.3967 316.952 11.5065 314.314C12.6055 311.685 13.4666 308.998 14.056 306.21C15.288 300.434 15.4197 294.526 14.4039 288.716C14.3506 288.425 13.8317 288.588 13.8595 288.846C14.4336 294.584 14.0687 300.396 12.673 305.985C11.981 308.732 11.0704 311.423 9.92667 314.017C8.79604 316.584 7.21295 318.841 5.95646 321.314C5.81901 321.318 5.65454 321.464 5.75877 321.575C5.77576 321.596 5.78425 321.607 5.80123 321.629C5.52321 322.232 6.03437 322.46 6.54169 322.393C8.45034 324.355 10.8524 325.878 13.2855 327.061C15.7354 328.265 18.343 329.137 21.0224 329.654C21.1459 330.012 21.6246 330.02 22.0192 329.833C22.1049 329.853 22.1906 329.873 22.2872 329.884C22.9798 329.987 23.8787 328.861 22.9459 328.72C22.888 328.713 22.8409 328.698 22.8023 328.693C23.6572 325.976 24.3254 323.265 25.551 320.642C26.8708 317.804 28.4964 315.111 30.4185 312.639C32.2819 310.249 34.3715 308.013 36.6928 306.049C39.0032 304.094 41.5607 302.61 44.0364 300.91C44.2333 300.737 44.1137 300.429 43.8573 300.526Z" fill="white"/>
<path d="M64.8425 265.526C62.8782 264.272 60.4683 263.385 58.0677 263.156C56.848 258.309 53.9735 253.627 49.3793 251.362C45.219 249.315 39.9397 249.494 36.308 252.504C35.1205 251.549 33.7422 250.796 32.4149 250.353C30.0151 249.546 27.3426 249.46 24.9265 250.257C20.5227 251.706 17.2647 255.926 17.0026 260.555C16.8057 260.483 16.6003 260.399 16.4312 260.34C15.1062 259.877 13.7148 259.642 12.3171 259.621C9.42308 259.586 6.52662 260.551 4.31347 262.429C-0.253384 266.297 -1.56577 273.149 1.77967 278.231C3.29449 280.538 6.50264 283.42 9.51101 283.154C9.56029 285.109 10.3532 286.986 12.0866 288.124C14.1358 289.486 17.0006 289.194 18.6254 287.323C18.8547 287.615 19.1272 287.873 19.4152 288.084C20.4815 288.907 21.7193 289.526 23.035 289.821C24.8565 290.225 26.9028 289.737 28.2071 288.415C28.8054 290.445 30.1473 292.153 31.9363 293.318C34.0882 294.722 36.661 295.148 39.1575 294.743C38.9791 295.25 38.8284 295.771 38.7767 296.283C38.6167 297.86 39.0668 299.412 39.957 300.723C40.8557 302.045 42.1305 303.089 43.5759 303.772C45.1797 304.523 47.2622 305.037 49.052 304.89C49.3486 304.867 49.6914 304.702 49.7949 304.411C49.8938 304.159 49.7695 303.889 49.4799 303.854C48.6328 303.733 47.7804 303.738 46.9464 303.589C46.1511 303.445 45.3844 303.225 44.6377 302.92C43.2664 302.354 42.0348 301.521 41.1068 300.362C40.2297 299.268 39.6769 297.919 39.6701 296.508C39.664 295.009 40.2478 293.816 41.1042 292.636C41.2324 292.466 40.9321 292.44 40.8263 292.505C40.3382 292.819 39.9691 293.283 39.6448 293.783C39.5954 293.787 39.5567 293.782 39.4965 293.795C37.1568 294.199 34.6319 293.7 32.6205 292.431C30.9102 291.344 29.6085 289.709 28.6364 287.938C28.7407 287.803 28.8449 287.669 28.9214 287.522C29.2967 286.842 28.1269 286.8 27.8388 287.323C26.9314 288.928 24.9469 289.228 23.2775 288.861C22.1996 288.624 21.2035 288.113 20.2245 287.623C19.799 287.415 19.3141 287.132 18.9675 286.757C18.959 286.746 18.9505 286.736 18.942 286.725C18.7188 286.463 18.5474 286.178 18.5529 285.807C18.5567 285.611 18.21 285.726 18.1745 285.859C18.1204 286.146 18.1652 286.426 18.2532 286.671C18.2208 286.697 18.1822 286.692 18.1582 286.729C16.7335 288.565 14.1282 288.653 12.3144 287.368C10.2853 285.92 9.48783 283.347 9.84396 280.952C9.85092 280.894 9.76907 280.924 9.75594 280.951C9.60223 281.579 9.51494 282.225 9.50717 282.86C8.97131 282.512 8.33352 282.279 7.7714 281.986C7.03401 281.604 6.32906 281.196 5.68511 280.688C4.45048 279.717 3.38344 278.492 2.59669 277.135C0.851809 274.135 0.647437 270.537 1.992 267.33C3.33888 264.104 6.07251 261.642 9.50175 260.888C11.1411 260.527 12.8607 260.557 14.4892 260.939C15.2798 261.122 16.0504 261.391 16.801 261.745C17.5878 262.124 18.278 262.735 19.0981 263C19.3807 263.093 20.115 262.848 19.8911 262.429C19.4495 261.623 18.4449 261.1 17.4929 260.712C18.0059 256.358 21.0972 252.303 25.3766 251.074C27.5765 250.448 29.9648 250.617 32.0983 251.441C33.1082 251.836 34.0742 252.354 34.9335 253.025C35.857 253.733 36.5171 254.595 37.2653 255.459C37.6182 255.863 38.673 255.315 38.3919 254.801C38.0453 254.182 37.5735 253.626 37.0392 253.101C40.5396 250.369 45.561 250.463 49.3576 252.603C53.3464 254.854 55.8163 258.91 57.4175 263.107C56.7951 263.071 56.1681 263.074 55.562 263.149C55.4825 263.159 55.3589 263.291 55.494 263.307C56.206 263.412 56.9179 263.517 57.6167 263.65C57.6754 263.814 57.7448 263.969 57.7927 264.141C57.8637 264.365 58.3463 264.178 58.2946 263.956C58.2715 263.905 58.2398 263.842 58.2275 263.782C60.5509 264.247 62.7646 264.973 64.7613 266.446C67.1271 268.189 68.8674 270.738 69.5096 273.625C70.1164 276.401 69.6691 279.392 67.8798 281.654C66.0906 283.917 63.2358 285.268 60.3541 284.804C59.7387 284.711 58.9525 285.713 59.7803 285.832C64.5236 286.529 69.2681 283.221 70.4961 278.62C71.84 273.543 69.117 268.252 64.8425 265.526Z" fill="white"/>
<path d="M64.5482 285.425C64.4671 285.367 64.264 285.509 64.3512 285.597C67.8041 288.724 68.7937 294.101 66.2229 298.061C64.7687 300.305 62.4514 301.583 60.0075 301.877C59.958 301.881 59.9109 301.866 59.8592 301.889C57.6585 302.114 55.366 301.555 53.4936 300.106C53.0095 299.735 51.9122 300.475 52.4411 300.881C54.4864 302.438 56.9434 303.096 59.341 302.943C58.9493 305.471 56.5825 307.243 54.0861 307.403C52.6059 307.5 51.1704 307.141 49.8207 306.558C48.7876 306.111 47.0155 305.213 47.1801 303.842C47.1871 303.785 47.1052 303.814 47.0921 303.842C46.5059 305.299 48.0085 306.321 49.1242 306.896C50.6353 307.684 52.4182 308.084 54.12 307.936C56.9609 307.68 59.6111 305.668 60.1858 302.839C62.7378 302.46 65.1586 301.135 66.8143 298.925C70.0669 294.587 69.1423 288.425 64.5482 285.425Z" fill="white"/>
<path d="M43.5051 262.69C42.5354 260.899 40.6453 259.761 38.5897 259.838C37.6554 259.872 36.7164 260.191 35.9072 260.651C35.5597 260.855 35.2269 261.098 34.911 261.364C33.5954 260.09 31.621 259.491 29.8488 260.061C28.1693 260.594 26.5685 261.939 26.1599 263.711C25.9815 264.463 25.9945 265.904 26.9111 266.18C27.1381 266.247 27.5481 266.012 27.5119 265.743C27.4794 265.524 27.3304 265.379 27.227 265.18C27.132 264.993 27.0695 264.78 27.0456 264.571C26.9977 264.154 27.0572 263.74 27.1831 263.344C27.4743 262.469 28.1507 261.727 28.9237 261.242C30.6858 260.103 33.0155 260.353 34.6361 261.615C34.3134 261.939 34.0245 262.305 33.8577 262.716C33.6253 263.266 34.4105 263.331 34.6862 262.992C35.1681 262.403 35.6392 261.824 36.287 261.402C36.9241 260.989 37.6754 260.766 38.4298 260.68C40.2437 260.497 42.0327 261.416 43.0889 262.894C43.2271 263.048 43.6194 262.88 43.5051 262.69Z" fill="white"/>
<path d="M53.0094 282.689C52.9863 282.147 51.9423 282.443 52.0002 282.94C52.2062 284.648 51.5034 286.424 50.0988 287.44C48.6617 288.482 46.6981 288.608 45.0897 287.896C44.9785 287.844 44.7515 288.022 44.899 288.099C46.6131 288.99 48.7335 288.863 50.3551 287.833C52.0802 286.758 53.1096 284.708 53.0094 282.689Z" fill="white"/>
<path d="M57.6057 279.393C57.5772 278.978 56.7849 279.216 56.8289 279.583C57.143 282.186 55.4278 284.565 52.8511 285.069C52.5994 285.126 52.5901 285.448 52.8696 285.404C55.7637 284.948 57.8356 282.289 57.6057 279.393Z" fill="white"/>
</svg>
