<svg width="296" height="297" viewBox="0 0 296 297" fill="none" xmlns="http://www.w3.org/2000/svg">
<path d="M154.641 141.683L141.375 154.949L246.943 260.517L260.209 247.251L154.641 141.683Z" fill="#EDF9FC"/>
<path d="M227.683 265.702C202.612 265.702 182.389 258.515 167.263 244.267C143.529 221.912 138.348 187.816 138.014 163.121V161.241C138.014 156.728 138.014 152.216 138.515 147.787L139.1 139.722L147.164 139.137C152.471 138.719 157.527 138.552 162.666 138.636C187.277 138.636 221.415 144.026 243.728 167.885C258.102 182.718 265.33 203.025 265.33 228.096C265.33 231.313 265.33 234.698 264.954 238.417C264.539 244.204 263.814 249.964 262.782 255.674L261.653 262.108L255.219 263.237C249.494 264.281 243.728 264.992 238.087 265.451C234.549 265.618 231.081 265.702 227.683 265.702ZM156.942 157.272C156.942 158.567 156.942 159.821 156.942 161.116V163.038C156.942 183.93 161.12 212.803 180.132 230.603C193.378 243.138 212.39 248.403 236.708 246.607C239.591 246.398 242.474 246.063 245.399 245.687C245.775 242.762 246.068 239.837 246.319 236.996C246.569 234.155 246.528 230.812 246.528 228.096C246.528 208.081 241.054 192.12 230.19 180.587C212.39 161.743 183.559 157.564 162.541 157.397L156.942 157.272Z" fill="#EDF9FC"/>
<path d="M49.0939 36.1655L35.8278 49.4316L141.395 154.999L154.662 141.733L49.0939 36.1655Z" fill="#EDF9FC"/>
<path d="M135.381 158.191H133.208C108.555 158.191 74.4594 152.801 52.1048 128.942C37.8564 113.816 30.6277 93.509 30.6277 68.5637C30.6277 65.3464 30.6277 61.9618 31.0037 58.243C31.4634 52.4768 32.1737 46.7523 33.2183 40.9861L34.3465 34.5513L40.7813 33.4231C46.4493 32.3961 52.1679 31.6709 57.9128 31.2504C87.7051 29.0358 111.522 36.0973 128.946 52.1425C152.638 74.4553 157.861 108.593 158.195 133.246V135.251C158.195 139.764 158.195 144.277 157.694 148.706L156.775 157.063L148.71 157.648C144.156 158.024 139.768 158.191 135.381 158.191ZM50.6424 50.9726C50.2245 53.8975 49.932 56.8224 49.7231 59.6637C49.5142 62.505 49.3888 65.8896 49.3888 68.6891C49.3888 88.7038 54.9044 104.665 65.7683 116.198C83.5684 135.084 112.358 139.221 133.375 139.388H139.058C139.058 138.093 139.058 136.839 139.058 135.544V133.622C139.058 112.73 134.88 83.8568 115.826 66.0567C102.664 53.6467 83.5684 48.4237 59.3335 50.0533C56.4504 50.2622 53.5673 50.5965 50.6424 50.9726Z" fill="#EDF9FC"/>
<path d="M141.36 141.719L35.7921 247.287L49.0583 260.553L154.626 154.985L141.36 141.719Z" fill="#EDF9FC"/>
<path d="M68.3592 265.702C65.1418 265.702 61.6737 265.702 57.9967 265.368C52.2249 264.918 46.4793 264.179 40.7816 263.153L34.3468 262.025L33.4275 255.549C32.3829 249.782 31.6726 244.058 31.213 238.417C28.9984 208.625 36.1017 184.808 52.1051 167.593C74.4597 143.901 108.556 138.678 133.25 138.344H135.256C139.727 138.344 144.24 138.344 148.71 138.845L156.775 139.43L157.36 147.494C157.778 152.801 157.945 157.857 157.861 162.996C157.652 187.649 152.429 221.745 128.612 244.1C113.612 258.474 93.3044 265.702 68.3592 265.702ZM50.6427 245.729C53.5676 246.105 56.4507 246.44 59.3338 246.649C62.2169 246.857 65.5597 246.983 68.3592 246.983C88.3739 246.983 104.335 241.467 115.826 230.603C134.713 212.803 138.891 184.014 139.058 162.996C139.058 161.074 139.058 159.194 139.058 157.314H133.292C112.4 157.314 83.5269 161.492 65.7268 180.546C53.1915 193.75 47.9267 212.761 49.7234 237.08C50.1412 239.879 50.1413 242.763 50.6427 245.688V245.729Z" fill="#EDF9FC"/>
<path d="M246.907 36.1L141.339 141.668L154.605 154.934L260.173 49.3661L246.907 36.1Z" fill="#EDF9FC"/>
<path d="M160.744 158.191C156.273 158.191 151.719 158.191 147.331 157.69L139.267 157.063L138.64 148.999C138.264 143.65 138.097 138.594 138.139 133.497C138.139 108.844 143.571 74.7479 167.388 52.3933C182.472 38.1866 202.821 30.9579 227.766 30.9579C230.984 30.9579 234.452 30.9579 238.087 31.2922C243.873 31.7396 249.632 32.4787 255.344 33.5068L261.779 34.635L262.907 41.0697C263.931 46.7382 264.656 52.4566 265.08 58.2013C267.294 87.9935 260.233 111.811 244.187 129.026C221.457 152.885 187.444 157.982 162.959 158.191H160.744ZM156.942 139.388H162.708C183.6 139.388 212.431 135.21 230.231 116.156C242.767 102.952 248.073 83.9404 246.277 59.622C246.026 56.7807 245.733 53.8557 245.357 50.9308C242.432 50.5548 239.508 50.2205 236.624 50.0116C233.741 49.8027 230.44 49.7191 227.641 49.7191C207.626 49.7191 191.665 55.1928 180.132 66.0568C161.246 83.8569 157.109 112.646 156.9 133.706C156.9 135.628 156.9 137.508 156.942 139.388Z" fill="#EDF9FC"/>
<path d="M54.3196 148.33C45.6618 154.916 35.1879 158.68 24.3185 159.111C15.2145 158.418 6.62694 154.611 0 148.33C6.60773 142.103 15.1418 138.315 24.1931 137.592C35.1033 137.974 45.6273 141.726 54.3196 148.33Z" fill="#EDF9FC"/>
<path d="M241.806 148.33C250.468 141.752 260.939 137.989 271.807 137.55C280.859 138.301 289.389 142.101 296 148.33C289.398 154.567 280.861 158.356 271.807 159.069C261.403 159.403 250.706 154.431 241.806 148.33Z" fill="#EDF9FC"/>
<path d="M148 54.5242C141.858 45.4988 136.885 34.8856 137.22 24.5231C137.942 15.4718 141.73 6.93768 147.958 0.329956C154.228 6.91825 158.048 15.4579 158.78 24.5231C158.325 35.3878 154.564 45.8547 148 54.5242Z" fill="#EDF9FC"/>
<path d="M148 242.178C154.599 250.812 158.365 261.277 158.78 272.137C158.074 281.192 154.284 289.732 148.042 296.33C141.8 289.732 138.009 281.192 137.303 272.137C137.708 261.289 141.443 250.829 148 242.178Z" fill="#EDF9FC"/>
</svg>
