<svg width="50" height="50" viewBox="0 0 50 50" fill="none" xmlns="http://www.w3.org/2000/svg">
<circle cx="25" cy="25" r="25" fill="white"/>
<g clip-path="url(#clip0_214_11)">
<path d="M18 15.2879V20.8344C18 21.1896 18.275 21.479 18.6121 21.479H22.085C22.422 21.479 22.697 21.1896 22.697 20.8344V15.2879C22.697 14.9327 22.422 14.6433 22.085 14.6433H18.6121C18.275 14.6433 18 14.9327 18 15.2879ZM21.1136 20.5143H19.6677C19.2641 20.5143 18.9359 20.168 18.9359 19.747V16.4936C18.9359 16.0683 19.2641 15.7263 19.6677 15.7263H21.1136C21.5172 15.7263 21.8454 16.0727 21.8454 16.4936V19.747C21.8454 20.168 21.5172 20.5143 21.1136 20.5143Z" fill="#47D7D4"/>
<path d="M29.8957 15.8228H25.4514H21.0072C21.0072 15.8228 22.2048 17.2303 19.9561 18.8921V19.9575H25.4514H30.9468V18.8921C28.6937 17.2303 29.8957 15.8228 29.8957 15.8228Z" fill="#47D7D4"/>
<path d="M30.0019 39H20.9228C20.3728 39 19.9248 38.5572 19.9248 38.0135V19.0367C19.9248 18.8438 20.0845 18.686 20.2796 18.686H30.6495C30.8446 18.686 31.0043 18.8438 31.0043 19.0367V38.0178C30.9999 38.5615 30.5519 39 30.0019 39Z" fill="#3D9FAA"/>
<path d="M20.7764 13.7269V15.4896C20.7764 15.814 21.0425 16.0727 21.3663 16.0727H29.5584C29.8866 16.0727 30.1527 15.8096 30.1527 15.4896V13.7269H20.7764Z" fill="#3D9FAA"/>
<path d="M27.2435 12.0213H23.7617V10.4034C23.7617 10.1798 23.9436 10 24.1698 10H26.8354C27.0616 10 27.2435 10.1798 27.2435 10.4034V12.0213Z" fill="#3D9FAA"/>
<path d="M29.8516 28.7251C30.226 26.3125 28.551 24.0567 26.1105 23.6866C23.6699 23.3166 21.388 24.9724 21.0137 27.385C20.6394 29.7977 22.3144 32.0535 24.7549 32.4235C27.1954 32.7936 29.4773 31.1377 29.8516 28.7251Z" fill="#47D7D4"/>
<path d="M27.0395 28.8671C27.0395 29.7046 26.352 30.3842 25.5048 30.3842C24.6577 30.3842 23.9702 29.7046 23.9702 28.8671C23.9702 28.0296 25.5048 25.4515 25.5048 25.4515C25.5048 25.4515 27.0395 28.0296 27.0395 28.8671Z" fill="white"/>
<path d="M27.2431 11.903H25.5045H23.7658L20.9494 13.2271C20.8429 13.2797 20.772 13.385 20.772 13.5033V13.7971H30.1483V13.499C30.1483 13.3806 30.0818 13.2753 29.9753 13.2227L27.2431 11.903Z" fill="#47D7D4"/>
</g>
<defs>
<clipPath id="clip0_214_11">
<rect width="13" height="29" fill="white" transform="translate(18 10)"/>
</clipPath>
</defs>
</svg>
