<svg width="208" height="70" viewBox="0 0 208 70" fill="none" xmlns="http://www.w3.org/2000/svg">
<path d="M76.564 19.912C78.052 19.912 79.396 20.236 80.596 20.884C81.796 21.508 82.732 22.456 83.404 23.728C84.1 25 84.448 26.548 84.448 28.372V40H81.208V28.84C81.208 26.872 80.716 25.372 79.732 24.34C78.748 23.284 77.404 22.756 75.7 22.756C73.972 22.756 72.592 23.296 71.56 24.376C70.552 25.456 70.048 27.028 70.048 29.092V40H66.772V13.36H70.048V23.08C70.696 22.072 71.584 21.292 72.712 20.74C73.864 20.188 75.148 19.912 76.564 19.912ZM107.799 29.38C107.799 30.004 107.763 30.664 107.691 31.36H91.9233C92.0433 33.304 92.7033 34.828 93.9033 35.932C95.1273 37.012 96.6033 37.552 98.3313 37.552C99.7473 37.552 100.923 37.228 101.859 36.58C102.819 35.908 103.491 35.02 103.875 33.916H107.403C106.875 35.812 105.819 37.36 104.235 38.56C102.651 39.736 100.683 40.324 98.3313 40.324C96.4593 40.324 94.7793 39.904 93.2913 39.064C91.8273 38.224 90.6753 37.036 89.8353 35.5C88.9953 33.94 88.5753 32.14 88.5753 30.1C88.5753 28.06 88.9833 26.272 89.7993 24.736C90.6153 23.2 91.7553 22.024 93.2193 21.208C94.7073 20.368 96.4113 19.948 98.3313 19.948C100.203 19.948 101.859 20.356 103.299 21.172C104.739 21.988 105.843 23.116 106.611 24.556C107.403 25.972 107.799 27.58 107.799 29.38ZM104.415 28.696C104.415 27.448 104.139 26.38 103.587 25.492C103.035 24.58 102.279 23.896 101.319 23.44C100.383 22.96 99.3393 22.72 98.1873 22.72C96.5313 22.72 95.1153 23.248 93.9393 24.304C92.7873 25.36 92.1273 26.824 91.9593 28.696H104.415ZM115.4 13.36V40H112.124V13.36H115.4ZM138.983 29.38C138.983 30.004 138.947 30.664 138.875 31.36H123.107C123.227 33.304 123.887 34.828 125.087 35.932C126.311 37.012 127.787 37.552 129.515 37.552C130.931 37.552 132.107 37.228 133.043 36.58C134.003 35.908 134.675 35.02 135.059 33.916H138.587C138.059 35.812 137.003 37.36 135.419 38.56C133.835 39.736 131.867 40.324 129.515 40.324C127.643 40.324 125.963 39.904 124.475 39.064C123.011 38.224 121.859 37.036 121.019 35.5C120.179 33.94 119.759 32.14 119.759 30.1C119.759 28.06 120.167 26.272 120.983 24.736C121.799 23.2 122.939 22.024 124.403 21.208C125.891 20.368 127.595 19.948 129.515 19.948C131.387 19.948 133.043 20.356 134.483 21.172C135.923 21.988 137.027 23.116 137.795 24.556C138.587 25.972 138.983 27.58 138.983 29.38ZM135.599 28.696C135.599 27.448 135.323 26.38 134.771 25.492C134.219 24.58 133.463 23.896 132.503 23.44C131.567 22.96 130.523 22.72 129.371 22.72C127.715 22.72 126.299 23.248 125.123 24.304C123.971 25.36 123.311 26.824 123.143 28.696H135.599ZM152.919 19.912C155.319 19.912 157.263 20.644 158.751 22.108C160.239 23.548 160.983 25.636 160.983 28.372V40H157.743V28.84C157.743 26.872 157.251 25.372 156.267 24.34C155.283 23.284 153.939 22.756 152.235 22.756C150.507 22.756 149.127 23.296 148.095 24.376C147.087 25.456 146.583 27.028 146.583 29.092V40H143.307V20.272H146.583V23.08C147.231 22.072 148.107 21.292 149.211 20.74C150.339 20.188 151.575 19.912 152.919 19.912ZM165.111 30.064C165.111 28.048 165.519 26.284 166.335 24.772C167.151 23.236 168.267 22.048 169.683 21.208C171.123 20.368 172.719 19.948 174.471 19.948C176.199 19.948 177.699 20.32 178.971 21.064C180.243 21.808 181.191 22.744 181.815 23.872V20.272H185.127V40H181.815V36.328C181.167 37.48 180.195 38.44 178.899 39.208C177.627 39.952 176.139 40.324 174.435 40.324C172.683 40.324 171.099 39.892 169.683 39.028C168.267 38.164 167.151 36.952 166.335 35.392C165.519 33.832 165.111 32.056 165.111 30.064ZM181.815 30.1C181.815 28.612 181.515 27.316 180.915 26.212C180.315 25.108 179.499 24.268 178.467 23.692C177.459 23.092 176.343 22.792 175.119 22.792C173.895 22.792 172.779 23.08 171.771 23.656C170.763 24.232 169.959 25.072 169.359 26.176C168.759 27.28 168.459 28.576 168.459 30.064C168.459 31.576 168.759 32.896 169.359 34.024C169.959 35.128 170.763 35.98 171.771 36.58C172.779 37.156 173.895 37.444 175.119 37.444C176.343 37.444 177.459 37.156 178.467 36.58C179.499 35.98 180.315 35.128 180.915 34.024C181.515 32.896 181.815 31.588 181.815 30.1Z" fill="white"/>
<path d="M33.5542 39.4269L30.6758 42.3763L53.5817 65.847L56.4602 62.8976L33.5542 39.4269Z" fill="white"/>
<path d="M49.4011 66.9996C43.9613 66.9996 39.5732 65.4018 36.2912 62.2339C31.1416 57.2639 30.0174 49.6834 29.9448 44.1931V43.7751C29.9448 42.7718 29.9448 41.7685 30.0536 40.7837L30.1805 38.9908L31.9303 38.8608C33.0818 38.7679 34.1788 38.7307 35.2939 38.7493C40.634 38.7493 48.0412 39.9477 52.8826 45.2521C56.0014 48.55 57.5698 53.0649 57.5698 58.6388C57.5698 59.3541 57.5698 60.1066 57.4882 60.9334C57.3981 62.22 57.2408 63.5007 57.0168 64.77L56.772 66.2007L55.3758 66.4515C54.1337 66.6838 52.8826 66.8417 51.6586 66.9439C50.891 66.981 50.1385 66.9996 49.4011 66.9996ZM34.0519 42.8925C34.0519 43.1805 34.0519 43.4592 34.0519 43.7472V44.1745C34.0519 48.8194 34.9585 55.2387 39.0837 59.1962C41.9577 61.9831 46.0828 63.1536 51.3594 62.7542C51.985 62.7077 52.6106 62.6334 53.2452 62.5498C53.3268 61.8995 53.3903 61.2492 53.4447 60.6175C53.4991 59.9858 53.49 59.2426 53.49 58.6388C53.49 54.1889 52.3023 50.6402 49.9451 48.0763C46.0828 43.8865 39.8271 42.9576 35.2667 42.9204L34.0519 42.8925Z" fill="white"/>
<path d="M10.6514 15.9674L7.77295 18.9169L30.6789 42.3875L33.5574 39.4381L10.6514 15.9674Z" fill="white"/>
<path d="M29.3762 43.0969H28.9047C23.5556 43.0969 16.1575 41.8985 11.307 36.594C8.21544 33.2311 6.64697 28.7162 6.64697 23.1702C6.64697 22.4549 6.64697 21.7024 6.72857 20.8756C6.8283 19.5936 6.98243 18.3209 7.20908 17.0389L7.45387 15.6083L8.85008 15.3575C10.0799 15.1291 11.3207 14.9679 12.5673 14.8744C19.0315 14.382 24.1993 15.952 27.98 19.5193C33.1206 24.4801 34.2539 32.0699 34.3264 37.5508V37.9968C34.3264 39.0001 34.3264 40.0034 34.2176 40.9881L34.0181 42.846L32.2683 42.9761C31.2801 43.0597 30.3281 43.0969 29.3762 43.0969ZM10.9897 19.2592C10.8991 19.9095 10.8356 20.5598 10.7903 21.1915C10.7449 21.8232 10.7177 22.5757 10.7177 23.1981C10.7177 27.6479 11.9145 31.1966 14.2717 33.7606C18.134 37.9596 24.3807 38.8793 28.941 38.9165H30.174C30.174 38.6285 30.174 38.3498 30.174 38.0618V37.6345C30.174 32.9895 29.2674 26.5703 25.1332 22.6128C22.2773 19.8537 18.134 18.6925 12.8755 19.0548C12.2499 19.1013 11.6244 19.1756 10.9897 19.2592Z" fill="white"/>
<path d="M30.6701 39.435L7.76416 62.9056L10.6426 65.8551L33.5486 42.3844L30.6701 39.435Z" fill="white"/>
<path d="M14.8318 67.0001C14.1337 67.0001 13.3812 67.0001 12.5833 66.9257C11.331 66.8257 10.0843 66.6614 8.84802 66.4334L7.45181 66.1826L7.25235 64.7426C7.0257 63.4606 6.87157 62.1879 6.77184 60.9338C6.29133 54.3102 7.8326 49.015 11.305 45.1876C16.1555 39.9202 23.5536 38.759 28.9117 38.6847H29.3469C30.317 38.6847 31.2962 38.6847 32.2663 38.7962L34.0161 38.9262L34.143 40.7192C34.2337 41.899 34.2699 43.023 34.2518 44.1657C34.2065 49.6467 33.0732 57.2272 27.9054 62.1972C24.6506 65.3929 20.2444 67.0001 14.8318 67.0001ZM10.9877 62.5595C11.6223 62.6431 12.2479 62.7175 12.8735 62.7639C13.499 62.8104 14.2243 62.8382 14.8318 62.8382C19.1745 62.8382 22.6379 61.612 25.1311 59.1966C29.2291 55.2391 30.1357 48.8385 30.172 44.1657C30.172 43.7384 30.172 43.3203 30.172 42.9023H28.9208C24.3877 42.9023 18.1228 43.8312 14.2606 48.0674C11.5407 51.003 10.3984 55.2299 10.7882 60.6365C10.8789 61.2589 10.8789 61.8999 10.9877 62.5502V62.5595Z" fill="white"/>
<path d="M53.5729 15.9527L30.667 39.4233L33.5455 42.3728L56.4514 18.9021L53.5729 15.9527Z" fill="white"/>
<path d="M34.8779 43.0974C33.9078 43.0974 32.9196 43.0974 31.9676 42.986L30.2178 42.8466L30.0818 41.0537C30.0002 39.8646 29.964 38.7405 29.973 37.6071C29.973 32.1262 31.1517 24.5457 36.3194 19.5756C39.5924 16.4171 44.0077 14.8099 49.4202 14.8099C50.1184 14.8099 50.8709 14.8099 51.6596 14.8843C52.915 14.9837 54.1648 15.148 55.404 15.3766L56.8002 15.6274L57.045 17.0581C57.2673 18.3183 57.4246 19.5897 57.5165 20.8669C57.997 27.4905 56.4648 32.7857 52.9833 36.6131C48.0512 41.9176 40.6713 43.051 35.3584 43.0974H34.8779ZM34.0529 38.917H35.304C39.8372 38.917 46.0929 37.988 49.9552 33.7519C52.6751 30.8163 53.8265 26.5894 53.4366 21.1828C53.3822 20.551 53.3188 19.9008 53.2372 19.2505C52.6025 19.1669 51.9679 19.0925 51.3423 19.0461C50.7167 18.9996 50.0005 18.9811 49.3931 18.9811C45.0503 18.9811 41.587 20.198 39.0847 22.6134C34.9867 26.5708 34.0891 32.9715 34.0438 37.6536C34.0438 38.0809 34.0438 38.499 34.0529 38.917Z" fill="white"/>
<path d="M11.7862 40.9045C9.90763 42.3686 7.63502 43.2054 5.27659 43.3012C3.30123 43.1472 1.4379 42.3008 0 40.9045C1.43374 39.5198 3.28546 38.6776 5.24939 38.517C7.61666 38.602 9.90016 39.436 11.7862 40.9045Z" fill="white"/>
<path d="M52.4673 40.9052C54.3467 39.4426 56.6188 38.606 58.9769 38.5084C60.9411 38.6753 62.7918 39.5203 64.2263 40.9052C62.7938 42.2917 60.9414 43.1342 58.9769 43.2927C56.7194 43.367 54.3984 42.2615 52.4673 40.9052Z" fill="white"/>
<path d="M32.1121 20.0489C30.7793 18.0423 29.7005 15.6827 29.773 13.3788C29.9298 11.3665 30.7517 9.46908 32.103 8C33.4634 9.46476 34.2923 11.3634 34.4512 13.3788C34.3525 15.7943 33.5364 18.1214 32.1121 20.0489Z" fill="white"/>
<path d="M72.14 45.03V52H71.23V48.84H67.68V52H66.77V45.03H67.68V48.09H71.23V45.03H72.14ZM78.6938 49.05C78.6938 49.2233 78.6838 49.4067 78.6638 49.6H74.2838C74.3172 50.14 74.5005 50.5633 74.8338 50.87C75.1738 51.17 75.5838 51.32 76.0638 51.32C76.4572 51.32 76.7838 51.23 77.0438 51.05C77.3105 50.8633 77.4972 50.6167 77.6038 50.31H78.5838C78.4372 50.8367 78.1438 51.2667 77.7038 51.6C77.2638 51.9267 76.7172 52.09 76.0638 52.09C75.5438 52.09 75.0772 51.9733 74.6638 51.74C74.2572 51.5067 73.9372 51.1767 73.7038 50.75C73.4705 50.3167 73.3538 49.8167 73.3538 49.25C73.3538 48.6833 73.4672 48.1867 73.6938 47.76C73.9205 47.3333 74.2372 47.0067 74.6438 46.78C75.0572 46.5467 75.5305 46.43 76.0638 46.43C76.5838 46.43 77.0438 46.5433 77.4438 46.77C77.8438 46.9967 78.1505 47.31 78.3638 47.71C78.5838 48.1033 78.6938 48.55 78.6938 49.05ZM77.7538 48.86C77.7538 48.5133 77.6772 48.2167 77.5238 47.97C77.3705 47.7167 77.1605 47.5267 76.8938 47.4C76.6338 47.2667 76.3438 47.2 76.0238 47.2C75.5638 47.2 75.1705 47.3467 74.8438 47.64C74.5238 47.9333 74.3405 48.34 74.2938 48.86H77.7538ZM79.555 49.24C79.555 48.68 79.6683 48.19 79.895 47.77C80.1217 47.3433 80.4317 47.0133 80.825 46.78C81.225 46.5467 81.6683 46.43 82.155 46.43C82.635 46.43 83.0517 46.5333 83.405 46.74C83.7583 46.9467 84.0217 47.2067 84.195 47.52V46.52H85.115V52H84.195V50.98C84.015 51.3 83.745 51.5667 83.385 51.78C83.0317 51.9867 82.6183 52.09 82.145 52.09C81.6583 52.09 81.2183 51.97 80.825 51.73C80.4317 51.49 80.1217 51.1533 79.895 50.72C79.6683 50.2867 79.555 49.7933 79.555 49.24ZM84.195 49.25C84.195 48.8367 84.1117 48.4767 83.945 48.17C83.7783 47.8633 83.5517 47.63 83.265 47.47C82.985 47.3033 82.675 47.22 82.335 47.22C81.995 47.22 81.685 47.3 81.405 47.46C81.125 47.62 80.9017 47.8533 80.735 48.16C80.5683 48.4667 80.485 48.8267 80.485 49.24C80.485 49.66 80.5683 50.0267 80.735 50.34C80.9017 50.6467 81.125 50.8833 81.405 51.05C81.685 51.21 81.995 51.29 82.335 51.29C82.675 51.29 82.985 51.21 83.265 51.05C83.5517 50.8833 83.7783 50.6467 83.945 50.34C84.1117 50.0267 84.195 49.6633 84.195 49.25ZM87.5628 44.6V52H86.6528V44.6H87.5628ZM90.2238 47.27V50.5C90.2238 50.7667 90.2804 50.9567 90.3938 51.07C90.5071 51.1767 90.7038 51.23 90.9837 51.23H91.6538V52H90.8338C90.3271 52 89.9471 51.8833 89.6938 51.65C89.4404 51.4167 89.3138 51.0333 89.3138 50.5V47.27H88.6038V46.52H89.3138V45.14H90.2238V46.52H91.6538V47.27H90.2238ZM95.4763 46.42C95.8897 46.42 96.263 46.51 96.5963 46.69C96.9297 46.8633 97.1897 47.1267 97.3763 47.48C97.5697 47.8333 97.6663 48.2633 97.6663 48.77V52H96.7663V48.9C96.7663 48.3533 96.6297 47.9367 96.3563 47.65C96.083 47.3567 95.7097 47.21 95.2363 47.21C94.7563 47.21 94.373 47.36 94.0863 47.66C93.8063 47.96 93.6663 48.3967 93.6663 48.97V52H92.7563V44.6H93.6663V47.3C93.8463 47.02 94.093 46.8033 94.4063 46.65C94.7263 46.4967 95.083 46.42 95.4763 46.42ZM102.729 45.77V48.1H105.269V48.85H102.729V51.25H105.569V52H101.819V45.02H105.569V45.77H102.729ZM109.616 46.42C110.282 46.42 110.822 46.6233 111.236 47.03C111.649 47.43 111.856 48.01 111.856 48.77V52H110.956V48.9C110.956 48.3533 110.819 47.9367 110.546 47.65C110.272 47.3567 109.899 47.21 109.426 47.21C108.946 47.21 108.562 47.36 108.276 47.66C107.996 47.96 107.856 48.3967 107.856 48.97V52H106.946V46.52H107.856V47.3C108.036 47.02 108.279 46.8033 108.586 46.65C108.899 46.4967 109.242 46.42 109.616 46.42ZM114.252 47.41C114.412 47.0967 114.639 46.8533 114.932 46.68C115.232 46.5067 115.596 46.42 116.022 46.42V47.36H115.782C114.762 47.36 114.252 47.9133 114.252 49.02V52H113.342V46.52H114.252V47.41ZM117.543 45.63C117.369 45.63 117.223 45.57 117.103 45.45C116.983 45.33 116.923 45.1833 116.923 45.01C116.923 44.8367 116.983 44.69 117.103 44.57C117.223 44.45 117.369 44.39 117.543 44.39C117.709 44.39 117.849 44.45 117.963 44.57C118.083 44.69 118.143 44.8367 118.143 45.01C118.143 45.1833 118.083 45.33 117.963 45.45C117.849 45.57 117.709 45.63 117.543 45.63ZM117.983 46.52V52H117.073V46.52H117.983ZM119.194 49.25C119.194 48.6833 119.307 48.19 119.534 47.77C119.76 47.3433 120.074 47.0133 120.474 46.78C120.88 46.5467 121.344 46.43 121.864 46.43C122.537 46.43 123.09 46.5933 123.524 46.92C123.964 47.2467 124.254 47.7 124.394 48.28H123.414C123.32 47.9467 123.137 47.6833 122.864 47.49C122.597 47.2967 122.264 47.2 121.864 47.2C121.344 47.2 120.924 47.38 120.604 47.74C120.284 48.0933 120.124 48.5967 120.124 49.25C120.124 49.91 120.284 50.42 120.604 50.78C120.924 51.14 121.344 51.32 121.864 51.32C122.264 51.32 122.597 51.2267 122.864 51.04C123.13 50.8533 123.314 50.5867 123.414 50.24H124.394C124.247 50.8 123.954 51.25 123.514 51.59C123.074 51.9233 122.524 52.09 121.864 52.09C121.344 52.09 120.88 51.9733 120.474 51.74C120.074 51.5067 119.76 51.1767 119.534 50.75C119.307 50.3233 119.194 49.8233 119.194 49.25ZM128.328 46.42C128.741 46.42 129.115 46.51 129.448 46.69C129.781 46.8633 130.041 47.1267 130.228 47.48C130.421 47.8333 130.518 48.2633 130.518 48.77V52H129.618V48.9C129.618 48.3533 129.481 47.9367 129.208 47.65C128.935 47.3567 128.561 47.21 128.088 47.21C127.608 47.21 127.225 47.36 126.938 47.66C126.658 47.96 126.518 48.3967 126.518 48.97V52H125.608V44.6H126.518V47.3C126.698 47.02 126.945 46.8033 127.258 46.65C127.578 46.4967 127.935 46.42 128.328 46.42ZM138.594 46.42C139.021 46.42 139.401 46.51 139.734 46.69C140.068 46.8633 140.331 47.1267 140.524 47.48C140.718 47.8333 140.814 48.2633 140.814 48.77V52H139.914V48.9C139.914 48.3533 139.778 47.9367 139.504 47.65C139.238 47.3567 138.874 47.21 138.414 47.21C137.941 47.21 137.564 47.3633 137.284 47.67C137.004 47.97 136.864 48.4067 136.864 48.98V52H135.964V48.9C135.964 48.3533 135.828 47.9367 135.554 47.65C135.288 47.3567 134.924 47.21 134.464 47.21C133.991 47.21 133.614 47.3633 133.334 47.67C133.054 47.97 132.914 48.4067 132.914 48.98V52H132.004V46.52H132.914V47.31C133.094 47.0233 133.334 46.8033 133.634 46.65C133.941 46.4967 134.278 46.42 134.644 46.42C135.104 46.42 135.511 46.5233 135.864 46.73C136.218 46.9367 136.481 47.24 136.654 47.64C136.808 47.2533 137.061 46.9533 137.414 46.74C137.768 46.5267 138.161 46.42 138.594 46.42ZM147.307 49.05C147.307 49.2233 147.297 49.4067 147.277 49.6H142.897C142.93 50.14 143.114 50.5633 143.447 50.87C143.787 51.17 144.197 51.32 144.677 51.32C145.07 51.32 145.397 51.23 145.657 51.05C145.924 50.8633 146.11 50.6167 146.217 50.31H147.197C147.05 50.8367 146.757 51.2667 146.317 51.6C145.877 51.9267 145.33 52.09 144.677 52.09C144.157 52.09 143.69 51.9733 143.277 51.74C142.87 51.5067 142.55 51.1767 142.317 50.75C142.084 50.3167 141.967 49.8167 141.967 49.25C141.967 48.6833 142.08 48.1867 142.307 47.76C142.534 47.3333 142.85 47.0067 143.257 46.78C143.67 46.5467 144.144 46.43 144.677 46.43C145.197 46.43 145.657 46.5433 146.057 46.77C146.457 46.9967 146.764 47.31 146.977 47.71C147.197 48.1033 147.307 48.55 147.307 49.05ZM146.367 48.86C146.367 48.5133 146.29 48.2167 146.137 47.97C145.984 47.7167 145.774 47.5267 145.507 47.4C145.247 47.2667 144.957 47.2 144.637 47.2C144.177 47.2 143.784 47.3467 143.457 47.64C143.137 47.9333 142.954 48.34 142.907 48.86H146.367ZM151.178 46.42C151.845 46.42 152.385 46.6233 152.798 47.03C153.212 47.43 153.418 48.01 153.418 48.77V52H152.518V48.9C152.518 48.3533 152.382 47.9367 152.108 47.65C151.835 47.3567 151.462 47.21 150.988 47.21C150.508 47.21 150.125 47.36 149.838 47.66C149.558 47.96 149.418 48.3967 149.418 48.97V52H148.508V46.52H149.418V47.3C149.598 47.02 149.842 46.8033 150.148 46.65C150.462 46.4967 150.805 46.42 151.178 46.42ZM156.015 47.27V50.5C156.015 50.7667 156.071 50.9567 156.185 51.07C156.298 51.1767 156.495 51.23 156.775 51.23H157.445V52H156.625C156.118 52 155.738 51.8833 155.485 51.65C155.231 51.4167 155.105 51.0333 155.105 50.5V47.27H154.395V46.52H155.105V45.14H156.015V46.52H157.445V47.27H156.015ZM160.873 49.24C160.873 48.68 160.987 48.19 161.213 47.77C161.44 47.3433 161.75 47.0133 162.143 46.78C162.543 46.5467 162.987 46.43 163.473 46.43C163.953 46.43 164.37 46.5333 164.723 46.74C165.077 46.9467 165.34 47.2067 165.513 47.52V46.52H166.433V52H165.513V50.98C165.333 51.3 165.063 51.5667 164.703 51.78C164.35 51.9867 163.937 52.09 163.463 52.09C162.977 52.09 162.537 51.97 162.143 51.73C161.75 51.49 161.44 51.1533 161.213 50.72C160.987 50.2867 160.873 49.7933 160.873 49.24ZM165.513 49.25C165.513 48.8367 165.43 48.4767 165.263 48.17C165.097 47.8633 164.87 47.63 164.583 47.47C164.303 47.3033 163.993 47.22 163.653 47.22C163.313 47.22 163.003 47.3 162.723 47.46C162.443 47.62 162.22 47.8533 162.053 48.16C161.887 48.4667 161.803 48.8267 161.803 49.24C161.803 49.66 161.887 50.0267 162.053 50.34C162.22 50.6467 162.443 50.8833 162.723 51.05C163.003 51.21 163.313 51.29 163.653 51.29C163.993 51.29 164.303 51.21 164.583 51.05C164.87 50.8833 165.097 50.6467 165.263 50.34C165.43 50.0267 165.513 49.6633 165.513 49.25ZM170.641 46.42C171.308 46.42 171.848 46.6233 172.261 47.03C172.675 47.43 172.881 48.01 172.881 48.77V52H171.981V48.9C171.981 48.3533 171.845 47.9367 171.571 47.65C171.298 47.3567 170.925 47.21 170.451 47.21C169.971 47.21 169.588 47.36 169.301 47.66C169.021 47.96 168.881 48.3967 168.881 48.97V52H167.971V46.52H168.881V47.3C169.061 47.02 169.305 46.8033 169.611 46.65C169.925 46.4967 170.268 46.42 170.641 46.42ZM174.028 49.24C174.028 48.68 174.141 48.19 174.368 47.77C174.594 47.3433 174.904 47.0133 175.298 46.78C175.698 46.5467 176.144 46.43 176.638 46.43C177.064 46.43 177.461 46.53 177.828 46.73C178.194 46.9233 178.474 47.18 178.668 47.5V44.6H179.588V52H178.668V50.97C178.488 51.2967 178.221 51.5667 177.868 51.78C177.514 51.9867 177.101 52.09 176.628 52.09C176.141 52.09 175.698 51.97 175.298 51.73C174.904 51.49 174.594 51.1533 174.368 50.72C174.141 50.2867 174.028 49.7933 174.028 49.24ZM178.668 49.25C178.668 48.8367 178.584 48.4767 178.418 48.17C178.251 47.8633 178.024 47.63 177.738 47.47C177.458 47.3033 177.148 47.22 176.808 47.22C176.468 47.22 176.158 47.3 175.878 47.46C175.598 47.62 175.374 47.8533 175.208 48.16C175.041 48.4667 174.958 48.8267 174.958 49.24C174.958 49.66 175.041 50.0267 175.208 50.34C175.374 50.6467 175.598 50.8833 175.878 51.05C176.158 51.21 176.468 51.29 176.808 51.29C177.148 51.29 177.458 51.21 177.738 51.05C178.024 50.8833 178.251 50.6467 178.418 50.34C178.584 50.0267 178.668 49.6633 178.668 49.25ZM67.68 66.26H70.12V67H66.77V60.03H67.68V66.26ZM71.5564 60.63C71.3831 60.63 71.2364 60.57 71.1164 60.45C70.9964 60.33 70.9364 60.1833 70.9364 60.01C70.9364 59.8367 70.9964 59.69 71.1164 59.57C71.2364 59.45 71.3831 59.39 71.5564 59.39C71.7231 59.39 71.8631 59.45 71.9764 59.57C72.0964 59.69 72.1564 59.8367 72.1564 60.01C72.1564 60.1833 72.0964 60.33 71.9764 60.45C71.8631 60.57 71.7231 60.63 71.5564 60.63ZM71.9964 61.52V67H71.0864V61.52H71.9964ZM75.7773 62.27H74.6273V67H73.7173V62.27H73.0073V61.52H73.7173V61.13C73.7173 60.5167 73.874 60.07 74.1873 59.79C74.5073 59.5033 75.0173 59.36 75.7173 59.36V60.12C75.3173 60.12 75.034 60.2 74.8673 60.36C74.7073 60.5133 74.6273 60.77 74.6273 61.13V61.52H75.7773V62.27ZM81.8384 64.05C81.8384 64.2233 81.8284 64.4067 81.8084 64.6H77.4284C77.4617 65.14 77.645 65.5633 77.9784 65.87C78.3184 66.17 78.7284 66.32 79.2084 66.32C79.6017 66.32 79.9284 66.23 80.1884 66.05C80.455 65.8633 80.6417 65.6167 80.7484 65.31H81.7284C81.5817 65.8367 81.2884 66.2667 80.8484 66.6C80.4084 66.9267 79.8617 67.09 79.2084 67.09C78.6884 67.09 78.2217 66.9733 77.8084 66.74C77.4017 66.5067 77.0817 66.1767 76.8484 65.75C76.615 65.3167 76.4984 64.8167 76.4984 64.25C76.4984 63.6833 76.6117 63.1867 76.8384 62.76C77.065 62.3333 77.3817 62.0067 77.7884 61.78C78.2017 61.5467 78.675 61.43 79.2084 61.43C79.7284 61.43 80.1884 61.5433 80.5884 61.77C80.9884 61.9967 81.295 62.31 81.5084 62.71C81.7284 63.1033 81.8384 63.55 81.8384 64.05ZM80.8984 63.86C80.8984 63.5133 80.8217 63.2167 80.6684 62.97C80.515 62.7167 80.305 62.5267 80.0384 62.4C79.7784 62.2667 79.4884 62.2 79.1684 62.2C78.7084 62.2 78.315 62.3467 77.9884 62.64C77.6684 62.9333 77.485 63.34 77.4384 63.86H80.8984ZM84.9795 67.09C84.5595 67.09 84.1829 67.02 83.8495 66.88C83.5162 66.7333 83.2529 66.5333 83.0595 66.28C82.8662 66.02 82.7595 65.7233 82.7395 65.39H83.6795C83.7062 65.6633 83.8329 65.8867 84.0595 66.06C84.2929 66.2333 84.5962 66.32 84.9695 66.32C85.3162 66.32 85.5895 66.2433 85.7895 66.09C85.9895 65.9367 86.0895 65.7433 86.0895 65.51C86.0895 65.27 85.9829 65.0933 85.7695 64.98C85.5562 64.86 85.2262 64.7433 84.7795 64.63C84.3729 64.5233 84.0395 64.4167 83.7795 64.31C83.5262 64.1967 83.3062 64.0333 83.1195 63.82C82.9395 63.6 82.8495 63.3133 82.8495 62.96C82.8495 62.68 82.9329 62.4233 83.0995 62.19C83.2662 61.9567 83.5029 61.7733 83.8095 61.64C84.1162 61.5 84.4662 61.43 84.8595 61.43C85.4662 61.43 85.9562 61.5833 86.3295 61.89C86.7029 62.1967 86.9029 62.6167 86.9295 63.15H86.0195C85.9995 62.8633 85.8829 62.6333 85.6695 62.46C85.4629 62.2867 85.1829 62.2 84.8295 62.2C84.5029 62.2 84.2429 62.27 84.0495 62.41C83.8562 62.55 83.7595 62.7333 83.7595 62.96C83.7595 63.14 83.8162 63.29 83.9295 63.41C84.0495 63.5233 84.1962 63.6167 84.3695 63.69C84.5495 63.7567 84.7962 63.8333 85.1095 63.92C85.5029 64.0267 85.8229 64.1333 86.0695 64.24C86.3162 64.34 86.5262 64.4933 86.6995 64.7C86.8795 64.9067 86.9729 65.1767 86.9795 65.51C86.9795 65.81 86.8962 66.08 86.7295 66.32C86.5629 66.56 86.3262 66.75 86.0195 66.89C85.7195 67.0233 85.3729 67.09 84.9795 67.09ZM89.3741 62.27V65.5C89.3741 65.7667 89.4308 65.9567 89.5441 66.07C89.6575 66.1767 89.8541 66.23 90.1341 66.23H90.8041V67H89.9841C89.4775 67 89.0975 66.8833 88.8441 66.65C88.5908 66.4167 88.4641 66.0333 88.4641 65.5V62.27H87.7541V61.52H88.4641V60.14H89.3741V61.52H90.8041V62.27H89.3741ZM96.6267 61.52L93.3267 69.58H92.3867L93.4667 66.94L91.2567 61.52H92.2667L93.9867 65.96L95.6867 61.52H96.6267ZM98.4515 59.6V67H97.5415V59.6H98.4515ZM105.002 64.05C105.002 64.2233 104.992 64.4067 104.972 64.6H100.592C100.626 65.14 100.809 65.5633 101.142 65.87C101.482 66.17 101.892 66.32 102.372 66.32C102.766 66.32 103.092 66.23 103.352 66.05C103.619 65.8633 103.806 65.6167 103.912 65.31H104.892C104.746 65.8367 104.452 66.2667 104.012 66.6C103.572 66.9267 103.026 67.09 102.372 67.09C101.852 67.09 101.386 66.9733 100.972 66.74C100.566 66.5067 100.246 66.1767 100.012 65.75C99.7791 65.3167 99.6624 64.8167 99.6624 64.25C99.6624 63.6833 99.7758 63.1867 100.002 62.76C100.229 62.3333 100.546 62.0067 100.952 61.78C101.366 61.5467 101.839 61.43 102.372 61.43C102.892 61.43 103.352 61.5433 103.752 61.77C104.152 61.9967 104.459 62.31 104.672 62.71C104.892 63.1033 105.002 63.55 105.002 64.05ZM104.062 63.86C104.062 63.5133 103.986 63.2167 103.832 62.97C103.679 62.7167 103.469 62.5267 103.202 62.4C102.942 62.2667 102.652 62.2 102.332 62.2C101.872 62.2 101.479 62.3467 101.152 62.64C100.832 62.9333 100.649 63.34 100.602 63.86H104.062ZM112.99 65.45H109.95L109.39 67H108.43L110.95 60.07H112L114.51 67H113.55L112.99 65.45ZM112.73 64.71L111.47 61.19L110.21 64.71H112.73ZM115.268 64.24C115.268 63.68 115.381 63.19 115.608 62.77C115.835 62.3433 116.145 62.0133 116.538 61.78C116.938 61.5467 117.385 61.43 117.878 61.43C118.305 61.43 118.701 61.53 119.068 61.73C119.435 61.9233 119.715 62.18 119.908 62.5V59.6H120.828V67H119.908V65.97C119.728 66.2967 119.461 66.5667 119.108 66.78C118.755 66.9867 118.341 67.09 117.868 67.09C117.381 67.09 116.938 66.97 116.538 66.73C116.145 66.49 115.835 66.1533 115.608 65.72C115.381 65.2867 115.268 64.7933 115.268 64.24ZM119.908 64.25C119.908 63.8367 119.825 63.4767 119.658 63.17C119.491 62.8633 119.265 62.63 118.978 62.47C118.698 62.3033 118.388 62.22 118.048 62.22C117.708 62.22 117.398 62.3 117.118 62.46C116.838 62.62 116.615 62.8533 116.448 63.16C116.281 63.4667 116.198 63.8267 116.198 64.24C116.198 64.66 116.281 65.0267 116.448 65.34C116.615 65.6467 116.838 65.8833 117.118 66.05C117.398 66.21 117.708 66.29 118.048 66.29C118.388 66.29 118.698 66.21 118.978 66.05C119.265 65.8833 119.491 65.6467 119.658 65.34C119.825 65.0267 119.908 64.6633 119.908 64.25ZM124.406 66.16L126.106 61.52H127.076L124.926 67H123.866L121.716 61.52H122.696L124.406 66.16ZM128.441 60.63C128.268 60.63 128.121 60.57 128.001 60.45C127.881 60.33 127.821 60.1833 127.821 60.01C127.821 59.8367 127.881 59.69 128.001 59.57C128.121 59.45 128.268 59.39 128.441 59.39C128.608 59.39 128.748 59.45 128.861 59.57C128.981 59.69 129.041 59.8367 129.041 60.01C129.041 60.1833 128.981 60.33 128.861 60.45C128.748 60.57 128.608 60.63 128.441 60.63ZM128.881 61.52V67H127.971V61.52H128.881ZM132.372 67.09C131.952 67.09 131.575 67.02 131.242 66.88C130.909 66.7333 130.645 66.5333 130.452 66.28C130.259 66.02 130.152 65.7233 130.132 65.39H131.072C131.099 65.6633 131.225 65.8867 131.452 66.06C131.685 66.2333 131.989 66.32 132.362 66.32C132.709 66.32 132.982 66.2433 133.182 66.09C133.382 65.9367 133.482 65.7433 133.482 65.51C133.482 65.27 133.375 65.0933 133.162 64.98C132.949 64.86 132.619 64.7433 132.172 64.63C131.765 64.5233 131.432 64.4167 131.172 64.31C130.919 64.1967 130.699 64.0333 130.512 63.82C130.332 63.6 130.242 63.3133 130.242 62.96C130.242 62.68 130.325 62.4233 130.492 62.19C130.659 61.9567 130.895 61.7733 131.202 61.64C131.509 61.5 131.859 61.43 132.252 61.43C132.859 61.43 133.349 61.5833 133.722 61.89C134.095 62.1967 134.295 62.6167 134.322 63.15H133.412C133.392 62.8633 133.275 62.6333 133.062 62.46C132.855 62.2867 132.575 62.2 132.222 62.2C131.895 62.2 131.635 62.27 131.442 62.41C131.249 62.55 131.152 62.7333 131.152 62.96C131.152 63.14 131.209 63.29 131.322 63.41C131.442 63.5233 131.589 63.6167 131.762 63.69C131.942 63.7567 132.189 63.8333 132.502 63.92C132.895 64.0267 133.215 64.1333 133.462 64.24C133.709 64.34 133.919 64.4933 134.092 64.7C134.272 64.9067 134.365 65.1767 134.372 65.51C134.372 65.81 134.289 66.08 134.122 66.32C133.955 66.56 133.719 66.75 133.412 66.89C133.112 67.0233 132.765 67.09 132.372 67.09ZM138.047 67.09C137.533 67.09 137.067 66.9733 136.647 66.74C136.233 66.5067 135.907 66.1767 135.667 65.75C135.433 65.3167 135.317 64.8167 135.317 64.25C135.317 63.69 135.437 63.1967 135.677 62.77C135.923 62.3367 136.257 62.0067 136.677 61.78C137.097 61.5467 137.567 61.43 138.087 61.43C138.607 61.43 139.077 61.5467 139.497 61.78C139.917 62.0067 140.247 62.3333 140.487 62.76C140.733 63.1867 140.857 63.6833 140.857 64.25C140.857 64.8167 140.73 65.3167 140.477 65.75C140.23 66.1767 139.893 66.5067 139.467 66.74C139.04 66.9733 138.567 67.09 138.047 67.09ZM138.047 66.29C138.373 66.29 138.68 66.2133 138.967 66.06C139.253 65.9067 139.483 65.6767 139.657 65.37C139.837 65.0633 139.927 64.69 139.927 64.25C139.927 63.81 139.84 63.4367 139.667 63.13C139.493 62.8233 139.267 62.5967 138.987 62.45C138.707 62.2967 138.403 62.22 138.077 62.22C137.743 62.22 137.437 62.2967 137.157 62.45C136.883 62.5967 136.663 62.8233 136.497 63.13C136.33 63.4367 136.247 63.81 136.247 64.25C136.247 64.6967 136.327 65.0733 136.487 65.38C136.653 65.6867 136.873 65.9167 137.147 66.07C137.42 66.2167 137.72 66.29 138.047 66.29ZM142.963 62.41C143.123 62.0967 143.35 61.8533 143.643 61.68C143.943 61.5067 144.307 61.42 144.733 61.42V62.36H144.493C143.473 62.36 142.963 62.9133 142.963 64.02V67H142.053V61.52H142.963V62.41Z" fill="white"/>
</svg>
