<svg width="50" height="50" viewBox="0 0 50 50" fill="none" xmlns="http://www.w3.org/2000/svg">
<circle cx="25" cy="25" r="25" fill="white"/>
<g clip-path="url(#clip0_214_12)">
<path d="M24.7566 20.7434L24.2803 20.7177C24.4582 14.7246 19.2185 11.2428 19.1714 11.2171L19.3703 10.7806C19.4226 10.8063 24.9503 14.1597 24.7566 20.7434Z" fill="#3D9FAA"/>
<path d="M27.2586 10C27.2586 10 22.9087 10.0719 23.6782 16.3783C23.6834 16.3783 29.4204 15.952 27.2586 10Z" fill="#3D9FAA"/>
<path opacity="0.75" d="M27.2586 10L23.6782 16.3783C23.6835 16.3783 29.4205 15.952 27.2586 10Z" fill="#CDCFD0"/>
<path d="M36.1256 20.199C30.2681 12.4855 24.4997 20.199 24.4997 20.199C24.4997 20.199 18.7261 12.4855 12.8739 20.199C12.8739 20.199 8.524 25.7813 19.2286 38.2553C19.2286 38.2553 22.0918 40.6536 24.4997 36.8379C26.9024 40.6536 29.7709 38.2553 29.7709 38.2553C40.4754 25.7813 36.1256 20.199 36.1256 20.199Z" fill="#F98F53"/>
<path d="M32.9747 22.284C28.8709 16.8764 24.8246 21.8629 24.521 22.2583V34.4448C26.2693 37.182 28.3422 35.4462 28.3422 35.4462C36.1468 26.3513 32.9747 22.284 32.9747 22.284Z" fill="white"/>
<path d="M27.3946 24.4512C27.993 24.4512 28.4781 23.9753 28.4781 23.3882C28.4781 22.8011 27.993 22.3251 27.3946 22.3251C26.7962 22.3251 26.311 22.8011 26.311 23.3882C26.311 23.9753 26.7962 24.4512 27.3946 24.4512Z" fill="#566977"/>
<path d="M27.3946 32.5652C27.993 32.5652 28.4781 32.0893 28.4781 31.5022C28.4781 30.9151 27.993 30.4391 27.3946 30.4391C26.7962 30.4391 26.311 30.9151 26.311 31.5022C26.311 32.0893 26.7962 32.5652 27.3946 32.5652Z" fill="#566977"/>
<path d="M30.6397 27.2654C30.6397 27.8509 30.1529 28.3285 29.5562 28.3285C28.9595 28.3285 28.4727 27.8509 28.4727 27.2654C28.4727 26.68 28.9595 26.2024 29.5562 26.2024C30.1582 26.2075 30.6397 26.68 30.6397 27.2654Z" fill="#566977"/>
</g>
<defs>
<clipPath id="clip0_214_12">
<rect width="25" height="29" fill="white" transform="translate(12 10)"/>
</clipPath>
</defs>
</svg>
