<svg width="50" height="50" viewBox="0 0 50 50" fill="none" xmlns="http://www.w3.org/2000/svg">
<circle cx="25" cy="25" r="25" fill="white"/>
<g clip-path="url(#clip0_212_6)">
<path d="M30.9377 38H18.0623C17.4753 38 17 37.5181 17 36.9231V13.0769C17 12.4819 17.4753 12 18.0623 12H30.9377C31.5247 12 32 12.4819 32 13.0769V36.9189C32 37.5181 31.5247 38 30.9377 38Z" fill="#566977"/>
<path d="M29.4166 33.2064H19.5833C18.9963 33.2064 18.521 32.7246 18.521 32.1296V15.7125C18.521 15.1175 18.9963 14.6356 19.5833 14.6356H29.4166C30.0035 14.6356 30.4788 15.1175 30.4788 15.7125V32.1296C30.483 32.7246 30.0035 33.2064 29.4166 33.2064Z" fill="#47D7D4"/>
<path d="M24.502 36.1898C25.0134 36.1898 25.4279 35.7696 25.4279 35.2513C25.4279 34.7329 25.0134 34.3127 24.502 34.3127C23.9907 34.3127 23.5762 34.7329 23.5762 35.2513C23.5762 35.7696 23.9907 36.1898 24.502 36.1898Z" fill="white"/>
<path d="M26.4117 13.123H22.5884V13.7054H26.4117V13.123Z" fill="white"/>
<path d="M21.0258 17.1371C20.1619 17.1371 19.4634 17.8453 19.4634 18.721C19.4634 19.0479 19.5791 19.5884 19.9304 20.0284L21.0258 21.5955L22.1211 20.0284C22.4477 19.5339 22.5882 19.0562 22.5882 18.721C22.5882 17.8495 21.8897 17.1371 21.0258 17.1371ZM21.0258 19.5842C20.5629 19.5842 20.1909 19.2029 20.1909 18.7378C20.1909 18.2685 20.567 17.8914 21.0258 17.8914C21.4887 17.8914 21.8607 18.2727 21.8607 18.7378C21.8649 19.2029 21.4887 19.5842 21.0258 19.5842Z" fill="#F98F53"/>
<path d="M21.6255 22.6053C21.6255 22.9405 21.3568 23.2087 21.0303 23.2087C20.6996 23.2087 20.4351 22.9363 20.4351 22.6053C20.4351 22.2743 20.7037 22.0019 21.0303 22.0019C21.3568 22.0019 21.6255 22.2701 21.6255 22.6053Z" fill="#FFCC66"/>
<path d="M28.1352 26.3178C27.2713 26.3178 26.5728 27.0259 26.5728 27.9017C26.5728 28.2285 26.6885 28.7691 27.0398 29.209L28.1352 30.7762L29.2305 29.209C29.5612 28.7146 29.6976 28.2369 29.6976 27.9017C29.6976 27.0259 28.999 26.3178 28.1352 26.3178ZM28.1352 28.7607C27.6722 28.7607 27.3002 28.3794 27.3002 27.9143C27.3002 27.4492 27.6764 27.0679 28.1352 27.0679C28.5981 27.0679 28.9701 27.4492 28.9701 27.9143C28.9701 28.3794 28.5981 28.7607 28.1352 28.7607Z" fill="#F98F53"/>
<path d="M28.7304 31.7818C28.7304 32.117 28.4618 32.3852 28.1352 32.3852C27.8046 32.3852 27.54 32.1128 27.54 31.7818C27.54 31.4466 27.8087 31.1784 28.1352 31.1784C28.4659 31.1784 28.7304 31.4508 28.7304 31.7818Z" fill="#FFCC66"/>
<path d="M26.8623 31.8656H19.7529V29.2635H25.6099V27.0595H19.7529V24.5077H28.3007V22.2701H22.1999V22.1025H28.4661V24.6753H19.9183V26.8919H25.7752V29.4311H19.9183V31.698H26.8623V31.8656Z" fill="white"/>
</g>
<defs>
<clipPath id="clip0_212_6">
<rect width="15" height="26" fill="white" transform="translate(17 12)"/>
</clipPath>
</defs>
</svg>
