<svg width="50" height="50" viewBox="0 0 50 50" fill="none" xmlns="http://www.w3.org/2000/svg">
<circle cx="25" cy="25" r="25" fill="white"/>
<g clip-path="url(#clip0_214_7)">
<path d="M43.9638 27.2305L43.7189 26.7348C43.7189 26.7348 42.7913 25.3739 41.7595 24.4652C41.7595 24.4652 31.9885 25.3652 25.7559 20.6783H19.7265L19.7734 20.7305C19.7734 20.7305 17.0376 23.3218 14.26 22.0609C11.8681 20.9739 11.5867 20.1 11.6492 19.187C11.6648 18.987 11.4147 18.8522 11.201 18.9348L8.77784 19.8478C8.65798 19.8913 8.56939 19.9696 8.51728 20.0652C8.08475 20.9 6.08365 25.0087 6.91223 28.8652L6.71421 30.3174L6.04196 31.5522C5.92732 31.7652 6.06281 32.0131 6.32858 32.0783L9.71064 32.9087C9.91909 32.9609 10.138 32.8826 10.2422 32.7261L10.2943 32.6522C10.4611 32.3957 10.8936 32.3826 11.0864 32.6261L11.2375 32.8218C11.3209 32.9305 11.4668 32.9957 11.6231 32.9957H14.9739C15.1668 32.9957 15.3387 32.8957 15.4065 32.7478L15.4117 32.7392C15.5472 32.4478 16.0162 32.4044 16.2246 32.6609L16.308 32.7652C16.4174 32.9044 16.6207 32.9652 16.8083 32.9218L19.268 32.3696C19.4347 32.3348 19.5598 32.2218 19.5963 32.0826L19.7318 31.5826C19.7734 31.4218 19.9402 31.3 20.1382 31.287L20.5864 31.2522C20.8209 31.2348 21.0398 31.3696 21.0815 31.5652L21.2169 32.1739C21.2534 32.3348 21.4098 32.4609 21.6026 32.4826L25.5631 32.9522C25.7403 32.9739 25.9122 32.9087 26.0112 32.787L26.3031 32.4261C26.4646 32.2261 26.8086 32.1957 27.0118 32.3696L27.5902 32.8522C27.6945 32.9392 27.8404 32.9783 27.9863 32.9609L32.3012 32.387C32.4575 32.3652 32.5878 32.2826 32.6503 32.1652L32.9213 31.6565C33.0568 31.4044 33.4528 31.3478 33.6769 31.5478L33.9896 31.8218C34.1094 31.9261 34.2866 31.9652 34.4534 31.9261L38.5858 30.9348C38.7839 30.887 38.9194 30.7348 38.9194 30.5652V30.2826C38.9194 30 39.2737 29.8131 39.576 29.9348L39.701 29.9826C39.8574 30.0435 40.0398 30.0305 40.1753 29.9435L43.8075 27.6696C43.9846 27.5783 44.0472 27.3913 43.9638 27.2305Z" fill="#3D9FAA"/>
<path d="M43.7345 26.7739C43.3072 25.9478 42.5047 25.1087 41.7595 24.4609C41.7595 24.4609 31.952 25.3652 25.7194 20.6478H19.7057L19.7735 20.7261C19.7735 20.7261 17.0376 23.3174 14.26 22.0565C11.8003 20.9391 11.5763 20.1 11.6544 19.1609C11.6701 18.9739 11.4356 18.8435 11.2271 18.9218L8.77785 19.8522C8.65799 19.8957 8.5694 19.9739 8.51729 20.0696C8.08476 20.9 6.08367 25.0087 6.91224 28.8652L6.73506 30.1652C7.7773 30.2565 8.73616 30.5739 9.77319 30.7696C11.0604 31.0131 12.5091 31.1305 13.8275 31.0826C15.4065 31.0261 16.9698 30.6348 18.5332 30.4348C18.5853 30.4305 18.6322 30.4261 18.6843 30.4174C18.8823 28.9261 20.7063 28.7087 22.2853 29.2783C24.6772 30.1391 27.658 30.2305 30.2219 30.0435C32.692 29.8652 35.1308 29.4565 37.5176 28.9C38.0074 28.7913 44.0211 27.3261 43.7345 26.7739Z" fill="#47D7D4"/>
<path d="M25.7768 20.6913C25.1462 20.2217 24.5521 19.6913 24.0102 19.1C24.0102 19.1 23.6506 17.9652 22.2019 17.1522C21.7954 16.9217 21.2482 16.9522 20.8835 17.2261L19.0752 18.5783C18.6635 18.887 18.601 19.4044 18.9293 19.7739L19.7422 20.687H25.7768V20.6913Z" fill="#566977"/>
<path d="M15.9486 25.8696C15.9486 25.8696 10.185 26.1652 7.69402 21.9435C7.496 22.4783 7.29276 23.0957 7.12601 23.7696C7.12601 23.7696 9.74202 26.8217 12.7906 26.7304C12.7906 26.7304 9.84625 29.5087 6.77686 28.0522C6.80812 28.3261 6.85502 28.5957 6.91235 28.8652L6.90192 28.9391C8.69457 29.6304 12.4362 30.2826 15.9486 25.8696Z" fill="#566977"/>
<path d="M6.77682 28.0522C9.84621 29.5087 12.7905 26.7305 12.7905 26.7305C9.74199 26.8218 7.12597 23.7696 7.12597 23.7696C6.80288 25.0609 6.60485 26.5565 6.77682 28.0522Z" fill="#FFCC66"/>
<path d="M24.8855 22.5826C24.8855 22.5826 19.5753 23.9696 20.0651 27.4653L22.6811 26.8305C22.6811 26.8305 21.6441 24.7392 26.1362 23.3783L24.8855 22.5826Z" fill="white"/>
<path d="M28.3147 24.2218C28.3147 24.2218 25.9905 25.8305 26.0947 26.7566L27.5955 27.1348C27.5955 27.1348 28.2678 25.1348 30.0239 24.8087C30.0187 24.8087 29.138 24.1261 28.3147 24.2218Z" fill="white"/>
<path d="M41.6813 24.4174C27.6111 24.4609 23.9477 18.9435 23.9477 18.9435L19.7057 20.6435L19.7735 20.7217C19.7735 20.7217 17.0376 23.313 14.26 22.0522C12.1495 21.0957 11.6857 20.3 11.6492 19.5C11.2845 19.6261 10.8884 19.6826 10.5184 19.8C9.92434 19.987 8.6945 20.3304 8.13169 20.8783C8.03268 21.1 7.92324 21.3565 7.80859 21.6435C8.72055 20.7217 10.2891 20.7826 10.2891 20.7826C14.4268 28.187 21.6704 21.3261 21.6704 21.3261C31.6029 27.4913 39.8626 25.3044 41.921 24.6H41.9263C41.921 24.6 41.7595 24.4174 41.6813 24.4174Z" fill="#3D9FAA"/>
<path d="M22.8947 22.1L25.2554 20.4696C25.5681 20.2522 25.615 19.8696 25.3544 19.6087L25.1199 19.3652C24.8594 19.1 24.3956 19.0609 24.0829 19.2783L21.6597 20.9391C21.3053 21.1826 21.3001 21.6348 21.6493 21.8826L21.9463 22.0957C22.2173 22.287 22.6185 22.2913 22.8947 22.1Z" fill="#FFCC66"/>
<path d="M25.6464 23.7043L27.908 22.3782C28.2884 22.1565 28.3301 21.7 27.9966 21.4348L27.8142 21.2869C27.5745 21.0956 27.2149 21.0609 26.9283 21.2L24.4165 22.4261C23.9527 22.6522 23.9267 23.2087 24.3748 23.4652L24.8074 23.713C25.0575 23.8522 25.3962 23.8522 25.6464 23.7043Z" fill="#FFCC66"/>
<path d="M29.529 22.8305L28.0699 24.1044C27.7259 24.4044 27.8301 24.8957 28.2731 25.0783L28.6535 25.2348C28.9714 25.3653 29.3518 25.2913 29.5655 25.0566L30.8109 23.7C31.0871 23.3957 30.9725 22.9609 30.5712 22.7826L30.4045 22.7087C30.1126 22.5826 29.7531 22.6305 29.529 22.8305Z" fill="#FFCC66"/>
<path d="M32.5252 23.8565L31.8998 24.9218C31.6705 25.3131 31.9884 25.7739 32.5095 25.8044H32.5252C32.8222 25.8218 33.0984 25.6913 33.2339 25.4696L33.8801 24.4131C34.0885 24.0739 33.8801 23.6609 33.4475 23.5479L33.4111 23.5392C33.0567 23.4479 32.6815 23.5826 32.5252 23.8565Z" fill="#FFCC66"/>
<path d="M23.7394 26.1218C20.6283 26.2218 15.2191 28.8566 12.8636 29.4348C12.8636 29.4348 12.8636 29.4348 12.8584 29.4348C15.0054 29.3087 18.0592 28.9522 21.9519 28.0522C23.4111 27.7131 24.9744 27.8392 26.3293 28.4087L30.2169 30.0435H30.2221C32.6922 29.8653 35.131 29.4566 37.5178 28.9C37.6376 28.8739 38.0753 28.7653 38.6694 28.6131C35.6417 27.8739 27.5435 25.9957 23.7394 26.1218Z" fill="#566977"/>
<path opacity="0.85" d="M43.7187 26.7304C43.7187 26.7304 43.6927 26.6957 43.651 26.6348C43.2393 25.913 42.567 25.1913 41.9156 24.6H41.9209C41.9209 24.5957 41.9156 24.5957 41.9104 24.5913C41.9104 24.5913 36.4074 27.1348 27.6526 28.013C23.8849 28.3913 20.1798 28.3391 16.3964 28.3044C13.327 28.2783 10.6485 27.987 7.88135 27.0696C7.64164 27.0304 7.39671 26.9609 7.16742 26.8522C7.12573 26.8348 7.08404 26.8174 7.04235 26.8C6.93292 26.7652 6.81827 26.7304 6.70884 26.6957C6.6932 27.4261 6.75574 28.1522 6.90686 28.8652L6.89644 28.9391L6.70884 30.3174L6.03659 31.5522C5.92195 31.7652 6.05744 32.013 6.32321 32.0783L9.70527 32.9087C9.91372 32.9609 10.1326 32.8826 10.2368 32.7261L10.2889 32.6522C10.4557 32.3957 10.8882 32.3826 11.081 32.6261L11.2321 32.8217C11.3155 32.9304 11.4614 32.9957 11.6178 32.9957H14.9686C15.1614 32.9957 15.3334 32.8957 15.4011 32.7478L15.4063 32.7391C15.5418 32.4478 16.0108 32.4044 16.2193 32.6609L16.3026 32.7652C16.4121 32.9044 16.6153 32.9652 16.8029 32.9217L19.2626 32.3696C19.4294 32.3348 19.5544 32.2217 19.5909 32.0826L19.7264 31.5826C19.7681 31.4217 19.9348 31.3 20.1329 31.287L20.581 31.2522C20.8155 31.2348 21.0344 31.3696 21.0761 31.5652L21.2116 32.1739C21.2481 32.3348 21.4044 32.4609 21.5972 32.4826L25.5577 32.9522C25.7349 32.9739 25.9069 32.9087 26.0059 32.787L26.2977 32.4261C26.4592 32.2261 26.8032 32.1957 27.0064 32.3696L27.5849 32.8522C27.6891 32.9391 27.835 32.9783 27.9809 32.9609L32.2958 32.387C32.4521 32.3652 32.5824 32.2826 32.6449 32.1652L32.9159 31.6565C33.0514 31.4044 33.4475 31.3478 33.6715 31.5478L33.9842 31.8217C34.1041 31.9261 34.2812 31.9652 34.448 31.9261L38.5805 30.9348C38.7785 30.887 38.914 30.7348 38.914 30.5652V30.2826C38.914 30 39.2684 29.813 39.5706 29.9348L39.6957 29.9826C39.852 30.0435 40.0344 30.0304 40.1699 29.9435L43.8021 27.6696C43.9688 27.5652 44.0314 27.3783 43.9532 27.2174L43.7187 26.7304Z" fill="#CDCFD0"/>
</g>
<defs>
<clipPath id="clip0_214_7">
<rect width="38" height="16" fill="white" transform="translate(6 17)"/>
</clipPath>
</defs>
</svg>
