<svg width="117" height="15" viewBox="0 0 117 15" fill="none" xmlns="http://www.w3.org/2000/svg">
<path d="M0 1.07438C0 0.480938 0.493125 0 1.10156 0H13.8984C14.5069 0 15 0.480938 15 1.07438V13.9256C15 14.5191 14.5069 15 13.8984 15H1.10156C0.493125 15 0 14.5191 0 13.9256V1.07438ZM4.63406 12.5569V5.78344H2.38313V12.5569H4.63406ZM3.50906 4.85813C4.29375 4.85813 4.78219 4.33875 4.78219 3.68813C4.76813 3.02344 4.29469 2.51813 3.52406 2.51813C2.75344 2.51813 2.25 3.02437 2.25 3.68813C2.25 4.33875 2.73844 4.85813 3.49406 4.85813H3.50906ZM8.11031 12.5569V8.77406C8.11031 8.57156 8.12531 8.36906 8.18531 8.22469C8.3475 7.82062 8.71781 7.40156 9.34031 7.40156C10.155 7.40156 10.4803 8.02219 10.4803 8.93344V12.5569H12.7312V8.67188C12.7312 6.59062 11.6213 5.62313 10.14 5.62313C8.94563 5.62313 8.41031 6.27938 8.11031 6.74156V6.765H8.09531C8.10029 6.75717 8.10529 6.74936 8.11031 6.74156V5.78344H5.86031C5.88844 6.41906 5.86031 12.5569 5.86031 12.5569H8.11031Z" fill="white"/>
<g clip-path="url(#clip0_99_451)">
<path d="M65.9994 7.54602C65.9994 3.3779 62.6413 -0.000854492 58.4994 -0.000854492C54.3557 8.30078e-05 50.9976 3.3779 50.9976 7.54696C50.9976 11.3129 53.7407 14.4348 57.3257 15.001V9.72758H55.4226V7.54696H57.3276V5.8829C57.3276 3.99196 58.4479 2.94758 60.1607 2.94758C60.9819 2.94758 61.8397 3.09477 61.8397 3.09477V4.95102H60.8938C59.9629 4.95102 59.6722 5.53321 59.6722 6.1304V7.54602H61.7516L61.4197 9.72665H59.6713V15.0001C63.2563 14.4338 65.9994 11.312 65.9994 7.54602Z" fill="white"/>
</g>
<g clip-path="url(#clip1_99_451)">
<path d="M109.5 0C111.535 0 111.791 0.009375 112.591 0.045C113.391 0.0825 113.935 0.208125 114.412 0.39375C114.913 0.582018 115.366 0.877337 115.741 1.25906C116.122 1.63378 116.418 2.0871 116.606 2.5875C116.792 3.06375 116.918 3.60937 116.955 4.40625C116.991 5.20781 117 5.46281 117 7.50094C117 9.53719 116.991 9.79219 116.955 10.5919C116.918 11.3906 116.792 11.9353 116.606 12.4125C116.414 12.9056 116.158 13.3237 115.741 13.7409C115.325 14.1581 114.907 14.415 114.413 14.6062C113.935 14.7919 113.392 14.9184 112.593 14.955C111.792 14.9906 111.537 15 109.5 15C107.463 15 107.209 14.9906 106.408 14.955C105.61 14.9175 105.064 14.7919 104.587 14.6062C104.086 14.4179 103.633 14.1226 103.259 13.7409C102.842 13.3237 102.586 12.9056 102.394 12.4125C102.209 11.9353 102.083 11.3906 102.045 10.5919C102.009 9.79219 102 9.53719 102 7.5C102 5.46281 102.009 5.20781 102.045 4.40719C102.083 3.60938 102.209 3.06375 102.394 2.5875C102.582 2.08709 102.878 1.63376 103.259 1.25906C103.633 0.877196 104.087 0.581855 104.588 0.39375C105.066 0.208125 105.611 0.0815625 106.409 0.045C107.21 0.009375 107.464 0 109.502 0H109.499H109.5ZM110.172 1.35188H109.499C107.497 1.35188 107.259 1.35844 106.469 1.395C105.738 1.42781 105.34 1.55062 105.076 1.65281C104.726 1.78875 104.476 1.95187 104.213 2.21438C103.951 2.47688 103.789 2.72625 103.653 3.07687C103.55 3.34031 103.428 3.73781 103.395 4.46906C103.358 5.25938 103.351 5.49656 103.351 7.49813C103.351 9.49969 103.358 9.73781 103.395 10.5281C103.428 11.2594 103.551 11.6559 103.653 11.9203C103.773 12.246 103.965 12.5404 104.214 12.7819C104.477 13.0444 104.726 13.2066 105.077 13.3425C105.339 13.4456 105.737 13.5675 106.469 13.6013C107.259 13.6369 107.497 13.6453 109.499 13.6453C111.502 13.6453 111.74 13.6369 112.53 13.6013C113.261 13.5675 113.658 13.4456 113.922 13.3425C114.248 13.2224 114.543 13.0309 114.785 12.7819C115.034 12.54 115.227 12.2453 115.347 11.9194C115.449 11.6559 115.572 11.2584 115.605 10.5272C115.641 9.73688 115.648 9.49969 115.648 7.49625C115.648 5.49375 115.641 5.2575 115.605 4.46719C115.571 3.73594 115.449 3.33844 115.346 3.07406C115.21 2.72438 115.047 2.47406 114.785 2.21156C114.522 1.94906 114.273 1.78688 113.922 1.65094C113.658 1.54781 113.261 1.42594 112.53 1.39219C111.838 1.36031 111.57 1.35094 110.172 1.35V1.35188ZM105.496 2.59687C105.614 2.59687 105.731 2.62015 105.84 2.66538C105.95 2.71061 106.049 2.77691 106.132 2.86048C106.216 2.94405 106.282 3.04327 106.327 3.15246C106.373 3.26165 106.396 3.37869 106.396 3.49688C106.396 3.61506 106.373 3.7321 106.327 3.84129C106.282 3.95048 106.216 4.0497 106.132 4.13327C106.049 4.21684 105.95 4.28314 105.84 4.32837C105.731 4.3736 105.614 4.39687 105.496 4.39687C105.257 4.39687 105.028 4.30205 104.86 4.13327C104.691 3.96449 104.596 3.73557 104.596 3.49688C104.596 3.25818 104.691 3.02926 104.86 2.86048C105.028 2.6917 105.257 2.59687 105.496 2.59687ZM109.499 3.64875C110.01 3.64078 110.517 3.73452 110.992 3.92451C111.466 4.1145 111.898 4.39694 112.262 4.7554C112.626 5.11385 112.915 5.54116 113.112 6.01243C113.31 6.48371 113.411 6.98953 113.411 7.50047C113.411 8.0114 113.31 8.51723 113.112 8.98851C112.915 9.45978 112.626 9.88708 112.262 10.2455C111.898 10.604 111.466 10.8864 110.992 11.0764C110.517 11.2664 110.01 11.3602 109.499 11.3522C108.488 11.3364 107.524 10.9237 106.814 10.203C106.105 9.48243 105.707 8.51172 105.707 7.50047C105.707 6.48921 106.105 5.51851 106.814 4.79789C107.524 4.07727 108.488 3.66453 109.499 3.64875ZM109.499 4.99969C108.836 4.99969 108.2 5.26311 107.731 5.73201C107.262 6.20091 106.999 6.83688 106.999 7.5C106.999 8.16312 107.262 8.79909 107.731 9.26799C108.2 9.73689 108.836 10.0003 109.499 10.0003C110.162 10.0003 110.798 9.73689 111.267 9.26799C111.736 8.79909 111.999 8.16312 111.999 7.5C111.999 6.83688 111.736 6.20091 111.267 5.73201C110.798 5.26311 110.162 4.99969 109.499 4.99969Z" fill="white"/>
</g>
<defs>
<clipPath id="clip0_99_451">
<rect width="15" height="15" fill="white" transform="translate(51)"/>
</clipPath>
<clipPath id="clip1_99_451">
<rect width="15" height="15" fill="white" transform="matrix(-1 0 0 1 117 0)"/>
</clipPath>
</defs>
</svg>
